/* XPM */
static char * character1_xpm[] = {
"64 64 172 2",
"  	c #6670B7",
". 	c #6B75B9",
"+ 	c #7E86BF",
"@ 	c #7A82BE",
"# 	c #7079BA",
"$ 	c #868DC2",
"% 	c #A6AACF",
"& 	c #B4B8D6",
"* 	c #BFC2DC",
"= 	c #BCBFDA",
"- 	c #AFB2D4",
"; 	c #9CA1CB",
"> 	c #7A81BD",
", 	c #989EC9",
"' 	c #A5AACF",
") 	c #C4C6DE",
"! 	c #D8DAE9",
"~ 	c #E1E2EE",
"{ 	c #DFE0ED",
"] 	c #D2D4E6",
"^ 	c #B7BAD8",
"/ 	c #8B91C4",
"( 	c #9297C7",
"_ 	c #9FA4CC",
": 	c #CFD2E5",
"< 	c #DDDEEC",
"[ 	c #C1C4DD",
"} 	c #D7D8E3",
"| 	c #96969E",
"1 	c #000000",
"2 	c #393A3D",
"3 	c #434347",
"4 	c #69696F",
"5 	c #C6C7D2",
"6 	c #919199",
"7 	c #888990",
"8 	c #2F2F32",
"9 	c #BDBEC8",
"0 	c #D8DAEA",
"a 	c #A6AAD0",
"b 	c #8E8F97",
"c 	c #202023",
"d 	c #252528",
"e 	c #9D9EA6",
"f 	c #131415",
"g 	c #55555A",
"h 	c #C6C9E0",
"i 	c #67686E",
"j 	c #0A0A0B",
"k 	c #8F8F97",
"l 	c #B4B4BE",
"m 	c #D4D6E7",
"n 	c #7C7D84",
"o 	c #A5A6AF",
"p 	c #3F3F43",
"q 	c #0E0E10",
"r 	c #111113",
"s 	c #29292C",
"t 	c #64646A",
"u 	c #3B3B3F",
"v 	c #5E5F64",
"w 	c #46464A",
"x 	c #77777E",
"y 	c #161618",
"z 	c #7F7F87",
"A 	c #1B1B1D",
"B 	c #6D6D73",
"C 	c #616BAF",
"D 	c #30365C",
"E 	c #03030A",
"F 	c #15182D",
"G 	c #353B64",
"H 	c #4C548B",
"I 	c #58609E",
"J 	c #9E9EA7",
"K 	c #5C65A6",
"L 	c #495086",
"M 	c #616CB6",
"N 	c #5964B5",
"O 	c #5762B5",
"P 	c #5661B5",
"Q 	c #505DB4",
"R 	c #505CB4",
"S 	c #535FB4",
"T 	c #515DB4",
"U 	c #5763B5",
"V 	c #646EB7",
"W 	c #1A1D35",
"X 	c #717ABC",
"Y 	c #5662B5",
"Z 	c #515EB4",
"` 	c #5560B5",
" .	c #5460B5",
"..	c #5962A1",
"+.	c #0A0C1B",
"@.	c #333961",
"#.	c #1D213B",
"$.	c #050611",
"%.	c #2C3154",
"&.	c #4D558D",
"*.	c #020207",
"=.	c #343961",
"-.	c #616BB6",
";.	c #0E1122",
">.	c #505892",
",.	c #5863B5",
"'.	c #060713",
").	c #5A65B5",
"!.	c #5864B5",
"~.	c #525EB4",
"{.	c #5561B5",
"].	c #5D68B6",
"^.	c #16192F",
"/.	c #5C67B6",
"(.	c #5F6AB6",
"_.	c #646DB3",
":.	c #5F68AA",
"<.	c #0E1021",
"[.	c #626DB6",
"}.	c #565F9C",
"|.	c #2D3357",
"1.	c #14172C",
"2.	c #454C7F",
"3.	c #0C0E1E",
"4.	c #03040B",
"5.	c #0F1224",
"6.	c #5C66A7",
"7.	c #232745",
"8.	c #090A18",
"9.	c #2D3256",
"0.	c #5C65A5",
"a.	c #3F4675",
"b.	c #32385F",
"c.	c #383E6A",
"d.	c #0E1022",
"e.	c #181C33",
"f.	c #363C66",
"g.	c #292E50",
"h.	c #1C2039",
"i.	c #0A0C1A",
"j.	c #505891",
"k.	c #2F3459",
"l.	c #242947",
"m.	c #393F6A",
"n.	c #020309",
"o.	c #0D0F1F",
"p.	c #212541",
"q.	c #30355B",
"r.	c #3E4573",
"s.	c #212542",
"t.	c #060814",
"u.	c #555D99",
"v.	c #2B3053",
"w.	c #3C426F",
"x.	c #42497A",
"y.	c #101224",
"z.	c #191D35",
"A.	c #04050D",
"B.	c #383E69",
"C.	c #272B4C",
"D.	c #080A17",
"E.	c #2E3357",
"F.	c #454D80",
"G.	c #15182E",
"H.	c #13162B",
"I.	c #04050E",
"J.	c #15192E",
"K.	c #121529",
"L.	c #1B1F38",
"M.	c #191C34",
"N.	c #121428",
"O.	c #535C97",
"                                                                                                                                ",
"                                                                                                                                ",
"                                                                                                                                ",
"                                                                                                                                ",
"                                                                                                                                ",
"                                                                                                                                ",
"                                                                                                                                ",
"                                                                                                                                ",
"                                                                                                                                ",
"                                                                                                                                ",
"                                                                                                                                ",
"                              . + + @                                                     . # # .                               ",
"                        . $ % & * * = - ; @                                         . > $ , ' ' , $ > .                         ",
"                      # ; ) ! ~ ~ ~ ~ { ] ^ /                                     # ( = ! ~ ~ ~ ~ ! = ( #                       ",
"                    # _ : ~ ~ ~ ~ ~ ~ ~ ~ < [ /                                 # _ : ~ ~ ~ ~ ~ ~ ~ ~ : _ #                     ",
"                  . ( : ~ } | 1 2 3 4 5 ~ ~ < * @                             . ; : ~ ~ 5 6 6 5 ~ ~ ~ ~ : ; .                   ",
"                  > = ~ ~ 7 1 1 1 1 1 8 9 ~ ~ 0 a                             $ ) ~ } b c 1 1 1 d e ~ ~ ~ ) $                   ",
"                  $ ! ~ ~ f 1 1 1 1 1 1 g ~ ~ { h                             % ! ~ i 1 1 1 1 1 1 j k } ~ ! %                   ",
"                . , ~ ~ 5 1 1 1 1 1 1 1 1 ~ ~ ~ ] @                         . & ~ ~ 1 1 1 1 1 1 1 1 1 l ~ ~ & .                 ",
"                # ' ~ ~ 6 1 1 1 1 1 1 1 1 ~ ~ ~ m /                         + * ~ 5 1 1 1 1 1 1 1 1 1 n ~ ~ * +                 ",
"                # ' ~ ~ 6 1 1 1 1 1 1 1 1 ~ ~ ~ m /                         + * ~ o 1 1 1 1 1 1 1 1 1 p ~ ~ * +                 ",
"                . , ~ ~ 5 1 1 1 1 1 1 1 q ~ ~ ~ ] @                         @ = ~ 5 r 1 1 1 1 1 1 1 1 s ~ ~ = @                 ",
"                  $ ! ~ ~ t 1 1 1 1 1 1 7 ~ ~ { h                             - { ~ u 1 1 1 1 1 1 1 1 v ~ { -                   ",
"                  > = ~ ~ 5 w 1 1 1 1 x } ~ ~ 0 a                             ; ] ~ e 1 1 1 1 1 1 y z 5 ~ ] ;                   ",
"                  . ( : ~ ~ ~ 6 1 t l } ~ ~ < * @                             @ ^ < ~ o 1 A 1 1 B 5 ~ ~ < ^ @                   ",
"                    # _ : ~ ~ ~ ~ ~ ~ ~ ~ < [ /     C D E 1 F G H I C           / [ < ~ ~ 5 J l } ~ ~ < [ /                     ",
"                      # ; ) ! ~ ~ ~ ~ { ] ^ /       K 1 1 1 1 1 1 1 1 L           / * 0 { ~ ~ ~ ~ { 0 * / M N O N M             ",
"P Q R R R R R Q S T U V . $ % & * * = - ; @         C W 1 1 1 1 1 1 1 1             @ a h ] m m ] h a X Y R R R R R R R Q Z ` M ",
"R R R R R R R R R R R  .M     . + + @                 ..+.1 1 1 1 1 1 @.                  @ / / @     ` R R R R R R R R R R R U ",
"R R R R R R R R R R R R P                               #.1 1 1 1 $.%...                            V T R R R R R R R R R R R T ",
"R R R R R R R R R R R R T                               &.*.1 1 1 =.                                -.R R R R R R R R R R R R R ",
"R R R R R R R R R R R R U                                 ;.1 1 1 >.                                -.R R R R R R R R R R R R T ",
"R R R R R R R R R R R ,.V                                 '.1 1 1 C                                 V ).R R R R R R R R R R R M ",
"!.R R R R R R R ~.{.].V                                   ^.1 1 $.                                      N R R R R R R R R Z /.  ",
"  V -.(.].!.N M       _.:.:._.                            F 1 1 <.                                            [.U R  .].V       ",
"                      }.|.|.}.                            1.1 1 1                                                               ",
"                    2.3.4.5.H                           ..1 1 1 1 6.                            &.7.%...                        ",
"                  C 8.1 1 9.0.                          a.1 1 1 1 b.                            #.1 1 a.                        ",
"                  c.1 1 1 ..                            D 1 1 1 1 d.                            e.1 1 f.                        ",
"                  5.1 1 g.                              h.1 1 1 1 i.j.                          k.1 1 k.                        ",
"                  l.1 1 m.                            j.n.1 1 1 1 1 o...                      C p.1 1 #.                        ",
"                  h.1 1 q.                          ..5.1 1 1 r.1 1 1 #...                ..%.^.1 1 1 %.                        ",
"                  s.1 1 t.u.                        @.1 1 1 2.C v.1 1 1 3.D f.f.w.H x.W y.'.1 1 1 1 z...                        ",
"                  j.A.1 1 i.B...                u.C.1 1 1 %.    ..#.1 1 1 1 1 1 1 1 1 1 1 1 1 1 1 |...                          ",
"                    B.1 1 1 1 D.E.>.C     C F.g.G.1 1 1 @...      ..%.H.1 1 1 1 1 1 1 1 1 I.1 D >.C                             ",
"                    ..%.1 1 1 1 1 1 1 J.e.K.1 1 1 1 1 %.              C F.L.e.k.D h.h.D a...                                    ",
"                        2.1 +.1 1 1 1 1 1 1 1 1 1 5.B...                                                                        ",
"                            u.c.E.M.1 1 1 1 N.p.f...                                                                            ",
"                                    C I O.I C                                                                                   ",
"                                                                                                                                ",
"                                                                                                                                ",
"                                                                                                                                ",
"                                                                                                                                ",
"                                                                                                                                ",
"                                                                                                                                ",
"                                                                                                                                ",
"                                                                                                                                ",
"                                                                                                                                ",
"                                                                                                                                ",
"                                                                                                                                ",
"                                                                                                                                ",
"                                                                                                                                ",
"                                                                                                                                ",
"                                                                                                                                "};
