/* XPM */
static char * collectible0_xpm[] = {
"64 64 262 2",
"  	c None",
". 	c #CFD3BA",
"+ 	c #4B4B56",
"@ 	c #5D3D2B",
"# 	c #484F60",
"$ 	c #915B2A",
"% 	c #966032",
"& 	c #714628",
"* 	c #494F5E",
"= 	c #9F6534",
"- 	c #AF5C2B",
"; 	c #8C4B27",
"> 	c #A2532A",
", 	c #A85527",
"' 	c #875230",
") 	c #2C2827",
"! 	c #3D4F62",
"~ 	c #504B52",
"{ 	c #814930",
"] 	c #894722",
"^ 	c #6C524E",
"/ 	c #9D5E3D",
"( 	c #935E4B",
"_ 	c #41312B",
": 	c #533C31",
"< 	c #B06F45",
"[ 	c #B77B50",
"} 	c #775C42",
"| 	c #2A2D25",
"1 	c #5A494F",
"2 	c #92552A",
"3 	c #A35624",
"4 	c #6C535C",
"5 	c #654C3C",
"6 	c #53494D",
"7 	c #5F4133",
"8 	c #B07045",
"9 	c #BE8055",
"0 	c #7F472D",
"a 	c #493A2D",
"b 	c #494F5D",
"c 	c #8B573F",
"d 	c #9F5627",
"e 	c #64525E",
"f 	c #653E29",
"g 	c #856141",
"h 	c #825346",
"i 	c #93502B",
"j 	c #7B4A2F",
"k 	c #92512B",
"l 	c #824E23",
"m 	c #563F2E",
"n 	c #613D27",
"o 	c #A96032",
"p 	c #D2A46D",
"q 	c #B08154",
"r 	c #425367",
"s 	c #7C594F",
"t 	c #89532F",
"u 	c #974E27",
"v 	c #A25E2E",
"w 	c #9C6333",
"x 	c #734623",
"y 	c #613924",
"z 	c #A95729",
"A 	c #B9683B",
"B 	c #AF5C2F",
"C 	c #5F3927",
"D 	c #5E3925",
"E 	c #5B666E",
"F 	c #625964",
"G 	c #A25D26",
"H 	c #AD5625",
"I 	c #824525",
"J 	c #A25522",
"K 	c #7D532C",
"L 	c #55391D",
"M 	c #645545",
"N 	c #87583C",
"O 	c #894A29",
"P 	c #A35226",
"Q 	c #B15E2B",
"R 	c #A36332",
"S 	c #6E4025",
"T 	c #3E5268",
"U 	c #55505E",
"V 	c #8D572D",
"W 	c #9B5430",
"X 	c #5F5260",
"Y 	c #434D3E",
"Z 	c #333F2C",
"` 	c #202A1C",
" .	c #535A64",
"..	c #AE977A",
"+.	c #BA9C81",
"@.	c #9E6E54",
"#.	c #764127",
"$.	c #A65426",
"%.	c #94582C",
"&.	c #4B3924",
"*.	c #3D5163",
"=.	c #3B4D5D",
"-.	c #4B5C5F",
";.	c #3F4C38",
">.	c #2F3723",
",.	c #585B61",
"'.	c #BAA892",
").	c #C6B79D",
"!.	c #99765C",
"~.	c #433527",
"{.	c #5F3920",
"].	c #48301F",
"^.	c #3A4A4A",
"/.	c #41515A",
"(.	c #2A3624",
"_.	c #1E291A",
":.	c #30352E",
"<.	c #6B6E69",
"[.	c #9D968B",
"}.	c #685F56",
"|.	c #363E2C",
"1.	c #192619",
"2.	c #364331",
"3.	c #36432F",
"4.	c #212E1C",
"5.	c #1E2A18",
"6.	c #263120",
"7.	c #212A1D",
"8.	c #373E31",
"9.	c #313A2A",
"0.	c #333F2B",
"a.	c #1D2817",
"b.	c #393128",
"c.	c #AB966A",
"d.	c #D7C188",
"e.	c #2C3222",
"f.	c #222D1B",
"g.	c #212D1B",
"h.	c #55535D",
"i.	c #AE7A52",
"j.	c #D3BB8C",
"k.	c #767363",
"l.	c #453D31",
"m.	c #1C2716",
"n.	c #6D5E59",
"o.	c #A76940",
"p.	c #B4A189",
"q.	c #BBB29A",
"r.	c #AB7C5B",
"s.	c #745835",
"t.	c #423B3E",
"u.	c #65595D",
"v.	c #9F937E",
"w.	c #B49D82",
"x.	c #A17050",
"y.	c #584328",
"z.	c #917550",
"A.	c #846048",
"B.	c #574931",
"C.	c #2C3321",
"D.	c #37432E",
"E.	c #5D4C48",
"F.	c #C08457",
"G.	c #BE7F52",
"H.	c #7E4325",
"I.	c #894925",
"J.	c #954E26",
"K.	c #25301F",
"L.	c #44513B",
"M.	c #3C4933",
"N.	c #825C4E",
"O.	c #BA794D",
"P.	c #BB784C",
"Q.	c #924C26",
"R.	c #B05B29",
"S.	c #B35A27",
"T.	c #804728",
"U.	c #293523",
"V.	c #4C5942",
"W.	c #35422E",
"X.	c #523121",
"Y.	c #9F7C53",
"Z.	c #8C4620",
"`.	c #7C5130",
" +	c #854F2A",
".+	c #8A552C",
"++	c #674328",
"@+	c #3A4732",
"#+	c #4F5D44",
"$+	c #2E291E",
"%+	c #8F512C",
"&+	c #7B5334",
"*+	c #754B32",
"=+	c #AB5C2B",
"-+	c #B05B28",
";+	c #6A4832",
">+	c #2B261C",
",+	c #28291D",
"'+	c #263022",
")+	c #2F3B28",
"!+	c #435147",
"~+	c #895C4C",
"{+	c #A26237",
"]+	c #AA5E2D",
"^+	c #795434",
"/+	c #5D4C54",
"(+	c #85605B",
"_+	c #835A52",
":+	c #3C4833",
"<+	c #526047",
"[+	c #3C4934",
"}+	c #3F4A37",
"|+	c #707564",
"1+	c #3A4333",
"2+	c #5D4A47",
"3+	c #915743",
"4+	c #A05326",
"5+	c #55644B",
"6+	c #5F6D53",
"7+	c #495740",
"8+	c #47513E",
"9+	c #A3A792",
"0+	c #333321",
"a+	c #58674D",
"b+	c #4C5A42",
"c+	c #2C3826",
"d+	c #222E1C",
"e+	c #919582",
"f+	c #797E6C",
"g+	c #343D2D",
"h+	c #1A2615",
"i+	c #313D2B",
"j+	c #3E4B36",
"k+	c #394631",
"l+	c #283422",
"m+	c #293422",
"n+	c #48563F",
"o+	c #43503A",
"p+	c #4B5942",
"q+	c #25311F",
"r+	c #202B1A",
"s+	c #273221",
"t+	c #263220",
"u+	c #38452F",
"v+	c #2D3926",
"w+	c #414E38",
"x+	c #232E1D",
"y+	c #24301E",
"z+	c #434F3A",
"A+	c #404D38",
"B+	c #313E2A",
"C+	c #1F2A19",
"D+	c #1B2615",
"E+	c #323E2A",
"F+	c #273321",
"G+	c #46533D",
"H+	c #34412D",
"I+	c #242F1E",
"J+	c #1A2614",
"K+	c #2B3725",
"L+	c #192514",
"M+	c #192513",
"                                                                                                                                ",
"                                                                                                                                ",
"                                                                                                                                ",
"                                                                                                                                ",
"                                                      .                                                                         ",
"                                                                                                                                ",
"                                                                                                                                ",
"                                                                                                                                ",
"                                                                                                                                ",
"                                                                                                                                ",
"                                                                                                                                ",
"                                                                                                                                ",
"                                                                                                                                ",
"                                                                                                                                ",
"                                                  . .                                                                           ",
"                                                  .                                                                             ",
"                                                                                                                                ",
"                                                                                                                                ",
"                                                      .                                                                         ",
"                                                                                                                                ",
"                                                                                                                                ",
"                                                                                                                                ",
"                                                                                                                                ",
"                                                                          .                                                     ",
"                                                      + @                                                                       ",
"                                                    # $ % &                                                                     ",
"                                                    * = - ; > , ' )                                                             ",
"                                                    ! ~ { ] ^ / ( _                                                             ",
"                                            : < [ } | 1 2 3 4 5 6                                                               ",
"                                            7 8 9 0 a b c d e         f g                                                       ",
"                                              h i j k l m           n o p q                                                     ",
"                                            r s t u v w x           y z A B C D                                                 ",
"                                          E F G H I J K L           M N O P Q R S                                               ",
"                                          T U V W   X Y Z       `  ...+.@.#.$.%.&.                                              ",
"                                                *.  =.-.;.      >.,.'.).!.~.{.].                                                ",
"                                                      ^./.(.    _.:.<.[.}.|.1.                                                  ",
"                                                        2.3.4.  5.6.7.8.9.0.a.                                                  ",
"                                                        b.c.d.e.(.5.    f.g.                                                    ",
"                                                        h.i.j.k.l.      m.                                                      ",
"                                                        n.o.p.q.r.s.                                                            ",
"                                                        t.u.v.w.x.y.                                                            ",
"                                                  z.          A.B.C.D.                                                          ",
"                                              E.F.G.H.I.J.        K.L.M.                                                        ",
"                                              N.O.P.Q.R.S.T.        U.V.W.                                                      ",
"                                              X.Y.Z.`. +.+++          @+#+$+%+&+                                                ",
"                                              *+=+-+;+>+,+'+5.        )+!+~+{+]+^+                                              ",
"                                              /+(+_+    :+<+[+}+|+    5.1+2+3+4+                                                ",
"                                                        5+6+7+8+9+9+    )+0+                                                    ",
"                                                        a+b+c+d+e+f+g+h+i+j+                                                    ",
"                                                        k+l+        m+6.n+o+                                                    ",
"                                                                    d+M.p+q+                                                    ",
"                                                                r+s+t+u+5.v+w+x+                                                ",
"                                                            m.y+z+A+B+C+D+K.E+F+                                                ",
"                                                            D+G+5+H+I+D+J+                                                      ",
"                                                            5.b+b+K+r+L+M+                                                      ",
"                                                            m.                                                                  ",
"                                                                                                                                ",
"                                                                                                                                ",
"                                                                                                                                ",
"                                                                                                                                ",
"                                                                                                                                ",
"                                                                                                                                ",
"                                                                                                                                ",
"                                                                                                                                "};
