/* XPM */
static char * collectible1_xpm[] = {
"64 64 262 2",
"  	c None",
". 	c #CFD3BA",
"+ 	c #4B4B56",
"@ 	c #5D3D2B",
"# 	c #484F60",
"$ 	c #915B2A",
"% 	c #966032",
"& 	c #714628",
"* 	c #494F5E",
"= 	c #9F6534",
"- 	c #AF5C2B",
"; 	c #8C4B27",
"> 	c #A2532A",
", 	c #A85527",
"' 	c #875230",
") 	c #2C2827",
"! 	c #3D4F62",
"~ 	c #504B52",
"{ 	c #814930",
"] 	c #894722",
"^ 	c #6C524E",
"/ 	c #9D5E3D",
"( 	c #935E4B",
"_ 	c #41312B",
": 	c #533C31",
"< 	c #B06F45",
"[ 	c #B77B50",
"} 	c #775C42",
"| 	c #2A2D25",
"1 	c #5A494F",
"2 	c #92552A",
"3 	c #A35624",
"4 	c #6C535C",
"5 	c #654C3C",
"6 	c #53494D",
"7 	c #5F4133",
"8 	c #B07045",
"9 	c #BE8055",
"0 	c #7F472D",
"a 	c #493A2D",
"b 	c #494F5D",
"c 	c #8B573F",
"d 	c #9F5627",
"e 	c #64525E",
"f 	c #A39C88",
"g 	c #ADA48B",
"h 	c #825346",
"i 	c #93502B",
"j 	c #7B4A2F",
"k 	c #92512B",
"l 	c #824E23",
"m 	c #563F2E",
"n 	c #613D27",
"o 	c #AC6B45",
"p 	c #D2A773",
"q 	c #B08154",
"r 	c #425367",
"s 	c #7C594F",
"t 	c #89532F",
"u 	c #974E27",
"v 	c #A25E2E",
"w 	c #9C6333",
"x 	c #734623",
"y 	c #613924",
"z 	c #A95729",
"A 	c #B9683B",
"B 	c #AF5C2F",
"C 	c #5F3927",
"D 	c #5E3925",
"E 	c #404F62",
"F 	c #615863",
"G 	c #A25D26",
"H 	c #AD5625",
"I 	c #824525",
"J 	c #A25522",
"K 	c #7D532C",
"L 	c #55391D",
"M 	c #594434",
"N 	c #824A28",
"O 	c #884725",
"P 	c #A35226",
"Q 	c #B15E2B",
"R 	c #A36332",
"S 	c #6E4025",
"T 	c #3E5268",
"U 	c #55505E",
"V 	c #8D572D",
"W 	c #9B5430",
"X 	c #5F5260",
"Y 	c #434D3E",
"Z 	c #333F2C",
"` 	c #202A1C",
" .	c #4A525F",
"..	c #996539",
"+.	c #A95D2C",
"@.	c #934B24",
"#.	c #753F25",
"$.	c #A65426",
"%.	c #94582C",
"&.	c #4B3924",
"*.	c #3D5163",
"=.	c #3B4D5D",
"-.	c #4B5C5F",
";.	c #3F4C38",
">.	c #2F3723",
",.	c #4D505A",
"'.	c #A0604A",
").	c #B25A2A",
"!.	c #894F29",
"~.	c #403123",
"{.	c #5F3920",
"].	c #48301F",
"^.	c #3A4A4A",
"/.	c #41515A",
"(.	c #2A3624",
"_.	c #1E291A",
":.	c #292F29",
"<.	c #45474E",
"[.	c #725960",
"}.	c #594B46",
"|.	c #343C2A",
"1.	c #192619",
"2.	c #434D3C",
"3.	c #7E8471",
"4.	c #535A4A",
"5.	c #1E2A18",
"6.	c #263120",
"7.	c #1D2719",
"8.	c #1E291C",
"9.	c #2A3524",
"0.	c #333F2B",
"a.	c #1D2817",
"b.	c #D0D3B9",
"c.	c #5E5C4F",
"d.	c #CED1B7",
"e.	c #D3CBA6",
"f.	c #383D2E",
"g.	c #222D1B",
"h.	c #212D1B",
"i.	c #626166",
"j.	c #C4B99E",
"k.	c #D3BC8E",
"l.	c #46392C",
"m.	c #392E21",
"n.	c #1C2716",
"o.	c #6C5D58",
"p.	c #A86D47",
"q.	c #96522E",
"r.	c #8F532C",
"s.	c #A35E2E",
"t.	c #735632",
"u.	c #423B3E",
"v.	c #5F5058",
"w.	c #703E22",
"x.	c #9C5D2F",
"y.	c #9A582C",
"z.	c #574226",
"A.	c #C8CBB3",
"B.	c #CBCBB2",
"C.	c #988160",
"D.	c #794829",
"E.	c #514127",
"F.	c #2C3321",
"G.	c #37432E",
"H.	c #7B7368",
"I.	c #C39671",
"J.	c #BE8155",
"K.	c #7E4325",
"L.	c #894925",
"M.	c #954E26",
"N.	c #25301F",
"O.	c #44513B",
"P.	c #3C4933",
"Q.	c #825C4E",
"R.	c #BA794D",
"S.	c #BB784C",
"T.	c #924C26",
"U.	c #B05B29",
"V.	c #B35A27",
"W.	c #804728",
"X.	c #293523",
"Y.	c #4C5942",
"Z.	c #35422E",
"`.	c #523121",
" +	c #9F7C53",
".+	c #8C4620",
"++	c #7C5130",
"@+	c #854F2A",
"#+	c #8A552C",
"$+	c #674328",
"%+	c #3A4732",
"&+	c #4F5D44",
"*+	c #2E291E",
"=+	c #8F512C",
"-+	c #7B5334",
";+	c #754B32",
">+	c #AB5C2B",
",+	c #B05B28",
"'+	c #6A4832",
")+	c #2B261C",
"!+	c #28291D",
"~+	c #263022",
"{+	c #2F3B28",
"]+	c #435147",
"^+	c #895C4C",
"/+	c #A26237",
"(+	c #AA5E2D",
"_+	c #795434",
":+	c #5D4C54",
"<+	c #85605B",
"[+	c #835A52",
"}+	c #3C4833",
"|+	c #526047",
"1+	c #3C4934",
"2+	c #323F2B",
"3+	c #24301E",
"4+	c #3A4333",
"5+	c #5D4A47",
"6+	c #915743",
"7+	c #A05326",
"8+	c #55644B",
"9+	c #5F6D53",
"0+	c #495740",
"a+	c #35422D",
"b+	c #3E4A35",
"c+	c #2E3A27",
"d+	c #333321",
"e+	c #58674D",
"f+	c #4C5A42",
"g+	c #2C3826",
"h+	c #222E1C",
"i+	c #283422",
"j+	c #2B3624",
"k+	c #273221",
"l+	c #1A2615",
"m+	c #313D2B",
"n+	c #3E4B36",
"o+	c #394631",
"p+	c #263220",
"q+	c #48563F",
"r+	c #43503A",
"s+	c #4B5942",
"t+	c #25311F",
"u+	c #202B1A",
"v+	c #38452F",
"w+	c #2D3926",
"x+	c #414E38",
"y+	c #232E1D",
"z+	c #434F3A",
"A+	c #404D38",
"B+	c #313E2A",
"C+	c #1F2A19",
"D+	c #1B2615",
"E+	c #323E2A",
"F+	c #273321",
"G+	c #46533D",
"H+	c #34412D",
"I+	c #242F1E",
"J+	c #1A2614",
"K+	c #2B3725",
"L+	c #192514",
"M+	c #192513",
"                                                                                                                                ",
"                                          .                                                                                     ",
"                                                                                                                                ",
"                                                                                                                                ",
"                                                                                                                                ",
"                                                                                                                                ",
"                                                                                                                                ",
"                                                                . .                                                             ",
"                                                                                                                                ",
"                                                                                                                                ",
"                                                                                                                                ",
"                                                                                                                                ",
"                                                                                                                                ",
"                                                                                                                                ",
"                                                                                                                                ",
"                                                      . .                                                                       ",
"                                                      . .                                                                       ",
"                                                                                                                                ",
"                                                                                                                                ",
"                                                                                                                                ",
"                                                      . .                                                                       ",
"                                                                                                                                ",
"                                                                                                                                ",
"                                .                                                                                               ",
"                                                      + @                                                                       ",
"                                                    # $ % &                                                                     ",
"                                                    * = - ; > , ' )                                                             ",
"                                                    ! ~ { ] ^ / ( _                                                             ",
"                                            : < [ } | 1 2 3 4 5 6     . .                                                       ",
"                                . .         7 8 9 0 a b c d e         f g                                                       ",
"                                              h i j k l m           n o p q                                                     ",
"                                            r s t u v w x           y z A B C D                                                 ",
"                                          E F G H I J K L           M N O P Q R S                                               ",
"                                          T U V W   X Y Z       `  ...+.@.#.$.%.&.                                              ",
"                                                *.  =.-.;.      >.,.'.).!.~.{.].                                                ",
"                                                      ^./.(.    _.:.<.[.}.|.1.                                                  ",
"                                                        2.3.4.  5.6.7.8.9.0.a.  . b.                                            ",
"                                                        c.d.e.f.(.5.    g.h.                                                    ",
"                                                        i.j.k.l.m.      n.                                                      ",
"                          . .                           o.p.q.r.s.t.                                                            ",
"                                                        u.v.w.x.y.z.                                                            ",
"                                              A.B.C.          D.E.F.G.                                                          ",
"                                              H.I.J.K.L.M.        N.O.P.                                                        ",
"                                              Q.R.S.T.U.V.W.        X.Y.Z.                                                      ",
"                                              `. +.+++@+#+$+          %+&+*+=+-+                                                ",
"                                              ;+>+,+'+)+!+~+5.        {+]+^+/+(+_+                                              ",
"                                              :+<+[+    }+|+1+2+3+    5.4+5+6+7+                                                ",
"                                                        8+9+0+a+b+c+    {+d+                                                    ",
"                                                        e+f+g+h+i+j+k+l+m+n+                                                    ",
"                                            .           o+i+        p+6.q+r+                                                    ",
"                                                                    h+P.s+t+                                                    ",
"                                                                u+k+p+v+5.w+x+y+                                                ",
"                                                            n.3+z+A+B+C+D+N.E+F+                                                ",
"                                                            D+G+8+H+I+D+J+                                                      ",
"                                                            5.f+f+K+u+L+M+                                                      ",
"                                                            n.                                                                  ",
"                                                                                                                                ",
"                                                                                                                                ",
"                                                                                                                                ",
"                                                                                                                                ",
"                                                                                                                                ",
"                                                                                                                                ",
"                                                                                                                                ",
"                                                                                                                                "};
