/* XPM */
static char *abae3fa9674c4f068897165c9ca3c5bcy7eBOhJXzkFK0yWf[] = {
/* columns rows colors chars-per-pixel */
"64 64 186 2 ",
"   c None",
".  c #17290F",
"X  c #18280F",
"o  c #162613",
"O  c #1A2715",
"+  c #172910",
"@  c #1A2B12",
"#  c #16241B",
"$  c #1D2D1A",
"%  c #1D2718",
"&  c #1E3016",
"*  c #22251B",
"=  c #2D261D",
"-  c #212B19",
";  c #32251F",
":  c #372A16",
">  c #213117",
",  c #233519",
"<  c #2B321B",
"1  c #26391D",
"2  c #293B1F",
"3  c #3B361C",
"4  c #36361E",
"5  c #121D26",
"6  c #1C2B36",
"7  c #2A2121",
"8  c #213121",
"9  c #2B3D20",
"0  c #2A3428",
"q  c #3F3331",
"w  c #5D360D",
"e  c #462D15",
"r  c #442A1E",
"t  c #4B2A1B",
"y  c #462B18",
"u  c #532D15",
"i  c #592E19",
"p  c #502C1A",
"a  c #443014",
"s  c #573017",
"d  c #5F3017",
"f  c #51311C",
"g  c #513F1A",
"h  c #5B331C",
"j  c #673D0C",
"k  c #793C0D",
"l  c #74390D",
"z  c #662F14",
"x  c #633215",
"c  c #6B3416",
"v  c #643917",
"b  c #743412",
"n  c #7E3911",
"m  c #7A3F18",
"M  c #412E29",
"N  c #45322B",
"B  c #543C23",
"V  c #53362A",
"C  c #473936",
"Z  c #533C30",
"A  c #623B28",
"S  c #763B20",
"D  c #2E4123",
"F  c #314325",
"G  c #344728",
"H  c #364A2A",
"J  c #3A4D2D",
"K  c #354827",
"L  c #3C502F",
"P  c #31493E",
"I  c #3E5231",
"U  c #60421A",
"Y  c #73411A",
"T  c #764713",
"R  c #424C2D",
"E  c #484238",
"W  c #425634",
"Q  c #445837",
"!  c #465B38",
"~  c #495D3A",
"^  c #694528",
"/  c #7D5422",
"(  c #725726",
")  c #6F4E3A",
"_  c #4C613D",
"`  c #213041",
"'  c #343B49",
"]  c #3C4142",
"[  c #324E65",
"{  c #3A4C63",
"}  c #344E6B",
"|  c #3A4F6B",
" . c #36526E",
".. c #3A526C",
"X. c #3A5664",
"o. c #345172",
"O. c #3A5470",
"+. c #45464D",
"@. c #544444",
"#. c #5D5049",
"$. c #454B56",
"%. c #4C5057",
"&. c #56565B",
"*. c #734C41",
"=. c #6D5649",
"-. c #765546",
";. c #516641",
":. c #556C46",
">. c #586F47",
",. c #586F48",
"<. c #5D744D",
"1. c #60774F",
"2. c #637A51",
"3. c #476263",
"4. c #833A0C",
"5. c #8C3C0F",
"6. c #8B370E",
"7. c #943B0D",
"8. c #993D0C",
"9. c #943D10",
"0. c #A23F0A",
"q. c #9C410E",
"w. c #844113",
"e. c #8B4515",
"r. c #8D441B",
"t. c #864F18",
"y. c #8B4C17",
"u. c #934210",
"i. c #934916",
"p. c #92441D",
"a. c #9B481A",
"s. c #84571F",
"d. c #9D521A",
"f. c #9F581C",
"g. c #A4430B",
"h. c #AC4109",
"j. c #AF4C0E",
"k. c #BD4707",
"l. c #B3470A",
"z. c #B54B0A",
"x. c #BC4C0A",
"c. c #BE4806",
"v. c #BC550F",
"b. c #AB4D11",
"n. c #A64B13",
"m. c #A45314",
"M. c #A35D1C",
"N. c #AA5B19",
"B. c #A65618",
"V. c #BB5C13",
"C. c #B75415",
"Z. c #BD6015",
"A. c #B4631B",
"S. c #B7651C",
"D. c #864925",
"F. c #895424",
"G. c #965724",
"H. c #885731",
"J. c #946633",
"K. c #AD6A22",
"L. c #B06920",
"P. c #C44904",
"I. c #CC4C03",
"U. c #C84F08",
"Y. c #C24B07",
"T. c #D34D02",
"R. c #DB4F01",
"E. c #C2550C",
"W. c #CC5409",
"Q. c #CE5509",
"!. c #D35206",
"~. c #D05609",
"^. c #C35C11",
"/. c #C55712",
"(. c #C06015",
"). c #CE6C21",
"_. c #B78044",
"`. c #C28941",
"'. c #DCA95A",
"]. c #EDB45B",
"[. c #F9C367",
"{. c #F2C56A",
"}. c #FFDE7E",
"|. c #F9D377",
" X c #FFDF80",
".X c #FFE080",
/* pixels */
"                                                                                                                                ",
"                                                                                                                                ",
"                                                                                                                                ",
"                                                                         X}.                                                    ",
"                                                                         X X                          }. X                      ",
"                                                                        }.                                                      ",
"                                                                                                                                ",
"                                                                                                                                ",
"                        }.}.                                                                                                    ",
"                        }.}.                                                                                                    ",
"                        }..X                                                                                                    ",
"                                                                                                                                ",
"                                                                                                                                ",
"                                                                                                         X}.                    ",
"                                                                                                      }. X}.                    ",
"                                                  } C c                                                 }.                      ",
"                                                } g.M.M.w.u                                                                     ",
"                                              6 } L.S.^.m.f x b d 7                                                             ",
"                                              ` } S.^.R.0.Y.R.R.!./ 5                                                           ",
"                                                }  .*.0.0.7.=./.!.f.;                                                           ",
"                                      M V A C     : c u.z.7...H.&...                                                            ",
"                                    N G.{.|._.B - o.i.^.Q.Y.} ^ c                                                               ",
"                                    V F.'.|.a.S 4 o.$.C.Q.g.o.          t h ^ v                                                 ",
"                                    q D.C.C.r.S e.T v E Y             f e.j.].{.n                                               ",
"                                      | p.a.p.n.U.v.m.w       }.}.    s i.).[.[.Q.5                                             ",
"                                    o...d.d.9.T.V.A.V.k     }.}. X    y 0.T.R.T.I.i b p                                         ",
"                                  { o.A.E.T.g.7.~.K.C.j       }. X    - u 7.c.6.T.~.A.V.b                                       ",
"                                  o.o.N.W.T.P.x P.w @ @           @ [ #.S.b.8.b R.R.~.Z.n                                       ",
"                                  o.} e.N.x.c   o.P ;.9         + 0  .K.^.~.P.6.b P.Q.t.3                                       ",
"                      }. X          o.  '  .}   [  .<.D         @ R  .^.R.R.l.w.* 4.4.%                                         ",
"                                                  X.3.L &       @ 9 ] ..-.!.f.U 8 O #                                           ",
"                                                  9 X...F @       o O a | ..$.% J @                                             ",
"                                                    2 L L D @   @ @ 1 @ O @ 9 > J @                                             ",
"                                                    @ $ 8 $ @ @ @ F >     @ > K > +        X}.                                  ",
"                                                    = Z ) z.l @ 9 1 .       @ @ @        X}.}.                                  ",
"                                                    ^ O.V.I.h.* # #         @            X X                                    ",
"                                                    %.J.^.T.h.B.V.N.(                                                           ",
"                                                    @. .v.x.7.q.T.E.s.                                                          ",
"                                                      N ..i 5.Z.E.m.g @                                                         ",
"                                            x               c u./ g < F ,                                                       ",
"                                      ; m `.|.u.u e l x           + 1 ~ I                                                       ",
"                                      $.-.|.|.T.7.g.I.Y.c           & G ;.G                                                     ",
"                                      ..A.{.}.R.h.T.R.R.g.;           @ H ;.1                                  X                ",
"                                        b 8.e.7.e.S.Q.^.b.              2 ~ >.,     5                         }.                ",
"                                      r z i.h.c.F.b 5.t.3               @ G >.< r z.N.G.B                                       ",
"                                      r m.~.R.~.^ = o # $ @ @             D Q { V.(.!.^.F.                                      ",
"                                      } a.Z.~.B.t   @ F ~ J 1 1 +         > J +.&.-.R.W.Y                                       ",
"                                      6  . . .+.    , _ 1.! ! I 2 2       . G 3 4.k.l.q.                                        ",
"                                                    F <.2.;.! F L W 2       1 J +                                               ",
"                                                    G 2.>.W 2 > 1 D F 2 + + + ~ D                                               ",
"                                                    F :.L 1 @     @ @ 9 1 + > ,.J                                               ",
"                                                    9 F &             @ D , Q >.G                                               ",
"                                                    >                 @ 9 J ,.I +                                               ",
"                      }.                            @                 X 2 ! 2 & @ & @                                           ",
"                    }.}.}.                                      @ , 1 1 9 F @ @ J ;.F +                                         ",
"                    }.}. X                                  @ @ F ~ W J 1 @ @ . 1 F H .                                         ",
"                                                            @ D <.~ D 1 @ @ @ .   + +                                           ",
"                                                            @ _ <.~ G 2 @ . .                                                   ",
"                                                          @ > _ >.I 1 > @ + .                                                   ",
"                                                          @ @ 1 1 > @     .                                                     ",
"                                                          @ @                                                                   ",
"                                                          @                                                                     ",
"                                                                                                                                ",
"                                                                                                                                "
};
