/* XPM */
static char * floor_xpm[] = {
"64 64 4 1",
" 	c #6F6821",
".	c #786C30",
"+	c #736A29",
"@	c #68671B",
"                                                                ",
"                                                                ",
"                                                                ",
"                                                                ",
"                                                                ",
"                                       .                        ",
"                                       ++                       ",
"                                   ..+ @+                       ",
"                                    .++@@ ..+                   ",
"                                 +. @++ @++.                    ",
"                                  .++@+ +++                     ",
"                                  @++ @@++@                     ",
"                                   @+  @@@                      ",
"                                    @ ++                        ",
"                                      .@                        ",
"                                      @                         ",
"                                                                ",
"                                                                ",
"                                                                ",
"                                                                ",
"                                                                ",
"                                                                ",
"                                                                ",
"                                                                ",
"                                                                ",
"                                                                ",
"                                                                ",
"                                                                ",
"                                                                ",
"                                                                ",
"                                                                ",
"                                                                ",
"                                                                ",
"                                                                ",
"                                                                ",
"                                                                ",
"                                                                ",
"                                                                ",
"                                                        .       ",
"                                                   ..+  ++      ",
"                                                    .++ @+  .   ",
"                                                    @+++@ ++@   ",
"          .                                        .+@++  ++@   ",
"     ..+  ++                                       @++@+  @@    ",
"      .++ @+  .                                     @+@@        ",
"      @+++@ ++@                                                 ",
"     .+@++  ++@                                                 ",
"     @++@+  @@                                                  ",
"      @+@@                                                      ",
"                                                                ",
"                                                                ",
"                                                                ",
"                                                                ",
"                                                                ",
"                                                                ",
"                                    ..                          ",
"                                     .++   ..                   ",
"                                     @++  +.                    ",
"                                      @@ +++                    ",
"                                         ++@                    ",
"                                         @@                     ",
"                                                                ",
"                                                                ",
"                                                                "};
