/* XPM */
static char * floor_xpm[] = {
"64 64 162 2",
"  	c #5F5825",
". 	c #5F5725",
"+ 	c #5F5625",
"@ 	c #5E5625",
"# 	c #5E5624",
"$ 	c #5E5724",
"% 	c #5E5524",
"& 	c #5D5524",
"* 	c #5E5725",
"= 	c #5D5624",
"- 	c #5D5625",
"; 	c #5D5626",
"> 	c #5B592D",
", 	c #5B5930",
"' 	c #5D5523",
") 	c #5E5523",
"! 	c #5C5728",
"~ 	c #585C3D",
"{ 	c #5E5623",
"] 	c #605825",
"^ 	c #585B37",
"/ 	c #67602B",
"( 	c #68602A",
"_ 	c #5F572B",
": 	c #5B541E",
"< 	c #5E572B",
"[ 	c #5F5624",
"} 	c #615824",
"| 	c #615823",
"1 	c #646130",
"2 	c #615F31",
"3 	c #5F562B",
"4 	c #5B541F",
"5 	c #696329",
"6 	c #686129",
"7 	c #5F562A",
"8 	c #5F5826",
"9 	c #60582B",
"0 	c #605823",
"a 	c #5B5421",
"b 	c #5C5F36",
"c 	c #58613C",
"d 	c #686128",
"e 	c #696327",
"f 	c #655D2D",
"g 	c #5F5926",
"h 	c #636231",
"i 	c #5E562B",
"j 	c #565D3A",
"k 	c #5B582D",
"l 	c #645E2A",
"m 	c #5F5724",
"n 	c #5F5726",
"o 	c #5F5E32",
"p 	c #626232",
"q 	c #655D29",
"r 	c #5E5726",
"s 	c #5F5D32",
"t 	c #615825",
"u 	c #5B551F",
"v 	c #5B5622",
"w 	c #5E582E",
"x 	c #5C5C35",
"y 	c #5D5727",
"z 	c #645F31",
"A 	c #5F5925",
"B 	c #5B5520",
"C 	c #5E5826",
"D 	c #5E5825",
"E 	c #5F5A26",
"F 	c #5F5A27",
"G 	c #5F5A28",
"H 	c #5F5B27",
"I 	c #5F5927",
"J 	c #605925",
"K 	c #635C26",
"L 	c #605A26",
"M 	c #676131",
"N 	c #615A25",
"O 	c #666031",
"P 	c #6B652D",
"Q 	c #615A2E",
"R 	c #656331",
"S 	c #5E5C33",
"T 	c #646434",
"U 	c #5E5A30",
"V 	c #5B5724",
"W 	c #655E27",
"X 	c #645E31",
"Y 	c #625C26",
"Z 	c #605B21",
"` 	c #65612D",
" .	c #5E5F35",
"..	c #60592D",
"+.	c #5D5A29",
"@.	c #615C2D",
"#.	c #6C6629",
"$.	c #615B22",
"%.	c #67612F",
"&.	c #6D672C",
"*.	c #6A652B",
"=.	c #5C5724",
"-.	c #556040",
";.	c #5D5C33",
">.	c #665F2B",
",.	c #66602B",
"'.	c #666231",
").	c #5F592E",
"!.	c #67622B",
"~.	c #645D2C",
"{.	c #625B26",
"].	c #5C561F",
"^.	c #69652C",
"/.	c #67612C",
"(.	c #585A2B",
"_.	c #5F5A22",
":.	c #606237",
"<.	c #606539",
"[.	c #5F582D",
"}.	c #5C5720",
"|.	c #5F6036",
"1.	c #605926",
"2.	c #655E30",
"3.	c #5C571F",
"4.	c #60592E",
"5.	c #5B5F39",
"6.	c #5B5C36",
"7.	c #5F582C",
"8.	c #5E5C2E",
"9.	c #645F2D",
"0.	c #5C5A32",
"a.	c #595827",
"b.	c #68612F",
"c.	c #67622C",
"d.	c #585D39",
"e.	c #5F572C",
"f.	c #5E5728",
"g.	c #5B5B33",
"h.	c #5E5820",
"i.	c #616133",
"j.	c #646231",
"k.	c #60592C",
"l.	c #665E26",
"m.	c #615C25",
"n.	c #68612E",
"o.	c #69632E",
"p.	c #655F26",
"q.	c #626131",
"r.	c #6C662B",
"s.	c #5B561F",
"t.	c #605D33",
"u.	c #5C6037",
"v.	c #676430",
"w.	c #666735",
"x.	c #5D5829",
"y.	c #5B5E36",
"z.	c #5C653C",
"A.	c #635F2E",
"B.	c #5E5929",
"C.	c #5B5E37",
"D.	c #5D5B32",
"E.	c #5B571F",
"          . . . . . . . . . . . + + + + + . . + + + . + + + + @ # # # # # # # $ @ @ @ % # # # # # . .       . . . . . . . . . . ",
"          . . . . . . . . . + + + + @ + + + + + + + + . . $ # # # $ $ $ $ $ $ @ @ @ % & & # # # $ . .             . . . . . . . ",
"          . . . . . . . . . + + @ # # # @ + + @ @ * * * $ $ $ # # # # @ @ @ @ @ @ % & & & = # # $ . . . . . . . . . . . . . . . ",
"          . . . . . . . . + @ # # # # # # # # # # $ $ $ $ $ # # # @ @ @ @ @ - ; # % & & & & # # # + . . . . . . . . . . . . . . ",
". . .     . . . . . . . # # # # # % % % % # # # # # # @ @ @ # # @ @ @ @ @ @ > , # % & & ' ) # # # + . . . . . . . . . . . . . . ",
"$ * . . . . . . . . . * $ # # # # % % % % % % # # # # @ @ @ @ # # # # # # # ! ~ # # # # ) { # % @ + . . . . . . . . . . . .     ",
"$ $ * * . + + . . . . # # # # % % % % % % % % % # # # # # # # # # # # ] # @ @ ^ ^ @ # { # % % % + + . . . . . . . . .           ",
"$ $ $ * * + + + @ + + # # # # % % ) ) ) % % % % % % # # # # # { { # # / ( _ # : < # [ } % % % % + + . . . . . . . .             ",
"$ * $ * * @ + @ # # @ # # # % % % ) ) ) ) ) ) ) ) ) % % % % % ) ' { { | 1 2 3 4 : # 5 6 7 % % % + + . . . . . . .         8 8 8 ",
"* * * * * @ @ # # # # # # # % % % ) ) ) % % % % ) % % % % % % ) { 9 6 0 a b c ; 4 d e f % % % @ + . . . . . . .       g 8 8 8 8 ",
". . . * * * * $ $ $ # # # # % % % % % % % % % % % % % % % % % % % # 6 h i 4 j k l e _ m # # @ + + . . . . . .         8 8 8 8 8 ",
"n n n n * * * $ $ $ $ $ # # % % % % % % % % % # # # # @ @ # # # % # 4 o p # 4 4 q _ 4 @ + + + + . . . . . . .         8 8 8 8   ",
"n n n r r * * $ $ # $ $ # # # % % % % # @ + + + + + + + + @ # # # # # 4 s t % 4 4 u + + + + + . . . . . . . . . .             . ",
"n n r * * * * * @ # # $ $ # # # # # @ + . . . . . . . . . + + # # # # # v @ w x y + . . . . . . . . . . . . . . . . .       . + ",
"n n r * * * @ @ @ @ # # $ # # @ @ + + . . . . . . . . . . . + @ @ @ @ @ @ . z A + . . . . . . . . . . . . . . . . . . . . . + + ",
"n n r * * @ @ @ @ @ # # $ $ # + + + . . . . . . . . . . . . . . @ + + @ @ + B + + . . . . . . . . + + . . . . . . . . . . + + @ ",
"n n * * * @ @ @ @ @ # # $ $ + + + . . . . . . . . . . . . . . + + + + + + + + + + + . . . . . + + + . . . . . .       . . + + @ ",
"n r * * @ @ @ @ @ @ # # $ * + . . . . . . . . . .   . . . . . + + + . + + + . . + + . . . . + + + . . . . . . . .     . + + + @ ",
"C * * * @ @ @ @ @ @ # # $ # + + . . . . . . . . . . . . . . . . . . . . . . . . . . . . . + + + . . . . . . . . .     . + + + + ",
"D D * @ @ @ @ @ @ @ # # $ # @ + . . . . . . . .             . . . . . . . . . . . + + + + + . . . . n n n n n n n 8 8   . + + + ",
"D D * @ @ @ @ @ @ @ # # # # # + + + . . . . . . . .         . . . . . . . . . . . + + + + . . . . n n n 8 8 8 8 8 8 8   . . . . ",
"* * @ @ @ @ @ @ @ @ # # # # # # @ + + . . . . . . . . .   . . + . . . . . . . . . . . . . . .     8 8 8 8 8 8 8 8 8 8     . . . ",
"* @ @ @ @ @ @ # @ @ # # # % % # # # @ + + + + . . . . . . . + + . . . . . . . . . . . . . . . .     8 8 8 8 8 8 8 8 8     . . . ",
"* @ @ @ @ @ @ @ @ # # # # % % % # # @ + + + + . . . . . . . . . . . . . . . . . . . . . . . . . .             8 8 8 8   . . . . ",
"* @ @ @ @ @ @ @ @ # # # % % % % % # # @ + + + + . . . . . . . . . . . . . . . . . . . . . . . . .     A A A A A A A A A A A     ",
"@ @ @ @ @ @ @ @ # # # # % % % % % # # # @ @ + + . . . . . . . . . . . . . .         . . . . .   A E E F F F F E E E E E E g g g ",
"@ @ @ @ @ @ @ @ # # # % % % % % % % # # # @ @ + . . . . . . . . . . . . .                     A E E G G G G G G G G G F F F E E ",
"* @ @ @ @ @ @ $ $ $ # # # # % % % % # # # # @ + . . . . . . . . . . . .       g g 8         A E E G G G G G G G G G G G G F F F ",
"* * @ @ * * * . . . + @ # # # # # # # # # @ @ + . . . . . . . . . . . .       8 8 8 8       g E F G G G G G G G G G G G G G F F ",
"* * * * * * . . . . + + @ # # # # # # # # @ + + . . . . . . . . . . . . .     8 8 8         g E F G G G G G G G G G G G G G F F ",
"* * * * * . . . . . . + + @ @ # # # # @ + + + + . . . . .   . . . . . . . .                 8 g F G G G G G G G G G G G F F F F ",
"* * * * * .   . . . . . + + + @ @ # @ @ + + . . . . . . .   . . . . . . . . .                 g F F G G G G G G G F H F F F I I ",
"* * * * . .     . . . . + + + + @ # @ + + . . . . . . .     . . . . . . . . . . . . . .       8 g F F F G G G G F H F F I g g g ",
"* $ $ * . . . . . . . . . + + + + @ + + . . . . . . . .     . . . . . . . . . . . . . . . .     g g g g F F F F F F F E g 8 g g ",
"* * * . . . . . . . . . . . . . + + + . . . . . . . . .     . . . . . . . .       . . . . . . .   8 8 g g I I g E F I g g 8 g A ",
"* * * . . . . . . . . . . . . . . . . . . . . . . . .   A     . . . . . .         . . . . . . . .   8 8 8 g g g g I I g A       ",
"* * * . . . . . . . . . . . . . . . . . . . . . . . . A g g   . . . . . .           . . . . . . . .       8 g g g I g g   .   . ",
"r r * . . .     . . . . . . . . . . . . . . . . . .   A g g 8   . . . .       8 8     . . . . . . .     A A g g g g 8 8     . * ",
"n n n . .       . . . . . . . . . . . . . . . . . .   g g g 8   . . . .       8 8 8         . . .   J K 8 g g L M 8 8 8 8 . * * ",
"8 8 8 8         . . . . . . . . . . . . . . . . .     g g g 8   . . . . .     8 8 8           .     N O P Q 8 L R S 8 8 n . * * ",
"8 8 8 8         . . . . . . . . . . . . . .           g g 8 8 . . . . . .       8 8                   L O T U 8 V U 8 W X . * * ",
"8 8 8 8 8         . . . . . . . . . . . .             g g 8   . . . . . .     8 8 8               8 8 Y Z `  ...V +.@.#.$.. . * ",
"8 8 8 8 8 8 8 n   J %.J     . . . .   . .             g g 8   . . . . .       8 8 8 8     8 8 8 8 8 8 &.*.=.-.;.8 8 >.,.u   . . ",
"8 8 8 8 8 %.'.).n n !.~.  J {.                    A g g g g     . . . . . .             A A E g g g 8 ].^./.(.x 8 8 _.].    . . ",
"8 8 8 8 8 Y :.<.[.n }.|.1.1.2.          A A A A A A g g g g A       . . . . .       A A g g E E E g g g 3.4.3.3.g 8 8 8   . . . ",
"8 8 8 n n n u 5.6.7.4 8.9.0.a.8 8           A A A g g g g g 8       . . . . . .       g g g E E E I g g g g g g g 8 8 8     . . ",
"8 8 n n 1.b.c.V d.e.* f.e.g.u n 8 8 8           8 8 8 8 8 8 n n .   . . . . .         g g g g E E g g g g g g g g 8 8 8       8 ",
"8 n n * * h.i.j.u e.* * 4 v r n 8 8 8           8 8 8 8 8 n n . . . . . . . .       8 g g g g g g g g g g g g g g 8 8           ",
"n r * * * * u k.u 4 @ @ @ * r n n 8 8           8 8 8 8 n n * * . . . . . . . .     8 g g g g g g g A A A       A       . . .   ",
"* * * * @ @ @ @ @ @ @ @ @ @ * n n 8       . .       8 8 . . * * . . . . . . . .       8 8 8 8 8 8 g A A               . . . . . ",
"* * * @ @ @ @ @ @ @ @ @ @ @ * r . .   . . . . . .   . . . * $ * + . . . . . . .           8 8 8         . . .   . . . . . . . . ",
"* @ @ @ @ @ @ @ @ @ @ @ @ @ * * * . . . + @ @ . . . . . . # # # + . . . . . . . . .                   . . . . . . . . . . . . . ",
"@ @ @ @ @ @ @ @ @ @ @ @ @ # # $ $ . . + @ # @ @ + + + + + @ @ @ + . . . . . . . . . . . . . . . . . . . . . . . . . . . . . . . ",
"# @ @ @ @ @ @ @ @ @ @ @ # # $ $ * . + + + + + + + + + + + + + + . . . . . . . . . . . . . . . . . . . . . . . . . . . . . . . . ",
"# # # @ @ @ @ @ * * $ $ $ * . . . . + . + + + . . . . . . . . . . . . . l.m.. .         . . .     . . . . . . . . . . . . . . . ",
"# # # # # @ # $ * * * . . . . . . . . . . . . . . . . . . . . . . . . . n.o.          p.m.            . . . . . . . . . . . . . ",
"% # # # # @ $ * . . . . . . . . . . . . . . . . . . . . . . . . . . . . . O q.Q       r.%.    . . . . . . . . . . . . . . . .   ",
"# # # # # # $ * . . . . . . . . . . . . . . . . . . . . . . . . . . . .   s.t.u.8 8 v.w.x.  . . . . . . . . . . . . . . . . .   ",
"# # # # # $ $ * . . . . . . . . . . . . . . . . . . . . . . . . . . . .     s.s.8 y.z.A.  . . . .   . . .           . . . . . . ",
"% # # # $ $ # + + + + . . . . . . . . . . . . . . . .       . . . . . . .       B.C.D.E.. .                   8 8 8 n . . . . n ",
"% % # # # # # + + + . . . . . . . . . . . . . . . . .         . . . . . .         E.E.                      8 8 8 n r r r * * r ",
"# # # # # # # + + . . . . . . . . . . . . . . . . .           . . . . .                   A A   8 8 8     8 8 n r * * * * * * * ",
"@ @ # # # # # @ + + . . . . . . . . . . . . . . . .             . . .               8     A A   8 8 8 8 8 8 n n * * * @ @ @ @ @ ",
"+ + @ # # # # @ + + + . + + . . . . . . . .             8 8                   A A g g g     A A 8 8 8 8 8 8 8 n n * * @ @ @ @ @ "};
