/* XPM */
static char * haruspex_back2_xpm[] = {
"64 64 588 2",
"  	c None",
". 	c #371913",
"+ 	c #37120A",
"@ 	c #2D1512",
"# 	c #2E1813",
"$ 	c #321913",
"% 	c #341E18",
"& 	c #412B21",
"* 	c #442A1F",
"= 	c #30140E",
"- 	c #381A13",
"; 	c #442F28",
"> 	c #544A40",
", 	c #594E42",
"' 	c #5D5043",
") 	c #635445",
"! 	c #79654C",
"~ 	c #806B50",
"{ 	c #705F4C",
"] 	c #36211C",
"^ 	c #45342E",
"/ 	c #5C5147",
"( 	c #7A664E",
"_ 	c #74614B",
": 	c #76624C",
"< 	c #7B674E",
"[ 	c #79654E",
"} 	c #74614D",
"| 	c #685A4A",
"1 	c #392721",
"2 	c #321712",
"3 	c #50473F",
"4 	c #5E5247",
"5 	c #6D5D4B",
"6 	c #6B5B4A",
"7 	c #6D5C4B",
"8 	c #685949",
"9 	c #635649",
"0 	c #5F5347",
"a 	c #5D5247",
"b 	c #382E29",
"c 	c #311913",
"d 	c #574D44",
"e 	c #5B5147",
"f 	c #615448",
"g 	c #635648",
"h 	c #645649",
"i 	c #5B5046",
"j 	c #5A4F46",
"k 	c #594F46",
"l 	c #443933",
"m 	c #2F1A15",
"n 	c #584E45",
"o 	c #5B5146",
"p 	c #4A413A",
"q 	c #504840",
"r 	c #A29284",
"s 	c #463932",
"t 	c #655B50",
"u 	c #BDAE9C",
"v 	c #B5A695",
"w 	c #AEA090",
"x 	c #514840",
"y 	c #4F4740",
"z 	c #A39686",
"A 	c #453F39",
"B 	c #382C26",
"C 	c #4E3F38",
"D 	c #4F453D",
"E 	c #1E0B08",
"F 	c #3D2822",
"G 	c #584D45",
"H 	c #3E3630",
"I 	c #351A14",
"J 	c #4C3E36",
"K 	c #564C44",
"L 	c #321C18",
"M 	c #32140F",
"N 	c #281A16",
"O 	c #27201C",
"P 	c #2A221E",
"Q 	c #382620",
"R 	c #3B2620",
"S 	c #3A241F",
"T 	c #3A130C",
"U 	c #340902",
"V 	c #311009",
"W 	c #572E26",
"X 	c #61332B",
"Y 	c #66372D",
"Z 	c #6B392F",
"` 	c #6D3A30",
" .	c #69382E",
"..	c #3F1D16",
"+.	c #39120D",
"@.	c #3C170F",
"#.	c #331510",
"$.	c #592F27",
"%.	c #6F3C32",
"&.	c #723E34",
"*.	c #703C32",
"=.	c #381712",
"-.	c #411B14",
";.	c #5B2E25",
">.	c #66352C",
",.	c #6D3B31",
"'.	c #733F34",
").	c #68362C",
"!.	c #6F3B31",
"~.	c #68372D",
"{.	c #64362D",
"].	c #69372D",
"^.	c #66352B",
"/.	c #35120C",
"(.	c #301E0C",
"_.	c #5F2F25",
":.	c #6C392F",
"<.	c #6A382F",
"[.	c #63342A",
"}.	c #5B2D24",
"|.	c #613127",
"1.	c #623127",
"2.	c #603026",
"3.	c #5F2F26",
"4.	c #5E2F25",
"5.	c #66342B",
"6.	c #6E3B31",
"7.	c #703D33",
"8.	c #5B2C23",
"9.	c #003201",
"0.	c #1F3609",
"a.	c #4C2E23",
"b.	c #312A1E",
"c.	c #333423",
"d.	c #353B28",
"e.	c #343624",
"f.	c #45241C",
"g.	c #3B2019",
"h.	c #382018",
"i.	c #322F21",
"j.	c #333122",
"k.	c #323122",
"l.	c #271911",
"m.	c #271E16",
"n.	c #272218",
"o.	c #502E24",
"p.	c #603227",
"q.	c #633429",
"r.	c #5F3327",
"s.	c #3C2C20",
"t.	c #28150D",
"u.	c #013F01",
"v.	c #2F4127",
"w.	c #435036",
"x.	c #4A5237",
"y.	c #485237",
"z.	c #4D5237",
"A.	c #3F4A33",
"B.	c #3D4931",
"C.	c #445036",
"D.	c #485137",
"E.	c #495137",
"F.	c #465237",
"G.	c #455338",
"H.	c #454F36",
"I.	c #4E5238",
"J.	c #4E5337",
"K.	c #4F5237",
"L.	c #4E5137",
"M.	c #4D5238",
"N.	c #435237",
"O.	c #465238",
"P.	c #2A3222",
"Q.	c #063C05",
"R.	c #425237",
"S.	c #515137",
"T.	c #545237",
"U.	c #555237",
"V.	c #525237",
"W.	c #515237",
"X.	c #525137",
"Y.	c #535237",
"Z.	c #565237",
"`.	c #535137",
" +	c #545137",
".+	c #545036",
"++	c #3F4931",
"@+	c #22441C",
"#+	c #505237",
"$+	c #4D5338",
"%+	c #4A5338",
"&+	c #495338",
"*+	c #485338",
"=+	c #545136",
"-+	c #534E35",
";+	c #3A3725",
">+	c #043803",
",+	c #314B28",
"'+	c #4E5237",
")+	c #475238",
"!+	c #435338",
"~+	c #3E4D34",
"{+	c #425338",
"]+	c #465338",
"^+	c #2E3B28",
"/+	c #505137",
"(+	c #524F35",
"_+	c #4C4831",
":+	c #0B3C08",
"<+	c #3D5234",
"[+	c #455237",
"}+	c #475237",
"|+	c #384730",
"1+	c #2D3926",
"2+	c #445338",
"3+	c #3A4D30",
"4+	c #263620",
"5+	c #445234",
"6+	c #535136",
"7+	c #4C5036",
"8+	c #2F3625",
"9+	c #0F350D",
"0+	c #435337",
"a+	c #415136",
"b+	c #1D3019",
"c+	c #303C28",
"d+	c #304729",
"e+	c #093808",
"f+	c #354F2D",
"g+	c #4D5136",
"h+	c #525136",
"i+	c #37412A",
"j+	c #143810",
"k+	c #3E5334",
"l+	c #36472D",
"m+	c #063404",
"n+	c #293C22",
"o+	c #23321E",
"p+	c #013C01",
"q+	c #2F4929",
"r+	c #4C5237",
"s+	c #3F4D33",
"t+	c #002B00",
"u+	c #324D29",
"v+	c #303D29",
"w+	c #003100",
"x+	c #081C06",
"y+	c #415237",
"z+	c #4B5238",
"A+	c #4B5338",
"B+	c #475338",
"C+	c #3F5036",
"D+	c #133110",
"E+	c #243D1D",
"F+	c #2B4324",
"G+	c #005100",
"H+	c #3A4E31",
"I+	c #293822",
"J+	c #013001",
"K+	c #0C1F0A",
"L+	c #3C4B32",
"M+	c #405036",
"N+	c #153711",
"O+	c #112B0F",
"P+	c #3D5235",
"Q+	c #304629",
"R+	c #024101",
"S+	c #3C4E33",
"T+	c #3F4F35",
"U+	c #163012",
"V+	c #162711",
"W+	c #4A5238",
"X+	c #4C5338",
"Y+	c #3E4E34",
"Z+	c #0C360A",
"`+	c #002E00",
" @	c #364B2D",
".@	c #34462B",
"+@	c #033B02",
"@@	c #034202",
"#@	c #3D4E34",
"$@	c #0A3207",
"%@	c #152A11",
"&@	c #495238",
"*@	c #3C4D33",
"=@	c #073106",
"-@	c #35452D",
";@	c #36482D",
">@	c #043802",
",@	c #3E4E35",
"'@	c #3B5033",
")@	c #153511",
"!@	c #0C2F09",
"~@	c #173812",
"{@	c #394E30",
"]@	c #394830",
"^@	c #043C03",
"/@	c #063E04",
"(@	c #3E4F35",
"_@	c #384F30",
":@	c #173312",
"<@	c #22311C",
"[@	c #425238",
"}@	c #3D5333",
"|@	c #193D14",
"1@	c #2D4426",
"2@	c #38462F",
"3@	c #043503",
"4@	c #1C2D0D",
"5@	c #2B4425",
"6@	c #043203",
"7@	c #37472E",
"8@	c #405336",
"9@	c #203C1B",
"0@	c #003800",
"a@	c #1F291A",
"b@	c #2E3F28",
"c@	c #263421",
"d@	c #261E14",
"e@	c #3C4632",
"f@	c #514F43",
"g@	c #746D5D",
"h@	c #071906",
"i@	c #063306",
"j@	c #2E3E28",
"k@	c #003B00",
"l@	c #73675B",
"m@	c #B3A493",
"n@	c #988C7E",
"o@	c #A19485",
"p@	c #CAB9A6",
"q@	c #B0A290",
"r@	c #4E443A",
"s@	c #0A3308",
"t@	c #394B30",
"u@	c #003000",
"v@	c #73655A",
"w@	c #B1A190",
"x@	c #CBBAA7",
"y@	c #A59688",
"z@	c #290C06",
"A@	c #BDAD9B",
"B@	c #B9A997",
"C@	c #5E5246",
"D@	c #0D2D0A",
"E@	c #435439",
"F@	c #002C00",
"G@	c #6F6156",
"H@	c #C1B09E",
"I@	c #A09182",
"J@	c #320C06",
"K@	c #420E04",
"L@	c #9E8E7F",
"M@	c #C9B8A5",
"N@	c #C7B6A3",
"O@	c #65584A",
"P@	c #1A3616",
"Q@	c #435438",
"R@	c #200301",
"S@	c #A79788",
"T@	c #8F8173",
"U@	c #350A02",
"V@	c #544139",
"W@	c #CBBAA6",
"X@	c #C4B3A1",
"Y@	c #726156",
"Z@	c #11310F",
"`@	c #3D4D34",
" #	c #32442A",
".#	c #002D00",
"+#	c #68574E",
"@#	c #AF9E8E",
"##	c #472A23",
"$#	c #645B51",
"%#	c #8A796A",
"&#	c #887669",
"*#	c #504139",
"=#	c #022A02",
"-#	c #1A2215",
";#	c #192015",
">#	c #1F271B",
",#	c #293423",
"'#	c #1C2318",
")#	c #2C3825",
"!#	c #3B4E33",
"~#	c #3C4F33",
"{#	c #415238",
"]#	c #323E2A",
"^#	c #252D20",
"/#	c #1C2218",
"(#	c #0D300B",
"_#	c #30110B",
":#	c #36251F",
"<#	c #053204",
"[#	c #33442C",
"}#	c #323D2B",
"|#	c #2E3727",
"1#	c #283022",
"2#	c #232A1D",
"3#	c #001700",
"4#	c #083206",
"5#	c #2F3E29",
"6#	c #323D2A",
"7#	c #343F2D",
"8#	c #36412E",
"9#	c #283122",
"0#	c #342616",
"a#	c #141A10",
"b#	c #053703",
"c#	c #32412B",
"d#	c #2A3224",
"e#	c #013401",
"f#	c #293C23",
"g#	c #22291D",
"h#	c #42231B",
"i#	c #131610",
"j#	c #023402",
"k#	c #2C3826",
"l#	c #193016",
"m#	c #023B00",
"n#	c #25361F",
"o#	c #1F261A",
"p#	c #502820",
"q#	c #613027",
"r#	c #022D02",
"s#	c #2B3624",
"t#	c #12300E",
"u#	c #1D3719",
"v#	c #3D2019",
"w#	c #043103",
"x#	c #0A3408",
"y#	c #1B3617",
"z#	c #252C20",
"A#	c #12160F",
"B#	c #062B04",
"C#	c #353F2D",
"D#	c #303A29",
"E#	c #063604",
"F#	c #163E11",
"G#	c #272F21",
"H#	c #35402D",
"I#	c #2D3826",
"J#	c #033902",
"K#	c #0F3B0D",
"L#	c #343E2C",
"M#	c #0A2707",
"N#	c #062B05",
"O#	c #283D21",
"P#	c #093A06",
"Q#	c #122C10",
"R#	c #0D280A",
"S#	c #1F3B1A",
"T#	c #0D390A",
"U#	c #333F2B",
"V#	c #12330E",
"W#	c #10290D",
"X#	c #37422E",
"Y#	c #35422D",
"Z#	c #163312",
"`#	c #10370E",
" $	c #314029",
".$	c #153212",
"+$	c #0D280C",
"@$	c #0F380E",
"#$	c #10310E",
"$$	c #304029",
"%$	c #33432B",
"&$	c #183414",
"*$	c #202E1A",
"=$	c #36422E",
"-$	c #0C350A",
";$	c #2D4026",
">$	c #31432A",
",$	c #143611",
"'$	c #1A2814",
")$	c #323B2A",
"!$	c #313829",
"~$	c #2A3321",
"{$	c #1A2E09",
"]$	c #1F2C13",
"^$	c #1A2C12",
"/$	c #222C0B",
"($	c #1B2E02",
"_$	c #25160C",
":$	c #512820",
"<$	c #5B3027",
"[$	c #4C251E",
"}$	c #290E0A",
"|$	c #532920",
"1$	c #5F3229",
"2$	c #472C17",
"3$	c #3B2703",
"4$	c #38150E",
"5$	c #633128",
"6$	c #5F3026",
"7$	c #0F1400",
"8$	c #411504",
"9$	c #6B382E",
"0$	c #713D33",
"a$	c #552B22",
"b$	c #410E07",
"c$	c #370F17",
"d$	c #190401",
"e$	c #270501",
"f$	c #482018",
"g$	c #6B382F",
"h$	c #5C2F25",
"i$	c #270601",
"j$	c #330F08",
"k$	c #68352C",
"l$	c #603228",
"m$	c #1E0F0C",
"n$	c #39140D",
"o$	c #37120B",
"p$	c #2E101F",
"q$	c #30101E",
"r$	c #2E0905",
"s$	c #432018",
"t$	c #4F221A",
"u$	c #5A2D23",
"v$	c #572B22",
"w$	c #3F0E0B",
"x$	c #320E08",
"y$	c #5D2F25",
"z$	c #4A231B",
"A$	c #2E0802",
"B$	c #2F101E",
"C$	c #231025",
"D$	c #0B112C",
"E$	c #31101C",
"F$	c #330D07",
"G$	c #592A21",
"H$	c #5C2C23",
"I$	c #582C23",
"J$	c #3B0F13",
"K$	c #370F18",
"L$	c #2B1021",
"M$	c #340F08",
"N$	c #69362C",
"O$	c #170403",
"P$	c #351019",
"Q$	c #281023",
"R$	c #251024",
"S$	c #350C06",
"T$	c #52251C",
"U$	c #6C3A30",
"V$	c #713E34",
"W$	c #592C23",
"X$	c #3C0F11",
"Y$	c #37110A",
"Z$	c #250703",
"`$	c #171129",
" %	c #32101C",
".%	c #491C15",
"+%	c #633228",
"@%	c #572920",
"#%	c #330902",
"$%	c #360F19",
"%%	c #3A130A",
"&%	c #603127",
"*%	c #643329",
"=%	c #49231B",
"-%	c #201126",
";%	c #330F09",
">%	c #411812",
",%	c #6A382E",
"'%	c #592A20",
")%	c #2F0802",
"!%	c #36120D",
"~%	c #4B261F",
"{%	c #64342A",
"]%	c #4B261E",
"^%	c #41211A",
"/%	c #3D1B15",
"(%	c #2D1020",
"_%	c #33100A",
":%	c #3E1C14",
"<%	c #371813",
"[%	c #421C14",
"}%	c #360F18",
"|%	c #340F1B",
"1%	c #280803",
"2%	c #391B14",
"3%	c #582B22",
"4%	c #221126",
"5%	c #1F1127",
"6%	c #3A0F13",
"7%	c #3A0F14",
"                                                                                                                                ",
"                                                                                                                                ",
"                                                                                                                                ",
"                                                                                                                                ",
"                                                        . + @ # $ % & * =                                                       ",
"                                                      - ; > , ' ) ! ~ { ]                                                       ",
"                                                      ^ / ( _ : < [ } | 1                                                       ",
"                                                    2 3 4 5 6 7 8 9 0 a b                                                       ",
"                                                    c d e f g h 4 i j k l                                                       ",
"                                                    m n k i o k k k k k p q                                                     ",
"                                                  r s n k k k k k k k k t u                                                     ",
"                                                  v w x k k k k k k k k y z                                                     ",
"                                                  A B C k k k k k k k D E                                                       ",
"                                                      F G k k k k k k H                                                         ",
"                                                      I J n k k d d K L                                                         ",
"                                                        M N O P Q R S T                                                         ",
"                                                      U V W X Y Z `  ...                                                        ",
"                                                +.@.#.$.%.&.&.&.&.&.&.*.=.                                                      ",
"                                            -.;.>.,.'.` ).).).Z !.Z ).` ~.{.].^./.                                              ",
"                                          (._.:.<.[.}.|.1.1.2._._.3.4.4.5.6.7.6.8.                                              ",
"                                        9.0.a.b.c.d.e.f.g.h.i.j.k.l.m.n.o.p.q.r.s.t.                                            ",
"                                        u.v.w.x.y.z.A.B.C.D.E.F.G.H.I.J.K.L.M.N.O.P.                                            ",
"                                        Q.R.K.S.T.U.V.W.V.X.U.Y.T.Z.Z.U.`.U.U. +.+++                                            ",
"                                        @+F.V.#+$+%+&+W.V.V.T.Z.Z.Z.Z.U.U.*+&+T.=+-+;+                                          ",
"                                      >+,+F.'+)+!+~+{+]+K.T.Z.Z.Z.T.V.#+]+~+^+V./+(+_+                                          ",
"                                      :+<+[+}+G.|+1+{+!+Y.Y.Y.Z.U.V.W.%+2+3+4+5+6+7+8+                                          ",
"                                      9+0+[+]+a+b+c+{+!+z.V.Y.U.Y.V.Y.*+!+d+e+f+g+h+i+                                          ",
"                                      j+k+!+G.l+m+n+{+G.K.Y.Y.V.Y.V.V.G.R.o+p+q+]+r+s+t+                                        ",
"                                      u+{+{+v+w+  x+y+2+*+z+K.T.Y.A+B+!+C+D+    E+{+!+F+G+                                      ",
"                                    Q.H+{+{+I+J+  K+L+!+]+B+V.V.Y.&+B+!+M+N+    O+P+{+Q+G+                                      ",
"                                    R+S+{+T+U+    V+y+!+G.B+W+Y.X+&+2+{+Y+Z+    `+ @{+.@+@                                      ",
"                                    @@#@{+Y+$@    %@y+{+2+B+&@%+B+*+!+{+*@=@    w+-@{+;@>@                                      ",
"                                    u.,@{+'@)@    !@y+{+!+G.]+G.!+]+{+{+<+~@    `+{@{+]@^@                                      ",
"                                    /@(@{+_@:@    <@[@{+{+G.2+2+{+2+{+{+}@|@      1@{+2@3@                                      ",
"                                    4@T+y+5@    6@7@{+{+{+{+!+{+{+{+{+{+8@9@0@    a@b@c@                                        ",
"                                    d@e@f@g@h@  i@T+{+{+{+{+{+{+{+{+{+{+{+j@k@    l@m@n@                                        ",
"                                      o@p@q@r@  s@{+{+{+{+{+{+{+{+{+{+{+{+t@u@  v@w@x@y@z@                                      ",
"                                      A@x@B@C@  D@E@{+{+{+{+{+{+{+{+{+{+{+*@F@  G@H@x@I@J@                                      ",
"                                    K@L@M@N@O@  P@Q@{+{+{+{+{+{+{+{+{+{+{+*@F@  R@S@x@T@U@                                      ",
"                                      V@W@X@Y@  Z@M+Q@Q@{+Q@{+{+{+{+[@`@Y+ #.#    +#@###K@                                      ",
"                                      $#%#&#*#  =#-#;#>#,#'#)#!#~#{+{#]#^#/#(#    _#:#                                          ",
"                                                <#[#}#|#1#2#3#  4#5#6#7#8#9#0#a#                                                ",
"                                                b#c#8#8#8#d#    e#f#8#8#8#g#h#i#                                                ",
"                                                j#k#8#8#8#l#    m#n#8#8#8#o#p#q#                                                ",
"                                                r#s#8#8#8#t#      u#8#8#8#g#v#                                                  ",
"                                                w#}#8#8#7#x#      y#8#8#8#z#A#                                                  ",
"                                                B#C#8#8#D#E#      F#8#8#8#G#A#                                                  ",
"                                                B#H#8#8#I#J#      K#H#8#8#L#M#                                                  ",
"                                                N#8#8#8#O#G+      P#L#8#8#8#Q#                                                  ",
"                                                R#8#8#8#S#        T#U#8#8#8#V#                                                  ",
"                                                W#X#8#Y#Z#        `# $8#8#Y#.$                                                  ",
"                                                +$X#8#Y#@$        #$$$8#8#%$&$                                                  ",
"                                                *$=$8# #-$          ;$Y#Y#>$,$                                                  ",
"                                                '$)$!$~$w+          {$]$^$/$($                                                  ",
"                                                _$:$<$[$`+          }$|$1$2$3$                                                  ",
"                                                4$5$7.6$7$8$        V 9$0$a$K@b$                                                ",
"                                          c$d$e$f$g$0$h$i$K@        j$k$0$l$m$n$o$p$                                            ",
"                                        q$r$s$t$u$Z 0$v$U w$        x$5.&.5.y$1.z$A$B$C$                                        ",
"                                      D$E$F$G$H$1.9$&.I$J$K$      L$M$N$&.k$1.1.I$O$P$Q$D$                                      ",
"                                    D$D$R$S$T$1.1.U$V$W$X$P$D$D$D$p$Y$N$&.6.1.1.q#Z$B$D$D$D$                                    ",
"                                    D$D$`$ %.%2.+%*.!.@%#%$%D$D$D$R$%%&%&.0$*%1.=% %-%D$D$D$                                    ",
"                                    D$D$D$Q$;%>%2.].,%'%)% %D$    C$p$!%~%{%]%^%/%Q$D$D$D$                                      ",
"                                      D$D$D$D$(%_%:%<%[%}%|%          c$1%2%3%4%p$D$D$D$                                        ",
"                                            D$D$5% %C$p$K$                  6%7%                                                "};
