/* XPM */
static char * haruspex_right_xpm[] = {
"64 64 497 2",
"  	c None",
". 	c #2A0602",
"+ 	c #2B0702",
"@ 	c #2E130E",
"# 	c #321713",
"$ 	c #3C2B25",
"% 	c #5D4C3C",
"& 	c #6D563F",
"* 	c #4C3828",
"= 	c #210402",
"- 	c #31140E",
"; 	c #38302A",
"> 	c #51473F",
", 	c #5A4F46",
"' 	c #5B5047",
") 	c #826B51",
"! 	c #8A7153",
"~ 	c #897153",
"{ 	c #594938",
"] 	c #280702",
"^ 	c #1B0403",
"/ 	c #3D1E18",
"( 	c #534941",
"_ 	c #594F46",
": 	c #5C5147",
"< 	c #836C51",
"[ 	c #897053",
"} 	c #6F5E4B",
"| 	c #564C43",
"1 	c #2D0904",
"2 	c #391E19",
"3 	c #554940",
"4 	c #5A4E42",
"5 	c #604E37",
"6 	c #3B332E",
"7 	c #3C352F",
"8 	c #3D342D",
"9 	c #2B0803",
"0 	c #381F19",
"a 	c #302B26",
"b 	c #BAAA99",
"c 	c #C7B7A4",
"d 	c #C7B7A3",
"e 	c #AF9F8F",
"f 	c #2E100A",
"g 	c #3F2C25",
"h 	c #564C44",
"i 	c #B4A493",
"j 	c #CBBAA7",
"k 	c #BCAB99",
"l 	c #321712",
"m 	c #3A2822",
"n 	c #564D44",
"o 	c #443C36",
"p 	c #494139",
"q 	c #CAB9A6",
"r 	c #AEA090",
"s 	c #B6A695",
"t 	c #331712",
"u 	c #1E1B17",
"v 	c #453D36",
"w 	c #867B6F",
"x 	c #BCAC9C",
"y 	c #524840",
"z 	c #C8B8A4",
"A 	c #A29485",
"B 	c #5B544B",
"C 	c #3A352F",
"D 	c #BFAE9C",
"E 	c #31211C",
"F 	c #010101",
"G 	c #40362F",
"H 	c #544B42",
"I 	c #9E9284",
"J 	c #C5B6A4",
"K 	c #84786B",
"L 	c #C5B19E",
"M 	c #BDA28F",
"N 	c #C7B19E",
"O 	c #938678",
"P 	c #A58776",
"Q 	c #7A6054",
"R 	c #271913",
"S 	c #52473F",
"T 	c #95897B",
"U 	c #CFBFAD",
"V 	c #B8A997",
"W 	c #C2A996",
"X 	c #B28B78",
"Y 	c #B48E7B",
"Z 	c #C8B6A3",
"` 	c #BEA28F",
" .	c #A88371",
"..	c #311B13",
"+.	c #36231C",
"@.	c #453B33",
"#.	c #97887A",
"$.	c #CCBBA8",
"%.	c #CAB8A5",
"&.	c #C3AC9A",
"*.	c #C4AD9A",
"=.	c #A79686",
"-.	c #887265",
";.	c #381911",
">.	c #572921",
",.	c #48261D",
"'.	c #412820",
").	c #948274",
"!.	c #C4B4A1",
"~.	c #C5B5A2",
"{.	c #2B2723",
"].	c #5C2D23",
"^.	c #68362C",
"/.	c #603127",
"(.	c #512E26",
"_.	c #7A695C",
":.	c #C2B19E",
"<.	c #C9B8A5",
"[.	c #84796C",
"}.	c #000000",
"|.	c #381710",
"1.	c #4C271F",
"2.	c #68372D",
"3.	c #723E34",
"4.	c #6F3C32",
"5.	c #4E271E",
"6.	c #472922",
"7.	c #4D2F28",
"8.	c #5E2F25",
"9.	c #49231C",
"0.	c #090403",
"a.	c #371810",
"b.	c #47241C",
"c.	c #5F3026",
"d.	c #69372D",
"e.	c #703D32",
"f.	c #703D33",
"g.	c #65342A",
"h.	c #583022",
"i.	c #5C3024",
"j.	c #331D14",
"k.	c #5F2F26",
"l.	c #68362D",
"m.	c #713D33",
"n.	c #623127",
"o.	c #4C2D1D",
"p.	c #231F0E",
"q.	c #262010",
"r.	c #352F21",
"s.	c #382019",
"t.	c #6B3A30",
"u.	c #65332A",
"v.	c #603026",
"w.	c #4C291F",
"x.	c #0B2008",
"y.	c #2C281A",
"z.	c #435338",
"A.	c #41251C",
"B.	c #64342A",
"C.	c #6A382E",
"D.	c #633127",
"E.	c #5D2E25",
"F.	c #463224",
"G.	c #414931",
"H.	c #16280F",
"I.	c #39462D",
"J.	c #435538",
"K.	c #4D281F",
"L.	c #66342A",
"M.	c #6B382E",
"N.	c #562C23",
"O.	c #41291F",
"P.	c #3D462F",
"Q.	c #4B5237",
"R.	c #202B17",
"S.	c #0F2609",
"T.	c #38482D",
"U.	c #3E241B",
"V.	c #4C2920",
"W.	c #592D24",
"X.	c #5A2E24",
"Y.	c #3D2F22",
"Z.	c #414F35",
"`.	c #505237",
" +	c #585237",
".+	c #262F1A",
"++	c #271C0E",
"@+	c #39482E",
"#+	c #435438",
"$+	c #3A3C2A",
"%+	c #3D4730",
"&+	c #393625",
"*+	c #3F221A",
"=+	c #3A281D",
"-+	c #4D5338",
";+	c #575237",
">+	c #2A311B",
",+	c #2B1812",
"'+	c #36452C",
")+	c #3E4831",
"!+	c #485438",
"~+	c #4F5338",
"{+	c #435136",
"]+	c #373524",
"^+	c #465338",
"/+	c #555237",
"(+	c #27341E",
"_+	c #2C301C",
":+	c #425438",
"<+	c #555337",
"[+	c #4C5237",
"}+	c #383625",
"|+	c #515238",
"1+	c #495338",
"2+	c #26351F",
"3+	c #252815",
"4+	c #3D4E33",
"5+	c #383725",
"6+	c #475137",
"7+	c #535238",
"8+	c #435337",
"9+	c #142210",
"0+	c #35462D",
"a+	c #383826",
"b+	c #525337",
"c+	c #445136",
"d+	c #393B29",
"e+	c #444C33",
"f+	c #2D3725",
"g+	c #302C1F",
"h+	c #2C1B15",
"i+	c #314128",
"j+	c #363423",
"k+	c #535337",
"l+	c #445035",
"m+	c #3B402B",
"n+	c #2C2E1F",
"o+	c #512821",
"p+	c #4B2F23",
"q+	c #252211",
"r+	c #2E2F1C",
"s+	c #505338",
"t+	c #4F4A32",
"u+	c #3B412C",
"v+	c #312D1E",
"w+	c #754137",
"x+	c #4B3023",
"y+	c #2C2D1B",
"z+	c #4E5338",
"A+	c #50442F",
"B+	c #383927",
"C+	c #282D1E",
"D+	c #5C2E25",
"E+	c #66352C",
"F+	c #292013",
"G+	c #2A2314",
"H+	c #424F34",
"I+	c #595237",
"J+	c #524F35",
"K+	c #352E21",
"L+	c #425036",
"M+	c #2D3825",
"N+	c #372219",
"O+	c #373B27",
"P+	c #23321C",
"Q+	c #2F2B1C",
"R+	c #3E442F",
"S+	c #565237",
"T+	c #3B3F2A",
"U+	c #3C402B",
"V+	c #425337",
"W+	c #405136",
"X+	c #213019",
"Y+	c #3B472E",
"Z+	c #3C422C",
"`+	c #424B32",
" @	c #4B5036",
".@	c #3B3D29",
"+@	c #1C2D16",
"@@	c #23200F",
"#@	c #3F5034",
"$@	c #3C422D",
"%@	c #4F5137",
"&@	c #404D33",
"*@	c #3E4730",
"=@	c #172A12",
"-@	c #262112",
";@	c #3B3D2A",
">@	c #445438",
",@	c #353021",
"'@	c #3E4630",
")@	c #1F2F18",
"!@	c #252816",
"~@	c #415236",
"{@	c #3D442E",
"]@	c #3E462F",
"^@	c #3D4B31",
"/@	c #72675A",
"(@	c #575046",
"_@	c #36452D",
":@	c #32412A",
"<@	c #29311C",
"[@	c #2B3723",
"}@	c #8F7F71",
"|@	c #C5B4A2",
"1@	c #C6B5A2",
"2@	c #514A42",
"3@	c #0B1208",
"4@	c #252412",
"5@	c #415035",
"6@	c #3F4830",
"7@	c #3D452E",
"8@	c #293823",
"9@	c #908477",
"0@	c #CCBBA7",
"a@	c #BCAD9B",
"b@	c #071504",
"c@	c #2C3524",
"d@	c #363E2C",
"e@	c #36412E",
"f@	c #303827",
"g@	c #4D261D",
"h@	c #65564D",
"i@	c #C7B6A3",
"j@	c #CBBBA7",
"k@	c #A99B8B",
"l@	c #2A3324",
"m@	c #2B3324",
"n@	c #4E261E",
"o@	c #602E25",
"p@	c #8B7164",
"q@	c #B5A695",
"r@	c #48473B",
"s@	c #1C2317",
"t@	c #293122",
"u@	c #1D2A1B",
"v@	c #343E2C",
"w@	c #1B2216",
"x@	c #283022",
"y@	c #613127",
"z@	c #35412E",
"A@	c #35402D",
"B@	c #131C0F",
"C@	c #353F2D",
"D@	c #242B1E",
"E@	c #4E251D",
"F@	c #34412D",
"G@	c #273021",
"H@	c #10190C",
"I@	c #333E2C",
"J@	c #333D2B",
"K@	c #16170F",
"L@	c #2C1511",
"M@	c #120E09",
"N@	c #313D2A",
"O@	c #152110",
"P@	c #0E180B",
"Q@	c #323D2B",
"R@	c #313B2A",
"S@	c #2D3626",
"T@	c #303A29",
"U@	c #2E3A27",
"V@	c #091305",
"W@	c #434530",
"X@	c #4B4530",
"Y@	c #2B3824",
"Z@	c #0A1505",
"`@	c #494731",
" #	c #3A3F2C",
".#	c #323C2A",
"+#	c #283420",
"@#	c #0B1707",
"##	c #38422E",
"$#	c #514A33",
"%#	c #313A29",
"&#	c #23301C",
"*#	c #061704",
"=#	c #111E0D",
"-#	c #39422E",
";#	c #4D4832",
">#	c #303928",
",#	c #1F2E1A",
"'#	c #041103",
")#	c #1B2416",
"!#	c #37412E",
"~#	c #3B432F",
"{#	c #293123",
"]#	c #202E1B",
"^#	c #1F2B1A",
"/#	c #37422E",
"(#	c #222A1E",
"_#	c #26321F",
":#	c #23291B",
"<#	c #313B29",
"[#	c #2D3425",
"}#	c #2B3224",
"|#	c #292F21",
"1#	c #2C1A13",
"2#	c #563428",
"3#	c #27150A",
"4#	c #280A06",
"5#	c #4A241D",
"6#	c #522820",
"7#	c #5A2E26",
"8#	c #5E3127",
"9#	c #2F150F",
"0#	c #290702",
"a#	c #54281F",
"b#	c #301510",
"c#	c #210905",
"d#	c #38150F",
"e#	c #45221B",
"f#	c #532920",
"g#	c #240501",
"h#	c #270601",
"i#	c #300903",
"j#	c #2D0903",
"k#	c #360D07",
"l#	c #613026",
"m#	c #572D25",
"n#	c #5E2F26",
"o#	c #3A1812",
"p#	c #15112A",
"q#	c #310A03",
"r#	c #5F2F25",
"s#	c #4E2921",
"t#	c #5A2D24",
"u#	c #5B2D24",
"v#	c #290602",
"w#	c #0B112C",
"x#	c #14112A",
"y#	c #2D0803",
"z#	c #5B2E24",
"A#	c #6A3A31",
"B#	c #4C2922",
"C#	c #4C261F",
"D#	c #4E2A22",
"E#	c #512B23",
"F#	c #42201A",
"G#	c #1B0502",
"H#	c #1D1128",
"I#	c #33110B",
"J#	c #66352A",
"K#	c #713E34",
"L#	c #6F3D33",
"M#	c #713D34",
"N#	c #391B15",
"O#	c #2E101F",
"P#	c #471D16",
"Q#	c #713E33",
"R#	c #4F271F",
"S#	c #171129",
"T#	c #181129",
"U#	c #261024",
"V#	c #50241B",
"W#	c #633228",
"X#	c #6C392F",
"Y#	c #6D3A30",
"Z#	c #6E3B30",
"`#	c #6C3A2F",
" $	c #633227",
".$	c #4D2119",
"+$	c #320903",
"@$	c #231026",
"#$	c #12112B",
"$$	c #17112A",
"%$	c #4E231B",
"&$	c #57281F",
"*$	c #5B2B22",
"=$	c #582C23",
"-$	c #4D251D",
";$	c #542A21",
">$	c #4F281F",
",$	c #47221B",
"'$	c #4A2018",
")$	c #3F120B",
"!$	c #350F1A",
"~$	c #271024",
"{$	c #10112B",
"]$	c #32150F",
"^$	c #2C100B",
"/$	c #2A0A05",
"($	c #2E0803",
"_$	c #2F0702",
":$	c #36120C",
"<$	c #37110A",
"[$	c #2C0A06",
"}$	c #290501",
"|$	c #2A0501",
"1$	c #3A0F14",
"2$	c #390F15",
"3$	c #251025",
"4$	c #3D0F10",
"5$	c #400E09",
"6$	c #410E07",
"7$	c #3F0E0C",
"8$	c #3D0E0F",
"                                                                                                                                ",
"                                                                                                                                ",
"                                                        . + @ # $ % & * =                                                       ",
"                                                      - ; > , ' ) ! ~ { ]                                                       ",
"                                                  ^ / ( _ _ _ : < [ } | 1                                                       ",
"                                                  2 3 _ _ _ _ 4 5 6 7 8 9                                                       ",
"                                                  0 _ _ _ _ , a b c d e f                                                       ",
"                                                  g _ _ _ _ h i j j j k l                                                       ",
"                                                  m _ n o p | q j r s k t                                                       ",
"                                                  u _ v w x y z A B C D E                                                       ",
"                                                  F G H I J K L M N O P Q                                                       ",
"                                                    R S T U V W X Y Z `  .                                                      ",
"                                                    ..+.@.#.$.%.&.*.q =.-.                                                      ",
"                                                    ;.>.,.'.).!.j j ~.{.                                                        ",
"                                                      ].^./.(._.:.<.[.}.                                                        ",
"                                                    |.1.2.3.4.5.6.7.8.9.0.                                                      ",
"                                                  a.b.c.d.3.3.e.f.g.h.i.                                                        ",
"                                                  j.k.l.m.3.3.3.3.n.o.p.                                                        ",
"                                                q.r.s.t.3.3.3.4.u.v.w.x.                                                        ",
"                                                y.z.A.B.3.3.C.D.E.F.G.H.                                                        ",
"                                                I.J.K.D.L.M.n.N.O.P.Q.R.S.                                                      ",
"                                                T.J.U.V.W.v.X.Y.Z.`. +.+S.                                                      ",
"                                              ++@+#+$+%+&+*+=+#+-+;+ +>+                                                        ",
"                                              ,+'+#+)+!+~+{+]+^+/+ +;+(+S.                                                      ",
"                                                _+:+$+<+ +[+}+|+ + +1+2+S.                                                      ",
"                                                3+4+5+<+ +6+}+7+ +~+8+9+S.                                                      ",
"                                                  0+a+b+;+c+d+-+e+f+g+h+S.                                                      ",
"                                                  i+j+k+ +l+m+#+n+o+m.p+S.                                                      ",
"                                                  q+r+s+ +t+u+#+v+d.w+x+S.                                                      ",
"                                                    y+z+ +A+B+#+C+D+E+F+S.                                                      ",
"                                                    G+H+I+J+K+L+M+N+O+P+S.                                                      ",
"                                                    Q+R+z+S+T+U+V+W+#+X+S.                                                      ",
"                                                    Y+Z+`+;+ @.@#+#+#++@S.                                                      ",
"                                                  @@#@#+$@%@~+&@*@z.#+=@S.                                                      ",
"                                                  -@#@#+Z.;@>@#+,@'@#+)@                                                        ",
"                                                  !@~@#+#+{@]@^@/@(@_@:@                                                        ",
"                                                  <@#+#+#+#+[@}@|@1@2@3@                                                        ",
"                                                  4@5@6@7@z.8@9@0@j a@}.                                                        ",
"                                                  b@c@d@e@f@g@h@i@j@k@}.                                                        ",
"                                                    l@e@e@m@n@o@p@q@r@}.                                                        ",
"                                                    s@e@e@t@n@n./.u@v@                                                          ",
"                                                    w@e@e@x@n@n.y@z@A@                                                          ",
"                                                    B@C@e@D@E@D.D+F@G@                                                          ",
"                                                  S.H@I@e@J@K@L@M@N@O@                                                          ",
"                                                    P@Q@e@e@R@S@T@U@S.                                                          ",
"                                                    V@R@e@e@W@X@v@Y@S.                                                          ",
"                                                    Z@R@e@e@`@ #.#+#S.                                                          ",
"                                                    @#.#e@##$#%#R@&#S.                                                          ",
"                                                  *#=#v@e@-#;#>#e@,#S.                                                          ",
"                                                  '#)#e@e@!#~#{#e@]#S.                                                          ",
"                                                  '#^#e@e@e@/#(#z@_#                                                            ",
"                                                    :#<#[#}#|#1#2#3#                                                            ",
"                                                    4#5#6#7#8#9#n.0#                                                            ",
"                                                      a#D.m.l.b#n.c#                                                            ",
"                                                      d#n.m.^.e#n.f#g#h#i#j#                                                    ",
"                                                      k#l#m.3.m#n#n.y@n.l#o#                                                    ",
"                                                    p#q#r#m.3.f.s#t#n.y@y@u#v#                                                  ",
"                                                  w#x#y#z#m.m.3.A#B#C#D#E#F#G#x#w#                                              ",
"                                                w#w#H#I#J#3.3.3.3.K#L#M#3.m.N#w#w#w#                                            ",
"                                              w#w#x#O#P#D.d.3.3.3.3.3.3.3.Q#R#S#T#w#w#                                          ",
"                                              w#w#w#U#V#l#n.n.W#X#Y#Z#Z#`# $.$+$@$#$w#                                          ",
"                                              w#w#w#$$%$&$*$=$-$;$n.=$>$,$'$)$!$~$w#w#                                          ",
"                                                w#w#{$]$^$/$($_$:$<$[$}$|$1$2$3$w#w#                                            ",
"                                                              4$5$6$7$8$7$                                                      "};
