/* XPM */
static char * haruspex_left_xpm[] = {
"64 64 534 2",
"  	c None",
". 	c #151C1F",
"+ 	c #161C20",
"@ 	c #181E21",
"# 	c #181E20",
"$ 	c #1D2223",
"% 	c #242726",
"& 	c #232726",
"* 	c #242927",
"= 	c #272928",
"- 	c #342D2C",
"; 	c #3B3331",
"> 	c #423836",
", 	c #12191F",
"' 	c #11181F",
") 	c #121A1F",
"! 	c #141C20",
"~ 	c #161D21",
"{ 	c #191E21",
"] 	c #212525",
"^ 	c #34352E",
"/ 	c #434236",
"( 	c #424235",
"_ 	c #444437",
": 	c #4E4C3B",
"< 	c #4F4D3C",
"[ 	c #434235",
"} 	c #4F403A",
"| 	c #8A6B5C",
"1 	c #8B6C5D",
"2 	c #7A5F53",
"3 	c #3B312F",
"4 	c #3C322F",
"5 	c #292B27",
"6 	c #3F3E33",
"7 	c #444235",
"8 	c #454336",
"9 	c #464436",
"0 	c #474537",
"a 	c #484638",
"b 	c #494738",
"c 	c #4B493A",
"d 	c #514F3D",
"e 	c #524F3D",
"f 	c #53503E",
"g 	c #524F3E",
"h 	c #464537",
"i 	c #8A6C5D",
"j 	c #917162",
"k 	c #917163",
"l 	c #8C6C5E",
"m 	c #7A5F52",
"n 	c #131B1F",
"o 	c #2A2727",
"p 	c #282626",
"q 	c #292727",
"r 	c #12191E",
"s 	c #2B2E29",
"t 	c #504D3C",
"u 	c #54513F",
"v 	c #54513E",
"w 	c #54503E",
"x 	c #514E3D",
"y 	c #4A4839",
"z 	c #3C3D32",
"A 	c #2B2E2A",
"B 	c #282928",
"C 	c #483B37",
"D 	c #775F53",
"E 	c #8F6F60",
"F 	c #755B4F",
"G 	c #171C1F",
"H 	c #342C2B",
"I 	c #463631",
"J 	c #372D29",
"K 	c #342B28",
"L 	c #2D2726",
"M 	c #191D20",
"N 	c #2B2627",
"O 	c #40352F",
"P 	c #33342D",
"Q 	c #36372E",
"R 	c #32332D",
"S 	c #2C2E29",
"T 	c #2A2C28",
"U 	c #292B28",
"V 	c #262927",
"W 	c #222525",
"X 	c #1C2223",
"Y 	c #4C3E38",
"Z 	c #826659",
"` 	c #7B6053",
" .	c #252425",
"..	c #1B1F21",
"+.	c #282628",
"@.	c #392F2C",
"#.	c #58413A",
"$.	c #46352F",
"%.	c #362A26",
"&.	c #2F2825",
"*.	c #292828",
"=.	c #141A20",
"-.	c #272425",
";.	c #4E3B36",
">.	c #564039",
",.	c #4B3833",
"'.	c #453531",
").	c #272927",
"!.	c #31322B",
"~.	c #2E2F2A",
"{.	c #1B2123",
"].	c #1A2022",
"^.	c #1B2122",
"/.	c #212626",
"(.	c #242827",
"_.	c #2F2A29",
":.	c #2C2928",
"<.	c #282926",
"[.	c #2F2E29",
"}.	c #2C2C28",
"|.	c #2B2C27",
"1.	c #2D2F29",
"2.	c #2A2B27",
"3.	c #282A26",
"4.	c #272925",
"5.	c #2D2E29",
"6.	c #302F2C",
"7.	c #413631",
"8.	c #423430",
"9.	c #3E312E",
"0.	c #3C302D",
"a.	c #433431",
"b.	c #483732",
"c.	c #553F38",
"d.	c #4D3A33",
"e.	c #43332D",
"f.	c #372C28",
"g.	c #282727",
"h.	c #232124",
"i.	c #4B3934",
"j.	c #5C443C",
"k.	c #533F38",
"l.	c #1C2123",
"m.	c #272A27",
"n.	c #434234",
"o.	c #444335",
"p.	c #424134",
"q.	c #454436",
"r.	c #454335",
"s.	c #2F312C",
"t.	c #1D2123",
"u.	c #1B2022",
"v.	c #1D2122",
"w.	c #1E2223",
"x.	c #202423",
"y.	c #212524",
"z.	c #232624",
"A.	c #38352C",
"B.	c #3A382D",
"C.	c #3B392D",
"D.	c #3D392E",
"E.	c #3C392D",
"F.	c #37342D",
"G.	c #473B33",
"H.	c #58423A",
"I.	c #554038",
"J.	c #513D35",
"K.	c #523D36",
"L.	c #513D36",
"M.	c #4F3B34",
"N.	c #4D3933",
"O.	c #45352F",
"P.	c #2B2827",
"Q.	c #272324",
"R.	c #493833",
"S.	c #56413A",
"T.	c #3F332F",
"U.	c #38322D",
"V.	c #444436",
"W.	c #4D4B3A",
"X.	c #4B4838",
"Y.	c #4B4939",
"Z.	c #4A4838",
"`.	c #474536",
" +	c #484737",
".+	c #33352E",
"++	c #39372D",
"@+	c #37362C",
"#+	c #302C2A",
"$+	c #59423B",
"%+	c #533E37",
"&+	c #513C35",
"*+	c #4E3A34",
"=+	c #4C3932",
"-+	c #4C3832",
";+	c #44342E",
">+	c #2C2827",
",+	c #2A2829",
"'+	c #403330",
")+	c #5A433B",
"!+	c #523F38",
"~+	c #52503E",
"{+	c #4C4A39",
"]+	c #494737",
"^+	c #31322C",
"/+	c #3B382E",
"(+	c #3C392E",
"_+	c #38372C",
":+	c #543F37",
"<+	c #4F3B35",
"[+	c #3E2F2A",
"}+	c #372B27",
"|+	c #2E2825",
"1+	c #2B2728",
"2+	c #57413A",
"3+	c #554039",
"4+	c #2E2E2A",
"5+	c #464536",
"6+	c #32332C",
"7+	c #3D392F",
"8+	c #3C3A2E",
"9+	c #3B3A2E",
"0+	c #37372C",
"a+	c #34342A",
"b+	c #33322A",
"c+	c #323229",
"d+	c #34342B",
"e+	c #31312A",
"f+	c #2B2A29",
"g+	c #4A3934",
"h+	c #3D302D",
"i+	c #392E2C",
"j+	c #392E2B",
"k+	c #3D312D",
"l+	c #322824",
"m+	c #312826",
"n+	c #171D22",
"o+	c #212326",
"p+	c #342F30",
"q+	c #373232",
"r+	c #302D2D",
"s+	c #222223",
"t+	c #483833",
"u+	c #2D2D2A",
"v+	c #4F4D3B",
"w+	c #4D4B3B",
"x+	c #4B4938",
"y+	c #38372D",
"z+	c #37382E",
"A+	c #292D29",
"B+	c #151C20",
"C+	c #151B1F",
"D+	c #232827",
"E+	c #232728",
"F+	c #232727",
"G+	c #282728",
"H+	c #272626",
"I+	c #292728",
"J+	c #29282B",
"K+	c #363132",
"L+	c #3F3939",
"M+	c #4F4442",
"N+	c #443C3A",
"O+	c #463D3A",
"P+	c #373231",
"Q+	c #3D3634",
"R+	c #453632",
"S+	c #2D2C29",
"T+	c #292C28",
"U+	c #30322C",
"V+	c #262A27",
"W+	c #242427",
"X+	c #554946",
"Y+	c #574B48",
"Z+	c #504543",
"`+	c #4D4340",
" @	c #463D3B",
".@	c #473D3B",
"+@	c #483E3C",
"@@	c #483F3C",
"#@	c #2D2A2B",
"$@	c #55403A",
"%@	c #504E3C",
"&@	c #4C4A3A",
"*@	c #484637",
"=@	c #2A2D29",
"-@	c #252927",
";@	c #1D2023",
">@	c #383232",
",@	c #554947",
"'@	c #514744",
")@	c #5A4D49",
"!@	c #322E2E",
"~@	c #57433C",
"{@	c #534039",
"]@	c #35342E",
"^@	c #504E3D",
"/@	c #37372F",
"(@	c #282B28",
"_@	c #222326",
":@	c #534845",
"<@	c #514745",
"[@	c #524745",
"}@	c #594B47",
"|@	c #493F3C",
"1@	c #493F3D",
"2@	c #473E3C",
"3@	c #322F2E",
"4@	c #59433C",
"5@	c #36342E",
"6@	c #4D4B39",
"7@	c #282B27",
"8@	c #1F2125",
"9@	c #463D3C",
"0@	c #554A47",
"a@	c #534846",
"b@	c #4E4543",
"c@	c #574A46",
"d@	c #453D3B",
"e@	c #363231",
"f@	c #57423B",
"g@	c #35322D",
"h@	c #4C4939",
"i@	c #242625",
"j@	c #262826",
"k@	c #414034",
"l@	c #251F1D",
"m@	c #242524",
"n@	c #232927",
"o@	c #191E22",
"p@	c #524644",
"q@	c #564B48",
"r@	c #4C4341",
"s@	c #554845",
"t@	c #4D423E",
"u@	c #473E3B",
"v@	c #343030",
"w@	c #55413A",
"x@	c #36332E",
"y@	c #4F4C3C",
"z@	c #3C3A2F",
"A@	c #272926",
"B@	c #282A25",
"C@	c #292A26",
"D@	c #2F2C26",
"E@	c #282522",
"F@	c #332824",
"G@	c #302522",
"H@	c #302623",
"I@	c #302622",
"J@	c #2E2521",
"K@	c #2B2623",
"L@	c #292523",
"M@	c #2D2825",
"N@	c #2B2724",
"O@	c #191D23",
"P@	c #1D2024",
"Q@	c #433B3A",
"R@	c #544946",
"S@	c #49403F",
"T@	c #4C413E",
"U@	c #49403D",
"V@	c #3C3634",
"W@	c #3D3230",
"X@	c #574139",
"Y@	c #57433A",
"Z@	c #33312C",
"`@	c #4E4B3A",
" #	c #31332D",
".#	c #3D3B2E",
"+#	c #3C3B2F",
"@#	c #3D3B2F",
"##	c #3D3C2F",
"$#	c #2A2B29",
"%#	c #4A3832",
"&#	c #4A3731",
"*#	c #4B3832",
"=#	c #282827",
"-#	c #191D22",
";#	c #1B1E22",
">#	c #433C3B",
",#	c #3F3938",
"'#	c #514542",
")#	c #3A312F",
"!#	c #513E37",
"~#	c #59433B",
"{#	c #55423A",
"]#	c #322F2C",
"^#	c #484636",
"/#	c #2C2E2A",
"(#	c #3A392D",
"_#	c #2C2C29",
":#	c #5A423B",
"<#	c #5B433B",
"[#	c #503B35",
"}#	c #46342E",
"|#	c #372A26",
"1#	c #302824",
"2#	c #262626",
"3#	c #1F2126",
"4#	c #28272B",
"5#	c #463C3A",
"6#	c #272628",
"7#	c #3F3330",
"8#	c #57423A",
"9#	c #5A443B",
"0#	c #322D2B",
"a#	c #35312D",
"b#	c #36302D",
"c#	c #37312D",
"d#	c #30302A",
"e#	c #30312B",
"f#	c #564139",
"g#	c #59423A",
"h#	c #574039",
"i#	c #543E37",
"j#	c #3B2E29",
"k#	c #312824",
"l#	c #242525",
"m#	c #181C22",
"n#	c #141B21",
"o#	c #1C1F24",
"p#	c #362E2D",
"q#	c #4A4737",
"r#	c #474637",
"s#	c #434336",
"t#	c #4F3E37",
"u#	c #56423A",
"v#	c #544039",
"w#	c #322E2B",
"x#	c #2F302A",
"y#	c #33332A",
"z#	c #34332A",
"A#	c #34332B",
"B#	c #2A2C29",
"C#	c #443631",
"D#	c #453631",
"E#	c #433531",
"F#	c #40342F",
"G#	c #473732",
"H#	c #392E2A",
"I#	c #282524",
"J#	c #222424",
"K#	c #544038",
"L#	c #4B3A34",
"M#	c #39352E",
"N#	c #4E4B3B",
"O#	c #36372F",
"P#	c #282A27",
"Q#	c #242725",
"R#	c #212424",
"S#	c #222625",
"T#	c #202425",
"U#	c #292C29",
"V#	c #2A2E2A",
"W#	c #262827",
"X#	c #171D20",
"Y#	c #1A1F22",
"Z#	c #1A2123",
"`#	c #191F22",
" $	c #212526",
".$	c #1F2325",
"+$	c #252928",
"@$	c #1E2325",
"#$	c #202325",
"$$	c #262627",
"%$	c #3C3330",
"&$	c #58433C",
"*$	c #5B443C",
"=$	c #372E2B",
"-$	c #212324",
";$	c #4D3B35",
">$	c #2F2B29",
",$	c #30312C",
"'$	c #36362F",
")$	c #383930",
"!$	c #3B3531",
"~$	c #403833",
"{$	c #423934",
"]$	c #2E2D2B",
"^$	c #332F2C",
"/$	c #423733",
"($	c #403631",
"_$	c #2E2B29",
":$	c #242626",
"<$	c #392F2D",
"[$	c #372F2C",
"}$	c #3E3D32",
"|$	c #4D4A3A",
"1$	c #1E2324",
"2$	c #1C2022",
"3$	c #1F2322",
"4$	c #191E20",
"5$	c #262426",
"6$	c #39332F",
"7$	c #765D51",
"8$	c #896B5D",
"9$	c #4F413A",
"0$	c #352C2A",
"a$	c #4C3B35",
"b$	c #443530",
"c$	c #433F34",
"d$	c #4F4C3B",
"e$	c #30302B",
"f$	c #5F4C45",
"g$	c #876A5C",
"h$	c #8F7061",
"i$	c #8A6B5D",
"j$	c #5D4A42",
"k$	c #332B2A",
"l$	c #202023",
"m$	c #393930",
"n$	c #403D38",
"o$	c #7A6055",
"p$	c #8C6D5F",
"q$	c #8B6D5F",
"r$	c #88695C",
"s$	c #665249",
"t$	c #7B6054",
"u$	c #252827",
"v$	c #2B2D29",
"w$	c #2F312B",
"x$	c #2B2C28",
"y$	c #2A2B28",
"z$	c #272A26",
"A$	c #262926",
"B$	c #252825",
"C$	c #202424",
"D$	c #1E2224",
"E$	c #342F2E",
"F$	c #3C3532",
"G$	c #3E3634",
"H$	c #383231",
"I$	c #2D2C2C",
"                                                                                                                                ",
"                                                                                                                                ",
"                                                                                                                                ",
"                                                                                                                                ",
"                                                                                                                                ",
"                                                                                                                                ",
"                                                                                                                                ",
"                                                                                                                                ",
"                                                                                                                                ",
"                                                                                                                                ",
"                                                                                                                                ",
"                                                                                                                                ",
"                                                                                                                                ",
"                                                                                                                                ",
"                                                                                                                                ",
"                                                                                                                                ",
"                                                                                                                                ",
"                                                                                                                                ",
"                                                                                                                                ",
"                                                                                                                                ",
"                                              . + @ # $ % & * = - ; >                                                           ",
"                                , ' ) ! ~ @ { ] ^ / ( _ : < [ } | 1 2 3 4                                                       ",
"                              5 6 7 8 9 0 a b c : d d e f g h } i j k l m n                               o p q q               ",
"                            r s t u v w f f f f f g e x y z A B C D j E F G                               H I J K L o           ",
"                          M N O P Q [ f f x / R S T U V W X       Y Z `  ...                            +.@.#.$.%.&.*.          ",
"                        =.-.;.>.,.'.).P !.~.% {.].^./.(.            _.:.<.[.}.|.5 1.2.3.4.5 5.6.7.8.9.0.a.b.c.d.e.f.g.          ",
"                        h.i.j.j.k.4 l.m.n.o.p.o.n.q.r.s.t.u.v.w.x.y.z.A.B.C.C.D.E.C.C.C.C.C.B.F.G.H.I.J.K.L.M.d.N.O.P.          ",
"                      Q.R.j.S.T.U.V.h y x W.X.Y.Z.Y.X.`.9 9 `.`. +b .+2.++C.C.C.C.B.C.C.C.C.C.@+#+$+K.%+&+*+d.=+-+;+>+          ",
"                    ,+'+j.)+!+= q.~+w f e {+Z.Z.Z.Z.Z.Z.X.X.Z.Z.Z.Z.]+q.^+/+(+C.B.B.C.C.C.C.C._+#+)+>.:+K.<+M.-+[+}+|+          ",
"                    1+2+j.)+3+4+e f f ~+d {+Z.{+{+Z.Z.Z.Z.X.Y.Z.Z.Z.Z.Z.5+6+7+8+9+0+a+b+c+c+d+e+f+g+R.8.h+i+j+k+l+m+            ",
"        n+o+p+q+q+r+s+t+)+)+2+u+x f f f e v+w+Y.x+Z.Z.Z.Z.x+Z.Z.Z.Z.Z.Z.`.U y+_+z+A+l.B+C+@ D+E+F+G+H+I+                        ",
"      J+K+L+M+N+N+O+P+Q+R+$+H.S+x f f e f e W.Z.Z.Z.Z.Z.Z.{+Z.Z.Z.Z.Z.Z.`.T+U+V+* (.                                            ",
"      W+X+Y+Z+`+ @.@+@@@#@$@3+S+%@f f e f g &@Z.Z.Y.Z.Z.Z.{+x+Z.Z.Z.Z.Z.*@=@-@                                                  ",
"    ;@>@X+,@'@)@@@.@+@ @!@~@{@]@^@f f g f ~+&@Z.Z.{+Z.Z.Z.Y.x+Z.Z.Z.Z.Z.]+/@(@                                                  ",
"    _@:@Y+<@[@}@|@+@1@2@3@4@3+5@t f f e f f 6@Z.Z.{+Z.Z.Z.{+{+Z.Z.Z.Z.Z.Z.*@7@                                                  ",
"    8@9@0@a@b@c@|@+@2@d@e@f@2+g@< f f f f f W.Z.Z.Z.Z.Z.Z.h@h@Z.Z.Z.Z.Z.Z. +V i@j@k@                    l@m@% n@*               ",
"    o@8@p@q@r@s@t@1@@@u@v@w@H.x@y@f f f f f W.Z.Z.Y.Z.Z.Z.X.X.Z.Z.Z.Z.Z.Z.q.S z@C.5.A@B@C@C@D@E@F@G@H@I@J@K@L@M@N@<.            ",
"    O@P@Q@R@S@@@T@1@U@V@W@X@Y@Z@: f f e g f `@&@&@X.Z.Z.Z.h@Z.Z.Z.Z.Z.Z.b  #6+B.C.8+.#.#+#@###$#%#&#=+=+-+*#[+G@I@|+=#          ",
"      -#;#>#,#N+d@'#Q+)#!#~#{#]#w+f f f e x &@{+Y.Z.Z.Z.Z.h@Z.Z.Z.Z.Z.Z.^#/#d+@+_+C.C.C.C.C.(#_#3+:#<#<#<##.[#}#|#1#2#          ",
"          3#4#q+K+5#6#7#8#9#2+0#w+f f f f : Y.Z.Z.Z.Z.Z.Y.h@Z.Z.Z.Z.Z.b @#a#b#c#d#_+C.C.C.C.C.e#f#g#g##.h#i#i#%+j#k#l#          ",
"              m#n+n#o#p#'+f#~#_.6+w+f f f W.Z.Z.Z.b b X.q#]+*@*@r#`.`.s#U+t#u#v#w#x#y#z#b+A#b+B#C#D#D#E#F#G#3+#.H#I#J#          ",
"                        ) i+K#L#G#M#P /@N#`@[ O#~.T P#).Q#R#x.S#% T#U#V#-@V W#v.X#T#Y#Z#`# $.$+$@$#$$$I+  %$&$*$=$-$            ",
"                          ) ;$)+)+;$>$].~.x#T ,$'$)$B#              !$~${$]$F+                            ^$/$($_$:$            ",
"                            <$!#~#9#[$}$r#a Z.|$y@O#1$..2$v.3$4$5$6$7$8$8$9$                                                    ",
"                              0$a$b$c$^@v f f f f : W.N#: d$N#e$f$g$h$E i$j$                                                    ",
"                                k$l$m$a ^@f f f e e e e d ^@/ n$o$p$q$r$s$t$                                                    ",
"                                    u$v$w$e#~.5.x$y$P#z$A$B$C$D$E$F$G$H$I$                                                      ",
"                                                                                                                                ",
"                                                                                                                                ",
"                                                                                                                                ",
"                                                                                                                                ",
"                                                                                                                                ",
"                                                                                                                                ",
"                                                                                                                                ",
"                                                                                                                                ",
"                                                                                                                                ",
"                                                                                                                                ",
"                                                                                                                                ",
"                                                                                                                                ",
"                                                                                                                                ",
"                                                                                                                                ",
"                                                                                                                                ",
"                                                                                                                                ",
"                                                                                                                                "};
