/* XPM */
static char *a257f8e6c6a04aaba143be49ebe57cdfhORUJGJYHXHjnk2V[] = {
/* columns rows colors chars-per-pixel */
"64 64 169 2 ",
"   c None",
".  c #332C2C",
"X  c #392E2E",
"o  c #37312E",
"O  c #3A322F",
"+  c #3C382F",
"@  c #382F30",
"#  c #363233",
"$  c #3B3432",
"%  c #3D3A32",
"&  c #44332E",
"*  c #423632",
"=  c #443C34",
"-  c #4C3C35",
";  c #423C38",
":  c #4A3D39",
">  c #543D35",
",  c #583E35",
"<  c #543E38",
"1  c #444235",
"2  c #4B4436",
"3  c #494A37",
"4  c #464438",
"5  c #4C443B",
"6  c #474838",
"7  c #4C4B3A",
"8  c #534336",
"9  c #5C4335",
"0  c #544836",
"q  c #5E4A30",
"w  c #52453A",
"e  c #5B443A",
"r  c #544B3C",
"t  c #5B4B39",
"y  c #4C5037",
"u  c #4F513A",
"i  c #54543C",
"p  c #59553F",
"a  c #565B3C",
"s  c #585D3F",
"d  c #624435",
"f  c #614A35",
"g  c #62463B",
"h  c #64493D",
"j  c #6A4B3D",
"k  c #714D3E",
"l  c #71503D",
"z  c #5B613F",
"x  c #78603A",
"c  c #534D40",
"v  c #5C4E44",
"b  c #555441",
"n  c #595442",
"m  c #575941",
"M  c #5B5C42",
"N  c #5F5D49",
"B  c #664B41",
"V  c #6B4D41",
"C  c #714E40",
"Z  c #635147",
"A  c #6E5143",
"S  c #615946",
"D  c #655548",
"F  c #69554B",
"G  c #635B49",
"H  c #6C5A4D",
"J  c #755244",
"K  c #7B5545",
"L  c #725F41",
"P  c #7F5A47",
"I  c #7B5748",
"U  c #725B4D",
"Y  c #7E5A4A",
"T  c #755D50",
"R  c #785E51",
"E  c #5E6242",
"W  c #616545",
"Q  c #646945",
"!  c #696E47",
"~  c #65664A",
"^  c #6B644D",
"/  c #666B48",
"(  c #6A6C4D",
")  c #736C4F",
"_  c #697147",
"`  c #6D734B",
"'  c #70764E",
"]  c #73794E",
"[  c #746352",
"{  c #7E6355",
"}  c #7B6956",
"|  c #7E6558",
" . c #7F6E59",
".. c #6F7150",
"X. c #707351",
"o. c #7D7357",
"O. c #767D50",
"+. c #787E52",
"@. c #84693A",
"#. c #835C46",
"$. c #825C4B",
"%. c #8C624C",
"&. c #91664D",
"*. c #877447",
"=. c #816556",
"-. c #8F6955",
";. c #816759",
":. c #85695B",
">. c #8A6C5D",
",. c #936751",
"<. c #966A53",
"1. c #9A6D55",
"2. c #946F5D",
"3. c #986E5B",
"4. c #8E7B52",
"5. c #82745A",
"6. c #837B5A",
"7. c #9F7156",
"8. c #927D53",
"9. c #A3765C",
"0. c #A5795C",
"q. c #A97B5D",
"w. c #8B6E61",
"e. c #8E7363",
"r. c #927364",
"t. c #937665",
"y. c #967765",
"u. c #917363",
"i. c #957865",
"p. c #977866",
"a. c #997A67",
"s. c #957C6A",
"d. c #9A7B68",
"f. c #9B7D68",
"g. c #9D7E69",
"h. c #9E7F6B",
"j. c #9A7B68",
"k. c #AB7F61",
"l. c #7A8252",
"z. c #9B8447",
"x. c #96824F",
"c. c #99874F",
"v. c #9E8F4F",
"b. c #898056",
"n. c #8A8058",
"m. c #978150",
"M. c #978351",
"N. c #948352",
"B. c #968653",
"V. c #978652",
"C. c #9B8650",
"Z. c #988351",
"A. c #978C53",
"S. c #9A8951",
"D. c #9C8A50",
"F. c #A38B4D",
"G. c #AF9147",
"H. c #A9914B",
"J. c #AA914A",
"K. c #AA924B",
"L. c #9F816B",
"P. c #9D8671",
"I. c #A3836D",
"U. c #A3856D",
"Y. c #A6866F",
"T. c #A4846E",
"R. c #A1836C",
"E. c #B09277",
"W. c #B8977A",
/* pixels */
"                                                                                                                                ",
"                                                                                                                                ",
"                                                                                                                                ",
"                                                          . . . m                                                               ",
"                                                      % m m m m m N %                                                           ",
"                                                  % $ i m m M M m M N % .                                                       ",
"                                                  . n n W ( ......( N m % .                                                     ",
"                                                $ $ N H ^ X.X.X.X.( ( M 7 . .                                                   ",
"                                              5 . b Z D ^ ^ ( ( ( ( ( ( m 7 .                                                   ",
"                                              ; . c v D S S n N N N N m 4 % o .                                                 ",
"                                              . 5 U : . $ $ w 5 c n : U U * % .                                                 ",
"                                              . F X { ;.;.: . $ = 5 >.=.T v % .                                                 ",
"                                            5 $ : ;.t.i.i.t.e.t.f.t.>.w.>.U = 1 .                                               ",
"                                            4 * * w.g.a.f.L.R.U.U.g.g.T.e.v * 1 4 :                                             ",
"                                          . % $ $ >.a.j.f.y.i.Y.R.u.u.u.r.D $ S o.6.;                                           ",
"                                      S q S.*.. H { $ * v [ a.r.T v . v =.H $ G M.C.) =                                         ",
"                                      f H.H.4.. H { =.Z - H T.>.* =.Z >.{ H O 7 M.C.V.O                                         ",
"                                    L z.H.M.$ @ U %.<.,.%.P 0.K k 9.k.3.$.H % 4 4.M.D.n H                                       ",
"                                    @.H.v.H . . Y #.7.1.<.%.q.&.7.0.k.,.#.K % r 5.V.F.b.=                                       ",
"                                    x G.A.$ . . h #.1.9.,.%.&.<.1.1.q.%.#.l $ 1 n.V.c.8..                                       ",
"                                    n Z.8.$ . . e P #.1.,.d K #.<.1.,.%.J j $ G Z.x.4.} $                                       ",
"                                  w . 5.5.; . . : w U -.2.>.w u.u.2.-.Y h $ $  .5.5.} * $                                       ",
"                                < . J B  .5.$ . . : U T r.r.w.r.e.w.;.U 5 # :  .} * $ Y J h                                     ",
"                                X J Y J e [  .# # . ; U { w.{ { { U 5 ; $ * 8 e e h K K e w .                                   ",
"                              O A J K $.J J J e $ # . # 5 F T R F % # # e e e e j V K j - b ;                                   ",
"                            $ i i g k K I J V e e e : . . # $ . $ % r r t e e e 9 e C O t a i .                                 ",
"                            + a a e 9 K $.J r c w e e e ; . o 6 3 3 i i i i i t e 9 & e M s a 1                                 ",
"                          b O a a b e j J j i i i i i M E m p W W ! ` ` W E a r 8 e - 7 W ` a u                                 ",
"                            . E _ W r d J g i N M E Q Q ` ' ' ' O.] l.+.' Q M m = 6 . 7 ` O.Q 7 1                               ",
"                            . ! ` W % 9 O 9 6 M M Q ' ] O.+.' / Q Q ` ` / M M i 7 X . 3 ' ] ` 7 .                               ",
"                            . ! ` E y . . O 3 M N W / ! Q / / Q Q E s s M M 7 o = . . 3 ' O.] 1 .                               ",
"                            % _ ` s u . . 8 . . $ $ 3 p M M N M m 7 3 3 3 O . M p . . 7 ` l.] % .                               ",
"                            i _ ] z 3 . & t a . 2 = 4 1 $ O O $ 3 6 4 0 t p M M p . . 3 M ` ` % o                               ",
"                            + Q ] E 6 . & t s . 2 r t e e e e 9 e e 9 d g - M M s . o 3 M Q Q O o                               ",
"                            = z Q M 3 . 9 t a 6 * e d e e e 9 9 9 9 d d 0 $ W W M . . 3 u Q Q O .                               ",
"                            i s Q s 6 . e t a 7 r 9 d e 9 d 9 9 9 d d d 8 o / / E o . 7 3 Q Q O o                               ",
"                            i z _ M 1 $ e t a a $ 9 d d d d d 9 d d d d . W / / W % . o 3 W Q a .                               ",
"                            % ! _ W 6 . 8 t a s 2 O 9 d d d d d f f d 2 . Q Q Q W 1 . . M E Q a %                               ",
"                            % ! ` E 3 . 8 t a a M $ 8 d d 9 9 0 0 8 4 2 Q Q Q Q E 1 $ o M Q Q a 7                               ",
"                            % ` ] E 3 o = t a a M 1 . . . X . . $ $ 1 a Q Q Q Q s 6 $ o E ! ` a O                               ",
"                            i i ] M 3 . = t a a s s M s s z Q Q Q W s a Q Q Q M s = % O W ` ` i O                               ",
"                            i 4 ` m 6 . = t a s s s M E Q Q Q Q Q Q Q Q Q Q Q s s = % 1 E ' ` 4 %                               ",
"                            m = ~ N 4 $ = t s s s s M W Q Q Q Q Q Q Q Q Q Q Q s M % % 4 b ~ ~ 4 6                               ",
"                            c M E N r 4 = r m s s s s E Q Q Q Q Q Q Q Q Q Q a s m % $ $ . . . 6 7                               ",
"                            4 r N G b $ * 2 r a a a a M E Q Q Q Q Q Q Q Q z a M m % . ; >.;.u.: 4                               ",
"                                w . $ # * 2 r i i a a a s s E W W Q W Q E a i i i . . [ R.W.W.=                                 ",
"                              Z :.t.e.$ * > r i i a a a a i i i i i i i i i i 4 % $ * u.W.W.s..                                 ",
"                              O :.R.y.e.. X * w 7 r u u i a a a a a a 3 3 4 o o $ r 5 j.P.F :                                   ",
"                                s.>.E.w.: e 9 . . * . . = = . $ * = = % . ; v c v c 4 | e.. .                                   ",
"                                . w.>.:.O e > O w 8 - 8 . . . X . . $ n v r r c i n 7 O o .                                     ",
"                                  $ $ T + e > 7 r r r w r w r c r r r r r r n n n n 1 . 7                                       ",
"                                      . w w * i i r w 8 2 7 6 7 r c r 2 2 w r r p p $ .                                         ",
"                                      . . + i i i r r O O . . . . . . 3 2 w w r i p . $                                         ",
"                                      = . i i i i r w .               . 4 8 w i n p $ $                                         ",
"                                        . i i i i r r .               . 1 8 w n n p % .                                         ",
"                                        . b n n m i r .               . 6 r w n p i % .                                         ",
"                                        . . . O = $ $ .               . o i b n i i = .                                         ",
"                                        . - V V g > , .               . . t w 0 0 0 2 .                                         ",
"                                        . - j V e > > .               O . 8 9 8 g 8 * .                                         ",
"                                        . < C J j > > X                 . > 9 e B j e O                                         ",
"                                        . - h V j > > X                 . > 9 e g V * o                                         ",
"                                        4 O - X X . .                   % . - 9 9 > .                                           ",
"                                                r                         . . o . .                                             ",
"                                                                                                                                "
};
