/* XPM */
static char * haruspex_right2_xpm[] = {
"64 64 482 2",
"  	c None",
". 	c #2A0602",
"+ 	c #2B0702",
"@ 	c #2E130E",
"# 	c #321713",
"$ 	c #3C2B25",
"% 	c #5D4C3C",
"& 	c #6D563F",
"* 	c #4C3828",
"= 	c #210402",
"- 	c #31140E",
"; 	c #38302A",
"> 	c #51473F",
", 	c #5A4F46",
"' 	c #5B5047",
") 	c #826B51",
"! 	c #8A7153",
"~ 	c #897153",
"{ 	c #594938",
"] 	c #280702",
"^ 	c #1B0403",
"/ 	c #3D1E18",
"( 	c #534941",
"_ 	c #594F46",
": 	c #5C5147",
"< 	c #836C51",
"[ 	c #897053",
"} 	c #6F5E4B",
"| 	c #564C43",
"1 	c #2D0904",
"2 	c #391E19",
"3 	c #554940",
"4 	c #5A4E42",
"5 	c #604E37",
"6 	c #3B332E",
"7 	c #3C352F",
"8 	c #3D342D",
"9 	c #2B0803",
"0 	c #381F19",
"a 	c #302B26",
"b 	c #BAAA99",
"c 	c #C7B7A4",
"d 	c #C7B7A3",
"e 	c #AF9F8F",
"f 	c #2E100A",
"g 	c #3F2C25",
"h 	c #564C44",
"i 	c #B4A493",
"j 	c #CBBAA7",
"k 	c #BCAB99",
"l 	c #321712",
"m 	c #3A2822",
"n 	c #564D44",
"o 	c #443C36",
"p 	c #494139",
"q 	c #CAB9A6",
"r 	c #AEA090",
"s 	c #B6A695",
"t 	c #331712",
"u 	c #1E1B17",
"v 	c #453D36",
"w 	c #867B6F",
"x 	c #BCAC9C",
"y 	c #524840",
"z 	c #C8B8A4",
"A 	c #A29485",
"B 	c #5B544B",
"C 	c #3A352F",
"D 	c #BFAE9C",
"E 	c #31211C",
"F 	c #010101",
"G 	c #40362F",
"H 	c #544B42",
"I 	c #9E9284",
"J 	c #C5B6A4",
"K 	c #84786B",
"L 	c #C5B19E",
"M 	c #BDA28F",
"N 	c #C7B19E",
"O 	c #938678",
"P 	c #A58776",
"Q 	c #7A6054",
"R 	c #271913",
"S 	c #52473F",
"T 	c #95897B",
"U 	c #CFBFAD",
"V 	c #B8A997",
"W 	c #C2A996",
"X 	c #B28B78",
"Y 	c #B48E7B",
"Z 	c #C8B6A3",
"` 	c #BEA28F",
" .	c #A88371",
"..	c #311B13",
"+.	c #36231C",
"@.	c #453B33",
"#.	c #97887A",
"$.	c #CCBBA8",
"%.	c #CAB8A5",
"&.	c #C3AC9A",
"*.	c #C4AD9A",
"=.	c #A79686",
"-.	c #887265",
";.	c #381911",
">.	c #572921",
",.	c #48261D",
"'.	c #412820",
").	c #948274",
"!.	c #C4B4A1",
"~.	c #C5B5A2",
"{.	c #2B2723",
"].	c #5C2D23",
"^.	c #68362C",
"/.	c #603127",
"(.	c #512E26",
"_.	c #7A695C",
":.	c #C2B19E",
"<.	c #C9B8A5",
"[.	c #84796C",
"}.	c #000000",
"|.	c #381710",
"1.	c #4C271F",
"2.	c #68372D",
"3.	c #723E34",
"4.	c #6F3C32",
"5.	c #4E271E",
"6.	c #472922",
"7.	c #4D2F28",
"8.	c #5E2F25",
"9.	c #49231C",
"0.	c #090403",
"a.	c #371810",
"b.	c #47241C",
"c.	c #5F3026",
"d.	c #69372D",
"e.	c #703D32",
"f.	c #703D33",
"g.	c #65342A",
"h.	c #583022",
"i.	c #5C3024",
"j.	c #331D14",
"k.	c #5F2F26",
"l.	c #68362D",
"m.	c #713D33",
"n.	c #623127",
"o.	c #4C2D1D",
"p.	c #231F0E",
"q.	c #262010",
"r.	c #352F21",
"s.	c #382019",
"t.	c #6B3A30",
"u.	c #65332A",
"v.	c #603026",
"w.	c #4C291F",
"x.	c #0B2008",
"y.	c #2C281A",
"z.	c #435338",
"A.	c #41251C",
"B.	c #64342A",
"C.	c #6A382E",
"D.	c #633127",
"E.	c #5D2E25",
"F.	c #463224",
"G.	c #414931",
"H.	c #16280F",
"I.	c #39462D",
"J.	c #435538",
"K.	c #4D281F",
"L.	c #66342A",
"M.	c #6B382E",
"N.	c #562C23",
"O.	c #41291F",
"P.	c #3D462F",
"Q.	c #4B5237",
"R.	c #202B17",
"S.	c #0F2609",
"T.	c #38482D",
"U.	c #3E241B",
"V.	c #4C2920",
"W.	c #592D24",
"X.	c #5A2E24",
"Y.	c #3D2F22",
"Z.	c #414F35",
"`.	c #505237",
" +	c #585237",
".+	c #262F1A",
"++	c #271C0E",
"@+	c #39482E",
"#+	c #435438",
"$+	c #3A3C2A",
"%+	c #3D4730",
"&+	c #393625",
"*+	c #3F221A",
"=+	c #3A281D",
"-+	c #4D5338",
";+	c #575237",
">+	c #2A311B",
",+	c #252815",
"'+	c #3D4E33",
")+	c #383725",
"!+	c #555337",
"~+	c #475137",
"{+	c #383625",
"]+	c #535238",
"^+	c #4F5338",
"/+	c #435337",
"(+	c #142210",
"_+	c #35462D",
":+	c #383826",
"<+	c #525337",
"[+	c #445136",
"}+	c #393B29",
"|+	c #444C33",
"1+	c #2D3725",
"2+	c #302C1F",
"3+	c #2C1B15",
"4+	c #314128",
"5+	c #363423",
"6+	c #535337",
"7+	c #445035",
"8+	c #3B402B",
"9+	c #2C2E1F",
"0+	c #512821",
"a+	c #4B2F23",
"b+	c #252211",
"c+	c #2E2F1C",
"d+	c #505338",
"e+	c #4F4A32",
"f+	c #3B412C",
"g+	c #312D1E",
"h+	c #754137",
"i+	c #4B3023",
"j+	c #2C2D1B",
"k+	c #4E5338",
"l+	c #50442F",
"m+	c #383927",
"n+	c #282D1E",
"o+	c #5C2E25",
"p+	c #66352C",
"q+	c #292013",
"r+	c #2A2314",
"s+	c #424F34",
"t+	c #595237",
"u+	c #524F35",
"v+	c #352E21",
"w+	c #425036",
"x+	c #2D3825",
"y+	c #372219",
"z+	c #373B27",
"A+	c #23321C",
"B+	c #2F2B1C",
"C+	c #3E442F",
"D+	c #565237",
"E+	c #3B3F2A",
"F+	c #3C402B",
"G+	c #425337",
"H+	c #405136",
"I+	c #213019",
"J+	c #3B472E",
"K+	c #3C422C",
"L+	c #424B32",
"M+	c #4B5036",
"N+	c #3B3D29",
"O+	c #1C2D16",
"P+	c #23200F",
"Q+	c #3F5034",
"R+	c #3C422D",
"S+	c #4F5137",
"T+	c #404D33",
"U+	c #3E4730",
"V+	c #172A12",
"W+	c #262112",
"X+	c #3B3D2A",
"Y+	c #445438",
"Z+	c #353021",
"`+	c #3E4630",
" @	c #1F2F18",
".@	c #252816",
"+@	c #415236",
"@@	c #3D442E",
"#@	c #3E462F",
"$@	c #3D4B31",
"%@	c #72675A",
"&@	c #575046",
"*@	c #36452D",
"=@	c #32412A",
"-@	c #29311C",
";@	c #2B3723",
">@	c #8F7F71",
",@	c #C5B4A2",
"'@	c #C6B5A2",
")@	c #514A42",
"!@	c #0B1208",
"~@	c #252412",
"{@	c #415035",
"]@	c #3F4830",
"^@	c #3D452E",
"/@	c #293823",
"(@	c #908477",
"_@	c #CCBBA7",
":@	c #BCAD9B",
"<@	c #071504",
"[@	c #2C3524",
"}@	c #363E2C",
"|@	c #36412E",
"1@	c #303827",
"2@	c #4D261D",
"3@	c #65564D",
"4@	c #C7B6A3",
"5@	c #CBBBA7",
"6@	c #A99B8B",
"7@	c #2A3324",
"8@	c #2B3324",
"9@	c #4E261E",
"0@	c #602E25",
"a@	c #8B7164",
"b@	c #B5A695",
"c@	c #48473B",
"d@	c #1C2317",
"e@	c #293122",
"f@	c #1D2A1B",
"g@	c #343E2C",
"h@	c #1B2216",
"i@	c #283022",
"j@	c #613127",
"k@	c #35412E",
"l@	c #35402D",
"m@	c #131C0F",
"n@	c #353F2D",
"o@	c #242B1E",
"p@	c #4E251D",
"q@	c #34412D",
"r@	c #273021",
"s@	c #10190C",
"t@	c #333E2C",
"u@	c #333D2B",
"v@	c #16170F",
"w@	c #2C1511",
"x@	c #120E09",
"y@	c #313D2A",
"z@	c #152110",
"A@	c #0E180B",
"B@	c #323D2B",
"C@	c #313B2A",
"D@	c #2D3626",
"E@	c #303A29",
"F@	c #2E3A27",
"G@	c #091305",
"H@	c #434530",
"I@	c #4B4530",
"J@	c #2B3824",
"K@	c #0A1505",
"L@	c #494731",
"M@	c #3A3F2C",
"N@	c #323C2A",
"O@	c #283420",
"P@	c #0B1707",
"Q@	c #38422E",
"R@	c #514A33",
"S@	c #313A29",
"T@	c #23301C",
"U@	c #061704",
"V@	c #111E0D",
"W@	c #39422E",
"X@	c #4D4832",
"Y@	c #303928",
"Z@	c #1F2E1A",
"`@	c #041103",
" #	c #1B2416",
".#	c #37412E",
"+#	c #3B432F",
"@#	c #293123",
"##	c #202E1B",
"$#	c #1F2B1A",
"%#	c #37422E",
"&#	c #222A1E",
"*#	c #26321F",
"=#	c #23291B",
"-#	c #313B29",
";#	c #2D3425",
">#	c #2B3224",
",#	c #292F21",
"'#	c #2C1A13",
")#	c #563428",
"!#	c #27150A",
"~#	c #280A06",
"{#	c #4A241D",
"]#	c #522820",
"^#	c #5A2E26",
"/#	c #5E3127",
"(#	c #2F150F",
"_#	c #290702",
":#	c #54281F",
"<#	c #301510",
"[#	c #210905",
"}#	c #38150F",
"|#	c #45221B",
"1#	c #532920",
"2#	c #240501",
"3#	c #270601",
"4#	c #300903",
"5#	c #2D0903",
"6#	c #360D07",
"7#	c #613026",
"8#	c #572D25",
"9#	c #5E2F26",
"0#	c #3A1812",
"a#	c #15112A",
"b#	c #310A03",
"c#	c #5F2F25",
"d#	c #4E2921",
"e#	c #5A2D24",
"f#	c #5B2D24",
"g#	c #290602",
"h#	c #0B112C",
"i#	c #14112A",
"j#	c #2D0803",
"k#	c #5B2E24",
"l#	c #6A3A31",
"m#	c #4C2922",
"n#	c #4C261F",
"o#	c #4E2A22",
"p#	c #512B23",
"q#	c #42201A",
"r#	c #1B0502",
"s#	c #1D1128",
"t#	c #33110B",
"u#	c #66352A",
"v#	c #713E34",
"w#	c #6F3D33",
"x#	c #713D34",
"y#	c #391B15",
"z#	c #2E101F",
"A#	c #471D16",
"B#	c #713E33",
"C#	c #4F271F",
"D#	c #171129",
"E#	c #181129",
"F#	c #261024",
"G#	c #50241B",
"H#	c #633228",
"I#	c #6C392F",
"J#	c #6D3A30",
"K#	c #6E3B30",
"L#	c #6C3A2F",
"M#	c #633227",
"N#	c #4D2119",
"O#	c #320903",
"P#	c #231026",
"Q#	c #12112B",
"R#	c #17112A",
"S#	c #4E231B",
"T#	c #57281F",
"U#	c #5B2B22",
"V#	c #582C23",
"W#	c #4D251D",
"X#	c #542A21",
"Y#	c #4F281F",
"Z#	c #47221B",
"`#	c #4A2018",
" $	c #3F120B",
".$	c #350F1A",
"+$	c #271024",
"@$	c #10112B",
"#$	c #32150F",
"$$	c #2C100B",
"%$	c #2A0A05",
"&$	c #2E0803",
"*$	c #2F0702",
"=$	c #36120C",
"-$	c #37110A",
";$	c #2C0A06",
">$	c #290501",
",$	c #2A0501",
"'$	c #3A0F14",
")$	c #390F15",
"!$	c #251025",
"~$	c #3D0F10",
"{$	c #400E09",
"]$	c #410E07",
"^$	c #3F0E0C",
"/$	c #3D0E0F",
"                                                                                                                                ",
"                                                                                                                                ",
"                                                                                                                                ",
"                                                                                                                                ",
"                                                        . + @ # $ % & * =                                                       ",
"                                                      - ; > , ' ) ! ~ { ]                                                       ",
"                                                  ^ / ( _ _ _ : < [ } | 1                                                       ",
"                                                  2 3 _ _ _ _ 4 5 6 7 8 9                                                       ",
"                                                  0 _ _ _ _ , a b c d e f                                                       ",
"                                                  g _ _ _ _ h i j j j k l                                                       ",
"                                                  m _ n o p | q j r s k t                                                       ",
"                                                  u _ v w x y z A B C D E                                                       ",
"                                                  F G H I J K L M N O P Q                                                       ",
"                                                    R S T U V W X Y Z `  .                                                      ",
"                                                    ..+.@.#.$.%.&.*.q =.-.                                                      ",
"                                                    ;.>.,.'.).!.j j ~.{.                                                        ",
"                                                      ].^./.(._.:.<.[.}.                                                        ",
"                                                    |.1.2.3.4.5.6.7.8.9.0.                                                      ",
"                                                  a.b.c.d.3.3.e.f.g.h.i.                                                        ",
"                                                  j.k.l.m.3.3.3.3.n.o.p.                                                        ",
"                                                q.r.s.t.3.3.3.4.u.v.w.x.                                                        ",
"                                                y.z.A.B.3.3.C.D.E.F.G.H.                                                        ",
"                                                I.J.K.D.L.M.n.N.O.P.Q.R.S.                                                      ",
"                                                T.J.U.V.W.v.X.Y.Z.`. +.+S.                                                      ",
"                                              ++@+#+$+%+&+*+=+#+-+;+ +>+                                                        ",
"                                                ,+'+)+!+ +~+{+]+ +^+/+(+S.                                                      ",
"                                                  _+:+<+;+[+}+-+|+1+2+3+S.                                                      ",
"                                                  4+5+6+ +7+8+#+9+0+m.a+S.                                                      ",
"                                                  b+c+d+ +e+f+#+g+d.h+i+S.                                                      ",
"                                                    j+k+ +l+m+#+n+o+p+q+S.                                                      ",
"                                                    r+s+t+u+v+w+x+y+z+A+S.                                                      ",
"                                                    B+C+k+D+E+F+G+H+#+I+S.                                                      ",
"                                                    J+K+L+;+M+N+#+#+#+O+S.                                                      ",
"                                                  P+Q+#+R+S+^+T+U+z.#+V+S.                                                      ",
"                                                  W+Q+#+Z.X+Y+#+Z+`+#+ @                                                        ",
"                                                  .@+@#+#+@@#@$@%@&@*@=@                                                        ",
"                                                  -@#+#+#+#+;@>@,@'@)@!@                                                        ",
"                                                  ~@{@]@^@z./@(@_@j :@}.                                                        ",
"                                                  <@[@}@|@1@2@3@4@5@6@}.                                                        ",
"                                                    7@|@|@8@9@0@a@b@c@}.                                                        ",
"                                                    d@|@|@e@9@n./.f@g@                                                          ",
"                                                    h@|@|@i@9@n.j@k@l@                                                          ",
"                                                    m@n@|@o@p@D.o+q@r@                                                          ",
"                                                  S.s@t@|@u@v@w@x@y@z@                                                          ",
"                                                    A@B@|@|@C@D@E@F@S.                                                          ",
"                                                    G@C@|@|@H@I@g@J@S.                                                          ",
"                                                    K@C@|@|@L@M@N@O@S.                                                          ",
"                                                    P@N@|@Q@R@S@C@T@S.                                                          ",
"                                                  U@V@g@|@W@X@Y@|@Z@S.                                                          ",
"                                                  `@ #|@|@.#+#@#|@##S.                                                          ",
"                                                  `@$#|@|@|@%#&#k@*#                                                            ",
"                                                    =#-#;#>#,#'#)#!#                                                            ",
"                                                    ~#{#]#^#/#(#n._#                                                            ",
"                                                      :#D.m.l.<#n.[#                                                            ",
"                                                      }#n.m.^.|#n.1#2#3#4#5#                                                    ",
"                                                      6#7#m.3.8#9#n.j@n.7#0#                                                    ",
"                                                    a#b#c#m.3.f.d#e#n.j@j@f#g#                                                  ",
"                                                  h#i#j#k#m.m.3.l#m#n#o#p#q#r#i#h#                                              ",
"                                                h#h#s#t#u#3.3.3.3.v#w#x#3.m.y#h#h#h#                                            ",
"                                              h#h#i#z#A#D.d.3.3.3.3.3.3.3.B#C#D#E#h#h#                                          ",
"                                              h#h#h#F#G#7#n.n.H#I#J#K#K#L#M#N#O#P#Q#h#                                          ",
"                                              h#h#h#R#S#T#U#V#W#X#n.V#Y#Z#`# $.$+$h#h#                                          ",
"                                                h#h#@$#$$$%$&$*$=$-$;$>$,$'$)$!$h#h#                                            ",
"                                                              ~${$]$^$/$^$                                                      "};
