/* XPM */
static char * haruspex_front_xpm[] = {
"64 64 318 2",
"  	c None",
". 	c #191D21",
"+ 	c #191D22",
"@ 	c #191E22",
"# 	c #191D23",
"$ 	c #2C2B2D",
"% 	c #1A1E22",
"& 	c #574B48",
"* 	c #554946",
"= 	c #191E23",
"- 	c #544846",
"; 	c #181C21",
"> 	c #191C21",
", 	c #28292C",
"' 	c #2B2B2D",
") 	c #303030",
"! 	c #564B48",
"~ 	c #584C48",
"{ 	c #161B20",
"] 	c #3C3634",
"^ 	c #1B1F22",
"/ 	c #171D21",
"( 	c #1C2023",
"_ 	c #353233",
": 	c #524845",
"< 	c #765E53",
"[ 	c #8E6E5F",
"} 	c #343232",
"| 	c #433D3C",
"1 	c #141B20",
"2 	c #4D4442",
"3 	c #8C6D5E",
"4 	c #8C6D5D",
"5 	c #8D6E5E",
"6 	c #8D6E5F",
"7 	c #544741",
"8 	c #1A1D22",
"9 	c #826657",
"0 	c #806456",
"a 	c #795D51",
"b 	c #826557",
"c 	c #806355",
"d 	c #141B1F",
"e 	c #151B1F",
"f 	c #6F554A",
"g 	c #896A5C",
"h 	c #161B1F",
"i 	c #161B21",
"j 	c #5C443D",
"k 	c #252627",
"l 	c #88695C",
"m 	c #8F6F60",
"n 	c #5E463E",
"o 	c #2D2C2C",
"p 	c #151B20",
"q 	c #161A21",
"r 	c #5C433C",
"s 	c #5C443C",
"t 	c #262927",
"u 	c #443D37",
"v 	c #85675A",
"w 	c #614941",
"x 	c #171C21",
"y 	c #151C20",
"z 	c #161C1F",
"A 	c #1C1F22",
"B 	c #272A28",
"C 	c #212625",
"D 	c #292C29",
"E 	c #5C4D45",
"F 	c #8B6C5E",
"G 	c #6E584D",
"H 	c #232727",
"I 	c #56413A",
"J 	c #5D453D",
"K 	c #5C453C",
"L 	c #171C20",
"M 	c #2A2728",
"N 	c #1F2425",
"O 	c #222727",
"P 	c #53503E",
"Q 	c #2A2D2A",
"R 	c #252827",
"S 	c #1A1F22",
"T 	c #232626",
"U 	c #373830",
"V 	c #4B493A",
"W 	c #1D2224",
"X 	c #4B3C36",
"Y 	c #5C443B",
"Z 	c #5D443C",
"` 	c #362E2E",
" .	c #151C1F",
"..	c #533F38",
"+.	c #212526",
"@.	c #34352E",
"#.	c #181E22",
"$.	c #5D453C",
"%.	c #3C3231",
"&.	c #141C20",
"*.	c #161C20",
"=.	c #4D4B3B",
"-.	c #4F3D37",
";.	c #202425",
">.	c #161C21",
",.	c #5C453D",
"'.	c #5C463C",
").	c #4E3D36",
"!.	c #272B29",
"~.	c #514F3D",
"{.	c #504E3D",
"].	c #2C2F2B",
"^.	c #1B2022",
"/.	c #1E2324",
"(.	c #141A20",
"_.	c #161D20",
":.	c #1A2022",
"<.	c #222625",
"[.	c #3C3C33",
"}.	c #2F322C",
"|.	c #272A29",
"1.	c #1C2224",
"2.	c #202525",
"3.	c #222626",
"4.	c #454437",
"5.	c #191F22",
"6.	c #181E21",
"7.	c #4E4C3B",
"8.	c #171D20",
"9.	c #39302F",
"0.	c #373731",
"a.	c #1B2023",
"b.	c #3E3E34",
"c.	c #191F21",
"d.	c #424235",
"e.	c #513E38",
"f.	c #3D3D33",
"g.	c #1F2424",
"h.	c #141C1F",
"i.	c #1C2123",
"j.	c #252828",
"k.	c #514E3C",
"l.	c #181D21",
"m.	c #34352F",
"n.	c #4B4939",
"o.	c #262A28",
"p.	c #5B463C",
"q.	c #262928",
"r.	c #3B3B32",
"s.	c #524F3D",
"t.	c #494739",
"u.	c #4E4B3B",
"v.	c #4F4C3B",
"w.	c #30322D",
"x.	c #252927",
"y.	c #232726",
"z.	c #1D2324",
"A.	c #3E3E33",
"B.	c #1E2425",
"C.	c #494839",
"D.	c #191E21",
"E.	c #4E4B3A",
"F.	c #4B4838",
"G.	c #444437",
"H.	c #282B29",
"I.	c #31332E",
"J.	c #4A4838",
"K.	c #4D4A39",
"L.	c #1A1E21",
"M.	c #1B1F23",
"N.	c #4C4A39",
"O.	c #4C4A3B",
"P.	c #3E3F34",
"Q.	c #4B4938",
"R.	c #4D4A3A",
"S.	c #4C4939",
"T.	c #1A1F23",
"U.	c #1C2223",
"V.	c #494838",
"W.	c #32322D",
"X.	c #242827",
"Y.	c #1B2123",
"Z.	c #242828",
"`.	c #494340",
" +	c #1C2024",
".+	c #1F2324",
"++	c #3E3835",
"@+	c #AB897A",
"#+	c #28292A",
"$+	c #181D22",
"%+	c #AA8979",
"&+	c #6F594F",
"*+	c #504D3C",
"=+	c #1F2325",
"-+	c #A78677",
";+	c #AE8D7D",
">+	c #2E2C2C",
",+	c #302E2F",
"'+	c #8C6C5E",
")+	c #AD8C7C",
"!+	c #7A6154",
"~+	c #31342E",
"{+	c #2E2D2F",
"]+	c #A88778",
"^+	c #A68576",
"/+	c #343030",
"(+	c #AA8A7A",
"_+	c #A88979",
":+	c #59433A",
"<+	c #454538",
"[+	c #2B2E2A",
"}+	c #806A60",
"|+	c #8E6F60",
"1+	c #1B1E22",
"2+	c #5E473E",
"3+	c #503F38",
"4+	c #3B392D",
"5+	c #282C29",
"6+	c #29282A",
"7+	c #564842",
"8+	c #252527",
"9+	c #5D463D",
"0+	c #54443B",
"a+	c #222726",
"b+	c #31322D",
"c+	c #2B2E2B",
"d+	c #3D3C30",
"e+	c #202326",
"f+	c #5D463E",
"g+	c #4C3C36",
"h+	c #252427",
"i+	c #3A392D",
"j+	c #393A30",
"k+	c #31332C",
"l+	c #5D473E",
"m+	c #33352F",
"n+	c #3E3D31",
"o+	c #252A27",
"p+	c #191C22",
"q+	c #403E31",
"r+	c #5E463D",
"s+	c #3B392E",
"t+	c #1E2224",
"u+	c #1D2124",
"v+	c #272C28",
"w+	c #3D3B2F",
"x+	c #3D3C2F",
"y+	c #191E20",
"z+	c #3C3B2F",
"A+	c #3E3C30",
"B+	c #242927",
"C+	c #251E1D",
"D+	c #3F3E31",
"E+	c #202325",
"F+	c #261F1D",
"G+	c #2E302B",
"H+	c #232326",
"I+	c #49483A",
"J+	c #58423A",
"K+	c #5B433B",
"L+	c #1D2023",
"M+	c #212125",
"N+	c #2B2929",
"O+	c #4D3B34",
"P+	c #2A2727",
"Q+	c #1A1D21",
"R+	c #4E3B34",
"S+	c #1B1E23",
"T+	c #2D2929",
"U+	c #4F3C35",
"V+	c #1C1F23",
"W+	c #1F2025",
"X+	c #533E38",
"Y+	c #2F292A",
"Z+	c #1F2024",
"`+	c #2F2523",
" @	c #493934",
".@	c #1E2024",
"+@	c #262426",
"@@	c #2F2A2A",
"#@	c #3C322F",
"$@	c #1B1D21",
"%@	c #29211E",
"&@	c #57423A",
"*@	c #202224",
"=@	c #202225",
"-@	c #4A3731",
";@	c #392C27",
">@	c #332724",
",@	c #231F1F",
"'@	c #332824",
")@	c #2A211E",
"!@	c #2E2B2A",
"~@	c #1F2124",
"{@	c #2A2423",
"]@	c #2E2420",
"^@	c #543E37",
"/@	c #312622",
"(@	c #382B26",
"_@	c #232325",
":@	c #1E1D1E",
"<@	c #28201D",
"[@	c #2E2421",
"}@	c #3F302A",
"|@	c #322723",
"1@	c #2D2320",
"2@	c #202024",
"3@	c #262020",
"4@	c #272120",
"5@	c #252426",
"6@	c #282221",
"7@	c #2F2421",
"8@	c #2F2521",
"9@	c #302622",
"0@	c #1C1E23",
"a@	c #222326",
"b@	c #202124",
"c@	c #242426",
"                                                                                                                                ",
"                                                                                                                                ",
"                                                                                                                                ",
"                                                                                                                                ",
"                                                          . + + @ #                                                             ",
"                                                      $ + % & * + = +                                                           ",
"                                                      + & & & & & - ; >                                                         ",
"                                                    + , & & ' ) & & ! +                                                         ",
"                                                    ; ~ ' { ] ^ / ( _ +                                                         ",
"                                                    / : < [ [ [ [ [ } |                                                         ",
"                                                    1 2 [ 3 4 [ 5 6 7 8                                                         ",
"                                                    1 6 6 9 0 a b c 5 [                                                         ",
"                                                    d e [ 5 6 f 6 [ g h                                                         ",
"                                                e i j k l [ m n [ [ o p p                                                       ",
"                                            q e r s s t u [ [ [ [ v / w w x y                                                   ",
"                                          z A s s B C D t E [ F G H I s J K L p                                                 ",
"                                      e e M s s N O P P P Q R S T U V W X Y Z ` e                                               ",
"                                      p  ...s s +.P P P P P P P P P P P @.#.$.K %.&.                                            ",
"                                    *.=.=./ s -.;.P P P P P P P P P P P P >.j ,.'.).p                                           ",
"                                    p P P y s !.~.P P P P P P P P P P P P {./ K r e 1                                           ",
"                                    p P P ].^./.P P P P P P P P P P P P P P >.D W P U (.                                        ",
"                                    _.P P P :.<.P P [.[.}.D S |.;.1.2.P P P 3.*.P P 4.5.                                        ",
"                                    / P P P 6.7.P P 8.s s s s s s 9.0.a.4.P P ^.P P P /                                         ",
"                                    6.P P P *.P P P >.s s s s s s s s b.=.P P c.P P P _.                                        ",
"                                    6.P P d.*.P P P _.s s s s s s s s e.P P f.g.P P P p                                         ",
"                                  h.i.P P j.6.k.P P l.s s s s s s s K W P P D m.P P P p                                         ",
"                                  e }.P P :.:.n.P P ;.o.s s s s s p.q.P P P N r.P P s.p                                         ",
"                                  y t.P P _.c.u.v.P P w./ @ x.y.z.0.P P P P ^.A.B.P P p                                         ",
"                                  e C.P P D.N E.F.P P P P P P P P P P P P P a.  x P P p                                         ",
"                                  l.G.P P >.H.I.J.P P P P P P P P P P P P K.5.  L.P s._.                                        ",
"                                  M.P P u.p   6.F.F.P P P P P P P P P P N.F./   S P O._.                                        ",
"                                  % P P P.&.  p J.F.F.Q.R.k.E.N.S.F.N.S.S.J.p   8.P O.8.                                        ",
"                                  T.P P B     p J.J.n.J.J.N.N.N.S.F.J.J.J.J.z   U.V.W.6.                                        ",
"                                  2.l.;.X.    p J.J.J.J.J.J.J.J.J.J.J.J.J.J.Y.  Z.l.`.y                                         ",
"                                  _.[ [  +    _.J.J.J.J.J.J.J.J.J.J.J.J.J.J..+  L ++@+#+                                        ",
"                                  $+[ %+&+h.  8.*+J.J.J.J.J.J.J.J.J.J.J.J.J.#.  =+-+;+>+                                        ",
"                                  ,+'+)+%+!+*. .~+J.J.J.J.J.J.J.J.J.J.J.J.J.Q   {+]+^+/+                                        ",
"                                    p [ (+_+y :+D.J.J.J.J.J.J.J.J.J.J.J.J.<+[+  }+]+[ #+                                        ",
"                                    d [ |+d 1+2+3+j.J.J.J.J.J.J.J.J.J.J.4+5+1   6+[ 7+#+                                        ",
"                                      d e e 8+2+9+0+ + +a++.b+J.J.J.c+3.d+4+X.  _.e+[                                           ",
"                                            A 2+f+g+h+i+j+M.M.M.( C k+4+4+4+g.                                                  ",
"                                            p 2+l+m+n+4+o+p+    + q+4+4+4+4+_.                                                  ",
"                                            p r+r+].s+n+(       + 4+4+4+4+4+8.                                                  ",
"                                            t+u+N o.4+v+u+      + T w+4+4+4+/                                                   ",
"                                            D.4+4+4+4+S           x x+4+4+4+/                                                   ",
"                                            6.4+4+4+4+l.          y+x+4+4+4+1.                                                  ",
"                                            + 4+4+4+4+z           L.z+4+4+4+@                                                   ",
"                                            @ 4+4+4+4+/           { A+4+4+4+X.                                                  ",
"                                            u+4+4+4+4+B+          C+D+4+4+4+t+                                                  ",
"                                            E+;.4+4+4+Z.          F+j.W G+o.!.                                                  ",
"                                            H+I+C N +.O           8 J+K+s s L+                                                  ",
"                                            M+s s s s N+          8 O+s s s L+                                                  ",
"                                            1+s s s s P+          Q+R+s s s S+                                                  ",
"                                            8 s s s s T+          Q+U+s s s V+                                                  ",
"                                            W+s s s s L+          8 X+s s s M.                                                  ",
"                                        + Y+Z+s s s s +           8 `+s s s  @x .@                                              ",
"                                      +@@@#@s s s s s L.          $@%@&@s s s s *@8                                             ",
"                                      =@s s s s -@;@>@H+          ,@'@)@s s s s s !@+                                           ",
"                                      ~@{@]@^@/@(@;@_@l.          :@<@[@<@s }@|@)@1@~@                                          ",
"                                        2@1+3@4@ @.@5@                L.6@7@1@]@8@9@;                                           ",
"                                            0@V+S+                      8 + + 1+a@b@c@                                          ",
"                                                                                                                                ",
"                                                                                                                                ",
"                                                                                                                                "};
