/* XPM */
static char * haruspex_back_xpm[] = {
"64 64 349 2",
"  	c None",
". 	c #191D21",
"+ 	c #191D22",
"@ 	c #191E22",
"# 	c #191D23",
"$ 	c #2C2B2D",
"% 	c #1A1E22",
"& 	c #574B48",
"* 	c #554946",
"= 	c #191E23",
"- 	c #544846",
"; 	c #181C21",
"> 	c #191C21",
", 	c #28292C",
"' 	c #514745",
") 	c #504644",
"! 	c #564B48",
"~ 	c #212327",
"{ 	c #504542",
"] 	c #514644",
"^ 	c #4D4442",
"/ 	c #4E4543",
"( 	c #4B4240",
"_ 	c #473F3E",
": 	c #443C3A",
"< 	c #2F2D2F",
"[ 	c #1A1D23",
"} 	c #2E2C2C",
"| 	c #433B39",
"1 	c #5B4E4A",
"2 	c #5D4F4A",
"3 	c #574946",
"4 	c #4C413E",
"5 	c #473F3C",
"6 	c #1A1E23",
"7 	c #2F2C2D",
"8 	c #453C3A",
"9 	c #453D3A",
"0 	c #473E3B",
"a 	c #463D3A",
"b 	c #504440",
"c 	c #463D3B",
"d 	c #423A39",
"e 	c #141B20",
"f 	c #473D3B",
"g 	c #483E3C",
"h 	c #493F3C",
"i 	c #473E3C",
"j 	c #4A403D",
"k 	c #5F504B",
"l 	c #232527",
"m 	c #141B1F",
"n 	c #1B2022",
"o 	c #483E3B",
"p 	c #4B413E",
"q 	c #171C1F",
"r 	c #1C2024",
"s 	c #151B1F",
"t 	c #503D38",
"u 	c #5D443C",
"v 	c #252627",
"w 	c #4E4440",
"x 	c #4A403E",
"y 	c #4C3B36",
"z 	c #3B312F",
"A 	c #161A21",
"B 	c #5C443C",
"C 	c #59423B",
"D 	c #1F2225",
"E 	c #242628",
"F 	c #2B2B2C",
"G 	c #262829",
"H 	c #363333",
"I 	c #4D3B36",
"J 	c #5A443B",
"K 	c #59433C",
"L 	c #151B20",
"M 	c #151C20",
"N 	c #161C1F",
"O 	c #1C1F22",
"P 	c #59433B",
"Q 	c #5A433B",
"R 	c #56413B",
"S 	c #5F483F",
"T 	c #5B443C",
"U 	c #5A443C",
"V 	c #5C443B",
"W 	c #2A2728",
"X 	c #58423B",
"Y 	c #5C453C",
"Z 	c #56413A",
"` 	c #554039",
" .	c #57413A",
"..	c #57453B",
"+.	c #544039",
"@.	c #55413A",
"#.	c #202124",
"$.	c #151C1F",
"%.	c #533F38",
"&.	c #1F2325",
"*.	c #1D2224",
"=.	c #202425",
"-.	c #1C2023",
";.	c #1F2324",
">.	c #1E2324",
",.	c #33352E",
"'.	c #262928",
").	c #2D2F2B",
"!.	c #292C29",
"~.	c #242827",
"{.	c #181E22",
"].	c #564139",
"^.	c #141C20",
"/.	c #161C20",
"(.	c #4D4B3B",
"_.	c #171D21",
":.	c #4F3D37",
"<.	c #1C2123",
"[.	c #53503E",
"}.	c #161C21",
"|.	c #4E3D36",
"1.	c #272B29",
"2.	c #514F3D",
"3.	c #504E3D",
"4.	c #2C2F2B",
"5.	c #373830",
"6.	c #141A20",
"7.	c #161D20",
"8.	c #1A2022",
"9.	c #222625",
"0.	c #52503E",
"a.	c #524F3D",
"b.	c #524F3E",
"c.	c #222626",
"d.	c #454437",
"e.	c #191F22",
"f.	c #181E21",
"g.	c #4E4C3B",
"h.	c #504E3C",
"i.	c #4C4A39",
"j.	c #4B4939",
"k.	c #191F21",
"l.	c #424235",
"m.	c #4A4838",
"n.	c #4F4D3C",
"o.	c #4C4A3A",
"p.	c #4D4A3A",
"q.	c #3D3D33",
"r.	c #1F2424",
"s.	c #141C1F",
"t.	c #252828",
"u.	c #34352F",
"v.	c #2F322C",
"w.	c #4D4B3A",
"x.	c #1F2425",
"y.	c #3B3B32",
"z.	c #494739",
"A.	c #4C4939",
"B.	c #3E3E33",
"C.	c #1E2425",
"D.	c #494839",
"E.	c #191E21",
"F.	c #4E4B3A",
"G.	c #4B4838",
"H.	c #1B2023",
"I.	c #53513E",
"J.	c #444437",
"K.	c #282B29",
"L.	c #31332E",
"M.	c #4D4A39",
"N.	c #4E4B3B",
"O.	c #3E3F34",
"P.	c #4B4938",
"Q.	c #171D20",
"R.	c #272A28",
"S.	c #534F3D",
"T.	c #232827",
"U.	c #181D21",
"V.	c #1B2123",
"W.	c #151A20",
"X.	c #494340",
"Y.	c #8E6E5F",
"Z.	c #171C20",
"`.	c #6E584E",
" +	c #927162",
".+	c #28292A",
"++	c #181D22",
"@+	c #937363",
"#+	c #6F594F",
"$+	c #504D3C",
"%+	c #937364",
"&+	c #927263",
"*+	c #302E2F",
"=+	c #8C6C5E",
"-+	c #947465",
";+	c #826659",
">+	c #31342E",
",+	c #2A2D2A",
"'+	c #272928",
")+	c #84685A",
"!+	c #8F6F60",
"~+	c #937263",
"{+	c #343030",
"]+	c #8E6D5F",
"^+	c #917061",
"/+	c #3D392E",
"(+	c #454538",
"_+	c #292D29",
":+	c #252927",
"<+	c #8D6E5F",
"[+	c #212324",
"}+	c #3B392D",
"|+	c #3C392E",
"1+	c #282C29",
"2+	c #232726",
"3+	c #8A6C5D",
"4+	c #564842",
"5+	c #2E2C29",
"6+	c #3E3A2F",
"7+	c #30322B",
"8+	c #212526",
"9+	c #242927",
"0+	c #31322D",
"a+	c #2B2E2B",
"b+	c #5E473E",
"c+	c #212625",
"d+	c #202326",
"e+	c #272826",
"f+	c #3F3A30",
"g+	c #3A392D",
"h+	c #35362E",
"i+	c #31332C",
"j+	c #242828",
"k+	c #252826",
"l+	c #3E3A2E",
"m+	c #3C3A2E",
"n+	c #252A27",
"o+	c #403E31",
"p+	c #252827",
"q+	c #1D2223",
"r+	c #3C392D",
"s+	c #3A382D",
"t+	c #3E3D31",
"u+	c #2F302A",
"v+	c #292C28",
"w+	c #39382D",
"x+	c #2A2F2A",
"y+	c #4C4A3B",
"z+	c #232626",
"A+	c #3D3B2F",
"B+	c #36362C",
"C+	c #222524",
"D+	c #171C21",
"E+	c #3D3C2F",
"F+	c #191E20",
"G+	c #1C2224",
"H+	c #1A1E21",
"I+	c #3C3B2F",
"J+	c #161B20",
"K+	c #3E3C30",
"L+	c #251E1D",
"M+	c #3F3E31",
"N+	c #1E2224",
"O+	c #2E2E2B",
"P+	c #261F1D",
"Q+	c #2E302B",
"R+	c #262A28",
"S+	c #312B2B",
"T+	c #514338",
"U+	c #222727",
"V+	c #271F1D",
"W+	c #46352F",
"X+	c #5B433B",
"Y+	c #1F2224",
"Z+	c #2E282A",
"`+	c #2B2929",
" @	c #281F1D",
".@	c #382C27",
"+@	c #58413A",
"@@	c #59423A",
"#@	c #543F37",
"$@	c #252526",
"%@	c #1F2123",
"&@	c #574139",
"*@	c #533E37",
"=@	c #503C35",
"-@	c #2A2727",
";@	c #3C2E2A",
">@	c #564039",
",@	c #2A2828",
"'@	c #1C1F23",
")@	c #4F3B34",
"!@	c #513D36",
"~@	c #553F38",
"{@	c #523E36",
"]@	c #2D2929",
"^@	c #3B2E28",
"/@	c #5A423B",
"(@	c #2C2829",
"_@	c #2C282A",
":@	c #523D36",
"<@	c #1D2023",
"[@	c #362A26",
"}@	c #2B2828",
"|@	c #4F3B35",
"1@	c #4E3A34",
"2@	c #242625",
"3@	c #332824",
"4@	c #543E37",
"5@	c #3E3430",
"6@	c #3E3431",
"7@	c #4D3A33",
"8@	c #242726",
"9@	c #2C2320",
"0@	c #45352F",
"a@	c #5F4941",
"b@	c #252928",
"c@	c #40312B",
"d@	c #4C3932",
"e@	c #302C2A",
"f@	c #2A211E",
"g@	c #56423A",
"h@	c #292727",
"i@	c #3D2F29",
"j@	c #4C3933",
"k@	c #4C3832",
"l@	c #312824",
"m@	c #2E2421",
"n@	c #342925",
"o@	c #252424",
"p@	c #282625",
"q@	c #282827",
"r@	c #2A2827",
"s@	c #2F2725",
"t@	c #322824",
"u@	c #3E2F2A",
"v@	c #41322C",
"w@	c #312927",
"x@	c #2A2926",
"y@	c #302824",
"z@	c #302825",
"A@	c #212325",
"B@	c #282828",
"C@	c #282727",
"D@	c #2B2826",
"E@	c #2F2824",
"F@	c #232928",
"G@	c #212525",
"H@	c #202324",
"                                                                                                                                ",
"                                                                                                                                ",
"                                                                                                                                ",
"                                                              . + + @ #                                                         ",
"                                                          $ + % & * + = +                                                       ",
"                                                          + & & & & & - ; >                                                     ",
"                                                        + , & & ' ) & & ! ~                                                     ",
"                                                        ; { ] ^ - / ( _ : < [                                                   ",
"                                                        } | | 1 2 3 2 4 : 5 6                                                   ",
"                                                        7 | 8 9 0 a 0 b c d 6                                                   ",
"                                                        e 0 0 f g h i j g k 6                                                   ",
"                                                      l m n o c j h c p 0 q r                                                   ",
"                                                    s t u v w 0 x i c h l y z                                                   ",
"                                                A s B B B C D E F G H l I J K L M                                               ",
"                                              N O B B P Q Q Q R S T U P V P J P s L                                             ",
"                                          s s W B B X P B Y Y Z `  .P Q ..+.P P P @.#.                                          ",
"                                          L $.%.B B &.*.=.-.;.>.,.'.).!.~.~.;.{.P P ].^.                                        ",
"                                        /.(.(._.B :.<.[.[.[.[.[.[.[.[.[.[.[.[.}.Q P P |.L                                       ",
"                                        L [.[.M B 1.2.[.[.[.[.[.[.[.[.[.[.[.[.3._.P P s e                                       ",
"                                        L [.[.4.n >.[.[.[.[.[.[.[.[.[.[.[.[.[.[.}.!.*.[.5.6.                                    ",
"                                        7.[.[.[.8.9.[.[.0.[.2.a.b.a.[.[.a.[.[.[.c./.[.[.d.e.                                    ",
"                                        _.[.[.[.f.g.[.[.a.[.[.[.[.[.[.[.b.a.[.[.[.n [.[.[._.                                    ",
"                                        f.[.[.[./.h.i.i.i.h.[.[.[.[.[.[.[.3.i.j.i.k.[.[.[.7.                                    ",
"                                        f.[.[.l./.m.m.m.m.n.i.o.i.i.i.i.p.j.m.m.q.r.[.[.[.L                                     ",
"                                      s.<.[.[.t.f.p.m.m.o.m.m.m.m.m.m.m.o.i.m.m.!.u.[.[.[.L                                     ",
"                                      s v.[.[.8.8.m.m.m.w.m.m.m.m.m.m.m.o.m.m.m.x.y.[.[.a.L                                     ",
"                                      M z.[.[.7.k.j.j.m.m.m.m.o.i.o.m.A.m.m.m.m.n B.C.[.[.L                                     ",
"                                      s D.[.[.E.x.F.G.m.m.m.m.m.m.m.m.m.m.m.m.m.H.  L I.[.L                                     ",
"                                      M J.[.[.}.K.L.m.m.m.m.m.m.m.m.m.m.m.m.m.M.e.  s [.[.7.                                    ",
"                                      =.[.[.N.L   f.G.G.m.m.m.m.m.m.m.m.m.m.i.G._.  s [.0.7.                                    ",
"                                      <.[.[.O.^.  L m.G.G.P.p.i.j.i.A.G.i.A.A.m.L   s [.b.Q.                                    ",
"                                      C.[.[.R.    L m.m.j.m.m.P.P.i.A.G.m.m.m.m.N   $.S.y.f.                                    ",
"                                      T.U.=.~.    L m.m.m.m.m.m.m.m.m.m.m.m.m.m.V.  m W.X.M                                     ",
"                                      7.Y.Y.r     7.m.m.m.m.m.m.m.m.m.m.m.m.m.m.;.  Z.`. +.+                                    ",
"                                      ++Y.@+#+s.  Q.$+m.m.m.m.m.m.m.m.m.m.m.m.m.{.  ~.%+&+}                                     ",
"                                      *+=+-+&+;+/.$.>+m.m.m.m.m.m.m.m.m.m.m.m.m.,+'+)+!+~+{+                                    ",
"                                        L ]+ +^+M /+E.m.m.m.m.m.m.m.m.m.m.m.m.(+_+:+<+!+Y..+                                    ",
"                                        m Y.Y.m [+}+|+t.m.m.m.m.m.m.m.m.m.m.}+1+2+'.3+Y.4+.+                                    ",
"                                          m s s 5+}+}+6+7+8+2+9+0+m.m.m.a+c.'.b+~.~.c+d+Y.                                      ",
"                                                e+}+}+}+f+g+h+~.R.9.*.c+i+}+~.b+2+j+                                            ",
"                                                k+l+}+}+m+}+n+      % o+}+}+p+b+7.                                              ",
"                                                q+r+r+s+}+t+9+      _.}+}+}+u+R.Q.                                              ",
"                                                v+}+s+w+}+x+~.      y+z+A+}+}+B+c.                                              ",
"                                                C+}+}+}+}+V.          D+E+}+}+}+_.                                              ",
"                                                q+}+}+}+}+M           F+E+}+}+}+G+                                              ",
"                                                f.}+}+}+}+N           H+I+}+}+}+@                                               ",
"                                                8.}+}+}+}+_.          J+K+}+}+}+~.                                              ",
"                                                T.}+}+}+}+9+          L+M+}+}+}+N+                                              ",
"                                                ,+O+}+}+}+j+          P+t.*.Q+R+1.                                              ",
"                                                S+T+c+x.8+U+          V+W+X+B B Y+                                              ",
"                                                Z+].B T B `+           @.@+@@@#@$@                                              ",
"                                                %@&@*@=@B -@          V+;@X+X+>@,@                                              ",
"                                                '@)@!@~@{@]@          V+^@/@Q *@(@                                              ",
"                                                _@*@=@:@:@<@          P+[@X+/@:@p+                                              ",
"                                            }@-@-@*@|@1@|@+           2@3@/@4@:@5@6@:+                                          ",
"                                            -@X+B :@1@7@|@H+          8@9@0@4@~@T a@b@                                          ",
"                                            -@c@1@)@d@d@1@e@          9+3@f@:@*@B g@9+                                          ",
"                                            h@i@3@1@j@k@3@l@          9+m@3@3@n@o@p@q@                                          ",
"                                            r@s@t@u@)@v@3@w@          n+x@y@z@t@;.A@                                            ",
"                                              -@B@C@-@D@E@              F@B@G@=.H@                                              ",
"                                                                                                                                ",
"                                                                                                                                ",
"                                                                                                                                ",
"                                                                                                                                "};
