/* XPM */
static char * haruspex_dead_xpm[] = {
"64 64 318 2",
"  	c None",
". 	c #000000",
"+ 	c #080C0F",
"@ 	c #06090B",
"# 	c #121619",
"$ 	c #0D1013",
"% 	c #13171B",
"& 	c #020201",
"* 	c #0C0C0C",
"= 	c #010202",
"- 	c #020303",
"; 	c #0F0B0B",
"> 	c #2A2421",
", 	c #0E1014",
"' 	c #14191D",
") 	c #0F1216",
"! 	c #0F1010",
"~ 	c #0C0A08",
"{ 	c #100C0B",
"] 	c #050403",
"^ 	c #0E0B09",
"/ 	c #302825",
"( 	c #4C403E",
"_ 	c #121418",
": 	c #080A0C",
"< 	c #0E1010",
"[ 	c #161617",
"} 	c #14100F",
"| 	c #1F1A19",
"1 	c #0E0C0A",
"2 	c #251F1D",
"3 	c #352E2C",
"4 	c #241D1C",
"5 	c #050607",
"6 	c #030405",
"7 	c #1B1715",
"8 	c #14110F",
"9 	c #12110E",
"0 	c #0E0B08",
"a 	c #1C1817",
"b 	c #26211F",
"c 	c #110D0C",
"d 	c #120E0D",
"e 	c #0F0D0F",
"f 	c #0F1014",
"g 	c #080808",
"h 	c #0E0B0A",
"i 	c #12100D",
"j 	c #171311",
"k 	c #100C0A",
"l 	c #221D1A",
"m 	c #2A231F",
"n 	c #0E0909",
"o 	c #0A0909",
"p 	c #130F0F",
"q 	c #050608",
"r 	c #070604",
"s 	c #060504",
"t 	c #151310",
"u 	c #181413",
"v 	c #120F0F",
"w 	c #0C0908",
"x 	c #0B0908",
"y 	c #070605",
"z 	c #080606",
"A 	c #010100",
"B 	c #030302",
"C 	c #0A0A07",
"D 	c #090807",
"E 	c #090706",
"F 	c #070505",
"G 	c #151110",
"H 	c #040506",
"I 	c #010000",
"J 	c #050503",
"K 	c #060503",
"L 	c #070705",
"M 	c #0B0B07",
"N 	c #050404",
"O 	c #050303",
"P 	c #030202",
"Q 	c #030404",
"R 	c #0A0C0D",
"S 	c #080705",
"T 	c #040402",
"U 	c #030201",
"V 	c #0B0A07",
"W 	c #050505",
"X 	c #0D0D09",
"Y 	c #201715",
"Z 	c #191414",
"` 	c #010101",
" .	c #0D0C08",
"..	c #0F0E09",
"+.	c #030303",
"@.	c #040403",
"#.	c #130F0A",
"$.	c #1A120D",
"%.	c #100908",
"&.	c #05070A",
"*.	c #070B0D",
"=.	c #020101",
"-.	c #0A0805",
";.	c #090705",
">.	c #0C0605",
",.	c #140C09",
"'.	c #19130F",
").	c #140E0A",
"!.	c #1B110F",
"~.	c #080D0E",
"{.	c #07090C",
"].	c #040302",
"^.	c #020203",
"/.	c #0C0B07",
"(.	c #080805",
"_.	c #020202",
":.	c #0B0907",
"<.	c #100F0A",
"[.	c #0A0A06",
"}.	c #080604",
"|.	c #070404",
"1.	c #090603",
"2.	c #0A0605",
"3.	c #060403",
"4.	c #070303",
"5.	c #080503",
"6.	c #050506",
"7.	c #060604",
"8.	c #080704",
"9.	c #010203",
"0.	c #0B0A06",
"a.	c #0C0C07",
"b.	c #060603",
"c.	c #0E0D09",
"d.	c #0E0E09",
"e.	c #050302",
"f.	c #170F0C",
"g.	c #040609",
"h.	c #181810",
"i.	c #100E0B",
"j.	c #070704",
"k.	c #0E0D08",
"l.	c #090905",
"m.	c #030301",
"n.	c #080404",
"o.	c #0F0907",
"p.	c #100B0A",
"q.	c #010303",
"r.	c #191810",
"s.	c #15140F",
"t.	c #080807",
"u.	c #020200",
"v.	c #11100A",
"w.	c #020304",
"x.	c #0C0706",
"y.	c #050202",
"z.	c #000101",
"A.	c #17150E",
"B.	c #0A0907",
"C.	c #100E08",
"D.	c #11110A",
"E.	c #020404",
"F.	c #040604",
"G.	c #10100C",
"H.	c #0A0E11",
"I.	c #14130D",
"J.	c #0A0A05",
"K.	c #050502",
"L.	c #100F0B",
"M.	c #12110C",
"N.	c #191911",
"O.	c #0D0C09",
"P.	c #1A1913",
"Q.	c #20201A",
"R.	c #0A0906",
"S.	c #070603",
"T.	c #0D0C07",
"U.	c #1E1C15",
"V.	c #2A271D",
"W.	c #050707",
"X.	c #040303",
"Y.	c #090906",
"Z.	c #0D0D08",
"`.	c #0D0B08",
" +	c #090805",
".+	c #17160E",
"++	c #323025",
"@+	c #090E0F",
"#+	c #0D0D07",
"$+	c #191912",
"%+	c #080806",
"&+	c #2D2B21",
"*+	c #0A0D10",
"=+	c #0C0B08",
"-+	c #050504",
";+	c #0E0E0D",
">+	c #161714",
",+	c #18160F",
"'+	c #16150F",
")+	c #222017",
"!+	c #05080A",
"~+	c #010102",
"{+	c #080A09",
"]+	c #1F1F19",
"^+	c #232219",
"/+	c #1D1C13",
"(+	c #2B2A1E",
"_+	c #080D10",
":+	c #0A0905",
"<+	c #060808",
"[+	c #212119",
"}+	c #0B0F10",
"|+	c #302F23",
"1+	c #2D2B20",
"2+	c #0D1215",
"3+	c #0C0C08",
"4+	c #030406",
"5+	c #0B0F11",
"6+	c #3A392A",
"7+	c #2B2920",
"8+	c #0A0F12",
"9+	c #0B1012",
"0+	c #323024",
"a+	c #212017",
"b+	c #050808",
"c+	c #12110B",
"d+	c #1E1C14",
"e+	c #28261B",
"f+	c #1B1911",
"g+	c #070A0C",
"h+	c #0C0B06",
"i+	c #0B0B06",
"j+	c #13110C",
"k+	c #0F0F0A",
"l+	c #15140E",
"m+	c #15140D",
"n+	c #030304",
"o+	c #13120B",
"p+	c #040707",
"q+	c #292424",
"r+	c #040608",
"s+	c #110E0A",
"t+	c #261D1A",
"u+	c #60493F",
"v+	c #131313",
"w+	c #070403",
"x+	c #040202",
"y+	c #0D100F",
"z+	c #46362D",
"A+	c #4E3B33",
"B+	c #0F0F0F",
"C+	c #080504",
"D+	c #040404",
"E+	c #050705",
"F+	c #090A09",
"G+	c #382A23",
"H+	c #413129",
"I+	c #3C2D27",
"J+	c #090808",
"K+	c #100C09",
"L+	c #241A14",
"M+	c #1A120E",
"N+	c #11100B",
"O+	c #0C0604",
"P+	c #19120E",
"Q+	c #201813",
"R+	c #14110B",
"S+	c #1D1611",
"T+	c #10100A",
"U+	c #040201",
"V+	c #090605",
"W+	c #010201",
"X+	c #090504",
"Y+	c #030402",
"Z+	c #11110B",
"`+	c #10100B",
" @	c #030403",
".@	c #020302",
"+@	c #0F0E0A",
"@@	c #13120C",
"#@	c #080507",
"$@	c #080403",
"%@	c #0D0706",
"&@	c #090503",
"*@	c #0D0705",
"=@	c #0E0806",
"-@	c #030101",
";@	c #030203",
">@	c #090604",
",@	c #110A08",
"'@	c #100907",
")@	c #120C09",
"!@	c #18110D",
"~@	c #1D1412",
"{@	c #0B0705",
"]@	c #110B07",
"^@	c #110A07",
"/@	c #120B09",
"(@	c #0B0605",
"_@	c #0B0706",
":@	c #140C0A",
"<@	c #19120F",
"[@	c #060303",
"}@	c #080909",
"|@	c #0D0907",
"1@	c #060404",
"2@	c #0F0806",
"3@	c #19110E",
"4@	c #080C0B",
"5@	c #090909",
"6@	c #080505",
"7@	c #0E0907",
"8@	c #050606",
"9@	c #060505",
"0@	c #1A1919",
"a@	c #0B0F0F",
"b@	c #121212",
"c@	c #060708",
"                                                                          .                                                     ",
"                                                                                                                                ",
"                                                              . .                                                               ",
"                                                            . + @ # $ %   .                                                     ",
"                                                        & * = - ; > , ' )                                                       ",
"                                                          ! ~ { ] ^ / ( _ :                                                     ",
"                                                      . < [ } | 1 ; 2 3 4 5 .     . .                                           ",
"                                                      . 6 7 8 9 0 a b c d e f . . . . .                                         ",
"                                                  . . . g h i j k l m n o p q .             .                                   ",
"                                            . .   . . r s { t u v w x ] y z - .     . .     .                                   ",
"                                            . .   . . A B C D ~ E ] B & F G H . . . . . .                                       ",
"                                            . . I J K & L M K B N O P ] ^ Q R . . . . .                                         ",
"                                            . . . A S T U V M ] I & W y X Y Z . . .                                             ",
"                                          r ` . . . A ` A  ...C B B +.@.#.$.%.&.*.        .                                     ",
"                                      . . . . . . . =.` ` @. .-.0 ;.;.>.,.'.).!.~.{.    . .                                     ",
"                                      & ].^.` ` @.r /.(.& . _.:.<.[.}.|.1.2.3.4.5.2.6..                                         ",
"                                    . 7.8.  9.B @.0.a.7.b.P B c.d.7.` . ` _.` . ` e.f.g.                                        ",
"                                        5 h.i./.j.@.& A B B S k.l.` & m.` =.` ` n.o.p.                                          ",
"                                  .     q.r.s.t.] A J ] J .. .7.@.u.7.B & & ` v.w.x.y.`                                         ",
"                          .       .   . z...A.g _.j.@.j.J S j.b.s /. .B ].B.C.D.E.F._.b.G.H.                                    ",
"                                  . . . ` d.I.J.B V K.& & S L.M./.k.l.` B k.N.;.` ` O.P.Q.:                                     ",
"                              . . . . . ` R.V B . T u.& & & <.M.d.M r B B ;.S.& A z.T.U.V.W.. . . .                             ",
"                              .     . . ` j.J ` . X.b.R.Y.@.l.Z.c./.Y.y :.`._.& . `  +.+++@+. . .                               ",
"                              .     . . ` J J ` _.J R.a.R. +& T S a.7.#+$+] B %+J ` /.A.&+*+. . .                               ",
"                                  . . z.. ` L 0.=+r K T =.J P . 7./.S [.-+& J ..;+>+,+'+)+!+. . . . .                           ",
"                                . . . ~+` & (.V Y.@.B . . B R.] 7. .0.V ] T K ..{+]+^+/+(+_+. . . . .                           ",
"                                        _.=._.` ` =.7.T ].(.[.T B 8./.Z.:+b.B R.<+[+}+|+1+2+  . . . .                           ",
"                                        B & . . . & 0.S R.3+/.0.V @.R.k.J T ` & 4+. 5+6+7+8+      .                             ",
"                                .     ` _.` ` . J K R.r l.l.b./...7.] J ` ` m.0.!+. 9+0+a+b+.     .                             ",
"                                      W K.` ` . Y.S l.s M c+[.[.c.] & ` . A b.d+!+. H e+f+E.. .     . .                         ",
"                                . . . g+h+` ` . ] ].B & S i+b.r ..b.A A 7.7.R.j+H . ` I.0.` . .     . .                         ",
"                                . . .     7.` . . . . & V =.A 7.k+V 7._.0.l+m+ .n+. . I.X ~+. . . . . .                         ",
"                                . . & O.C & . . . . . & (._.j. .c.Z. .B 7.o+<./.p+. = 4+q+r+. . . . .                           ",
"                                    J ..s+P . . . . . ]  .]. +..}././.& ` +.] J Q . 4+t+u+v+. . . .   . .                       ",
"                                    . =.w+x+I z.. . . ` B (.c.j.(.J J ` ` & & j.9.. y+z+A+B+. . .       .                       ",
"                                  . . ` C+}.O e.. T M Y.7.c.k.& A A ` D+K T _.L E+F+G+H+I+J+          .                         ",
"                                . . . . _.K+L+M+. I 7.Z.J B (.[.@.` ` B 3+N+(.` ` ` O+P+Q+D+.                                   ",
"                                . . . . L R+S+q.` ` I ` ` s T+c+[.. . & V k+s . . . . U+V++.. . .                               ",
"                                    . . . ` ` ` & & & B W+& [.<.R.(.K.j.. . . . . . . ` X+. . . . .                             ",
"                                    . . . . . . B [.d.N+V ` ` B Z.N+[.(.Y+=.` . . . . . . .       .                             ",
"                                  . . . . . ` & s  .Z+<.r ` ` A r Z.J . & B _.O ` . . . . .     . . .                           ",
"                                      . . 7.<.k+`+0.7.& . & P . . . ` . ` +. @.@z.. . .         .                               ",
"                                        . K +@Z.V ] . ` & /.N+] . . }.. ` ` . ` . . .                                           ",
"                                          . . . A L  .B & 7.V @.& r ..(.` . . ` . . . .                                         ",
"                                          . . . @.i+<.X.` K <.c+..J R.X.A   A X.` . . .     .                                   ",
"                                                w.].] . ` & 0.@@N+J . `     B M ` . . .                                         ",
"                                              .   . . . . . J ../.A . . & ` m.@.. . . .                                         ",
"                                            . . _.` . ` A ` . . . . . ` B . ` P . . .                                           ",
"                                          . . . `   ` & & ` . . . . . . . . ` .@    .                                           ",
"                                          . . .     = - . . . . . . . . . .       . .                                           ",
"                                          . . . #@U+$@%@=.. . . . . . I . =.&@U ` . .       .                                   ",
"                                                _.=.B O & . . . . . . ` P *@=@  .           .                                   ",
"                                                ` ` ].X+P ` . . . . . ` -@>.x.                                                  ",
"                                        .   . . ;@>@,@'@U ` . . . . . . . e.)@                                                  ",
"                                        . . ` N W !@~@C+I . . . . . . . . {@                                                    ",
"                                        . .   ]@^@/@(@-@. z.. . . . . ` ` _@:@  <@                                              ",
"                                          .   [@` & -@O U ` . . . . . }@|@1@2@>@/@3@                                            ",
"                                          . W =.. =.3.f.|.` . . . . . 4@_@O [@-@P 5@                                            ",
"                                          . J+6@].2.7@)@] . . . . . . 8@9@C+    ` ~+.                                           ",
"                                            . 0@v+5@=.=.=.. . . . . . . a@b@  c@` . .                                           ",
"                                                  . . . . . . . . .             . .                                             ",
"                                                    . . . . . . . .                                                             ",
"                                                            . . .                                                               ",
"                                                                                                                                "};
