/* XPM */
static char * haruspex_left_xpm[] = {
"64 64 497 2",
"  	c None",
". 	c #210402",
"+ 	c #4C3828",
"@ 	c #6D563F",
"# 	c #5D4C3C",
"$ 	c #3C2B25",
"% 	c #321713",
"& 	c #2E130E",
"* 	c #2B0702",
"= 	c #2A0602",
"- 	c #280702",
"; 	c #594938",
"> 	c #897153",
", 	c #8A7153",
"' 	c #826B51",
") 	c #5B5047",
"! 	c #5A4F46",
"~ 	c #51473F",
"{ 	c #38302A",
"] 	c #31140E",
"^ 	c #2D0904",
"/ 	c #564C43",
"( 	c #6F5E4B",
"_ 	c #897053",
": 	c #836C51",
"< 	c #5C5147",
"[ 	c #594F46",
"} 	c #534941",
"| 	c #3D1E18",
"1 	c #1B0403",
"2 	c #2B0803",
"3 	c #3D342D",
"4 	c #3C352F",
"5 	c #3B332E",
"6 	c #604E37",
"7 	c #5A4E42",
"8 	c #554940",
"9 	c #391E19",
"0 	c #2E100A",
"a 	c #AF9F8F",
"b 	c #C7B7A3",
"c 	c #C7B7A4",
"d 	c #BAAA99",
"e 	c #302B26",
"f 	c #381F19",
"g 	c #321712",
"h 	c #BCAB99",
"i 	c #CBBAA7",
"j 	c #B4A493",
"k 	c #564C44",
"l 	c #3F2C25",
"m 	c #331712",
"n 	c #B6A695",
"o 	c #AEA090",
"p 	c #CAB9A6",
"q 	c #494139",
"r 	c #443C36",
"s 	c #564D44",
"t 	c #3A2822",
"u 	c #31211C",
"v 	c #BFAE9C",
"w 	c #3A352F",
"x 	c #5B544B",
"y 	c #A29485",
"z 	c #C8B8A4",
"A 	c #524840",
"B 	c #BCAC9C",
"C 	c #867B6F",
"D 	c #453D36",
"E 	c #1E1B17",
"F 	c #7A6054",
"G 	c #A58776",
"H 	c #938678",
"I 	c #C7B19E",
"J 	c #BDA28F",
"K 	c #C5B19E",
"L 	c #84786B",
"M 	c #C5B6A4",
"N 	c #9E9284",
"O 	c #544B42",
"P 	c #40362F",
"Q 	c #010101",
"R 	c #A88371",
"S 	c #BEA28F",
"T 	c #C8B6A3",
"U 	c #B48E7B",
"V 	c #B28B78",
"W 	c #C2A996",
"X 	c #B8A997",
"Y 	c #CFBFAD",
"Z 	c #95897B",
"` 	c #52473F",
" .	c #271913",
"..	c #887265",
"+.	c #A79686",
"@.	c #C4AD9A",
"#.	c #C3AC9A",
"$.	c #CAB8A5",
"%.	c #CCBBA8",
"&.	c #97887A",
"*.	c #453B33",
"=.	c #36231C",
"-.	c #311B13",
";.	c #2B2723",
">.	c #C5B5A2",
",.	c #C4B4A1",
"'.	c #948274",
").	c #412820",
"!.	c #48261D",
"~.	c #572921",
"{.	c #381911",
"].	c #000000",
"^.	c #84796C",
"/.	c #C9B8A5",
"(.	c #C2B19E",
"_.	c #7A695C",
":.	c #512E26",
"<.	c #603127",
"[.	c #68362C",
"}.	c #5C2D23",
"|.	c #090403",
"1.	c #49231C",
"2.	c #5E2F25",
"3.	c #4D2F28",
"4.	c #472922",
"5.	c #4E271E",
"6.	c #6F3C32",
"7.	c #723E34",
"8.	c #68372D",
"9.	c #4C271F",
"0.	c #381710",
"a.	c #5C3024",
"b.	c #583022",
"c.	c #65342A",
"d.	c #703D33",
"e.	c #703D32",
"f.	c #69372D",
"g.	c #5F3026",
"h.	c #47241C",
"i.	c #371810",
"j.	c #231F0E",
"k.	c #4C2D1D",
"l.	c #623127",
"m.	c #713D33",
"n.	c #68362D",
"o.	c #5F2F26",
"p.	c #331D14",
"q.	c #0B2008",
"r.	c #4C291F",
"s.	c #603026",
"t.	c #65332A",
"u.	c #6B3A30",
"v.	c #382019",
"w.	c #352F21",
"x.	c #262010",
"y.	c #16280F",
"z.	c #414931",
"A.	c #463224",
"B.	c #5D2E25",
"C.	c #633127",
"D.	c #6A382E",
"E.	c #64342A",
"F.	c #41251C",
"G.	c #435338",
"H.	c #2C281A",
"I.	c #0F2609",
"J.	c #202B17",
"K.	c #4B5237",
"L.	c #3D462F",
"M.	c #41291F",
"N.	c #562C23",
"O.	c #6B382E",
"P.	c #66342A",
"Q.	c #4D281F",
"R.	c #435538",
"S.	c #39462D",
"T.	c #262F1A",
"U.	c #585237",
"V.	c #505237",
"W.	c #414F35",
"X.	c #3D2F22",
"Y.	c #5A2E24",
"Z.	c #592D24",
"`.	c #4C2920",
" +	c #3E241B",
".+	c #38482D",
"++	c #2A311B",
"@+	c #575237",
"#+	c #4D5338",
"$+	c #435438",
"%+	c #3A281D",
"&+	c #3F221A",
"*+	c #393625",
"=+	c #3D4730",
"-+	c #3A3C2A",
";+	c #39482E",
">+	c #271C0E",
",+	c #27341E",
"'+	c #555237",
")+	c #465338",
"!+	c #373524",
"~+	c #435136",
"{+	c #4F5338",
"]+	c #485438",
"^+	c #3E4831",
"/+	c #36452C",
"(+	c #2B1812",
"_+	c #26351F",
":+	c #495338",
"<+	c #515238",
"[+	c #383625",
"}+	c #4C5237",
"|+	c #555337",
"1+	c #425438",
"2+	c #2C301C",
"3+	c #142210",
"4+	c #435337",
"5+	c #535238",
"6+	c #475137",
"7+	c #383725",
"8+	c #3D4E33",
"9+	c #252815",
"0+	c #2C1B15",
"a+	c #302C1F",
"b+	c #2D3725",
"c+	c #444C33",
"d+	c #393B29",
"e+	c #445136",
"f+	c #525337",
"g+	c #383826",
"h+	c #35462D",
"i+	c #4B2F23",
"j+	c #512821",
"k+	c #2C2E1F",
"l+	c #3B402B",
"m+	c #445035",
"n+	c #535337",
"o+	c #363423",
"p+	c #314128",
"q+	c #4B3023",
"r+	c #754137",
"s+	c #312D1E",
"t+	c #3B412C",
"u+	c #4F4A32",
"v+	c #505338",
"w+	c #2E2F1C",
"x+	c #252211",
"y+	c #292013",
"z+	c #66352C",
"A+	c #5C2E25",
"B+	c #282D1E",
"C+	c #383927",
"D+	c #50442F",
"E+	c #4E5338",
"F+	c #2C2D1B",
"G+	c #23321C",
"H+	c #373B27",
"I+	c #372219",
"J+	c #2D3825",
"K+	c #425036",
"L+	c #352E21",
"M+	c #524F35",
"N+	c #595237",
"O+	c #424F34",
"P+	c #2A2314",
"Q+	c #213019",
"R+	c #405136",
"S+	c #425337",
"T+	c #3C402B",
"U+	c #3B3F2A",
"V+	c #565237",
"W+	c #3E442F",
"X+	c #2F2B1C",
"Y+	c #1C2D16",
"Z+	c #3B3D29",
"`+	c #4B5036",
" @	c #424B32",
".@	c #3C422C",
"+@	c #3B472E",
"@@	c #172A12",
"#@	c #3E4730",
"$@	c #404D33",
"%@	c #4F5137",
"&@	c #3C422D",
"*@	c #3F5034",
"=@	c #23200F",
"-@	c #1F2F18",
";@	c #3E4630",
">@	c #353021",
",@	c #445438",
"'@	c #3B3D2A",
")@	c #262112",
"!@	c #32412A",
"~@	c #36452D",
"{@	c #575046",
"]@	c #72675A",
"^@	c #3D4B31",
"/@	c #3E462F",
"(@	c #3D442E",
"_@	c #415236",
":@	c #252816",
"<@	c #0B1208",
"[@	c #514A42",
"}@	c #C6B5A2",
"|@	c #C5B4A2",
"1@	c #8F7F71",
"2@	c #2B3723",
"3@	c #29311C",
"4@	c #BCAD9B",
"5@	c #CCBBA7",
"6@	c #908477",
"7@	c #293823",
"8@	c #3D452E",
"9@	c #3F4830",
"0@	c #415035",
"a@	c #252412",
"b@	c #A99B8B",
"c@	c #CBBBA7",
"d@	c #C7B6A3",
"e@	c #65564D",
"f@	c #4D261D",
"g@	c #303827",
"h@	c #36412E",
"i@	c #363E2C",
"j@	c #2C3524",
"k@	c #071504",
"l@	c #48473B",
"m@	c #B5A695",
"n@	c #8B7164",
"o@	c #602E25",
"p@	c #4E261E",
"q@	c #2B3324",
"r@	c #2A3324",
"s@	c #343E2C",
"t@	c #1D2A1B",
"u@	c #293122",
"v@	c #1C2317",
"w@	c #35402D",
"x@	c #35412E",
"y@	c #613127",
"z@	c #283022",
"A@	c #1B2216",
"B@	c #273021",
"C@	c #34412D",
"D@	c #4E251D",
"E@	c #242B1E",
"F@	c #353F2D",
"G@	c #131C0F",
"H@	c #152110",
"I@	c #313D2A",
"J@	c #120E09",
"K@	c #2C1511",
"L@	c #16170F",
"M@	c #333D2B",
"N@	c #333E2C",
"O@	c #10190C",
"P@	c #2E3A27",
"Q@	c #303A29",
"R@	c #2D3626",
"S@	c #313B2A",
"T@	c #323D2B",
"U@	c #0E180B",
"V@	c #2B3824",
"W@	c #4B4530",
"X@	c #434530",
"Y@	c #091305",
"Z@	c #283420",
"`@	c #323C2A",
" #	c #3A3F2C",
".#	c #494731",
"+#	c #0A1505",
"@#	c #23301C",
"##	c #313A29",
"$#	c #514A33",
"%#	c #38422E",
"&#	c #0B1707",
"*#	c #1F2E1A",
"=#	c #303928",
"-#	c #4D4832",
";#	c #39422E",
">#	c #111E0D",
",#	c #061704",
"'#	c #202E1B",
")#	c #293123",
"!#	c #3B432F",
"~#	c #37412E",
"{#	c #1B2416",
"]#	c #041103",
"^#	c #26321F",
"/#	c #222A1E",
"(#	c #37422E",
"_#	c #1F2B1A",
":#	c #27150A",
"<#	c #563428",
"[#	c #2C1A13",
"}#	c #292F21",
"|#	c #2B3224",
"1#	c #2D3425",
"2#	c #313B29",
"3#	c #23291B",
"4#	c #290702",
"5#	c #2F150F",
"6#	c #5E3127",
"7#	c #5A2E26",
"8#	c #522820",
"9#	c #4A241D",
"0#	c #280A06",
"a#	c #210905",
"b#	c #301510",
"c#	c #54281F",
"d#	c #2D0903",
"e#	c #300903",
"f#	c #270601",
"g#	c #240501",
"h#	c #532920",
"i#	c #45221B",
"j#	c #38150F",
"k#	c #3A1812",
"l#	c #613026",
"m#	c #5E2F26",
"n#	c #572D25",
"o#	c #360D07",
"p#	c #290602",
"q#	c #5B2D24",
"r#	c #5A2D24",
"s#	c #4E2921",
"t#	c #5F2F25",
"u#	c #310A03",
"v#	c #15112A",
"w#	c #0B112C",
"x#	c #14112A",
"y#	c #1B0502",
"z#	c #42201A",
"A#	c #512B23",
"B#	c #4E2A22",
"C#	c #4C261F",
"D#	c #4C2922",
"E#	c #6A3A31",
"F#	c #5B2E24",
"G#	c #2D0803",
"H#	c #391B15",
"I#	c #713D34",
"J#	c #6F3D33",
"K#	c #713E34",
"L#	c #66352A",
"M#	c #33110B",
"N#	c #1D1128",
"O#	c #181129",
"P#	c #171129",
"Q#	c #4F271F",
"R#	c #713E33",
"S#	c #471D16",
"T#	c #2E101F",
"U#	c #12112B",
"V#	c #231026",
"W#	c #320903",
"X#	c #4D2119",
"Y#	c #633227",
"Z#	c #6C3A2F",
"`#	c #6E3B30",
" $	c #6D3A30",
".$	c #6C392F",
"+$	c #633228",
"@$	c #50241B",
"#$	c #261024",
"$$	c #271024",
"%$	c #350F1A",
"&$	c #3F120B",
"*$	c #4A2018",
"=$	c #47221B",
"-$	c #4F281F",
";$	c #582C23",
">$	c #542A21",
",$	c #4D251D",
"'$	c #5B2B22",
")$	c #57281F",
"!$	c #4E231B",
"~$	c #17112A",
"{$	c #251025",
"]$	c #390F15",
"^$	c #3A0F14",
"/$	c #2A0501",
"($	c #290501",
"_$	c #2C0A06",
":$	c #37110A",
"<$	c #36120C",
"[$	c #2F0702",
"}$	c #2E0803",
"|$	c #2A0A05",
"1$	c #2C100B",
"2$	c #32150F",
"3$	c #10112B",
"4$	c #3F0E0C",
"5$	c #3D0E0F",
"6$	c #410E07",
"7$	c #400E09",
"8$	c #3D0F10",
"                                                                                                                                ",
"                                                                                                                                ",
"                                                      . + @ # $ % & * =                                                         ",
"                                                      - ; > , ' ) ! ~ { ]                                                       ",
"                                                      ^ / ( _ : < [ [ [ } | 1                                                   ",
"                                                      2 3 4 5 6 7 [ [ [ [ 8 9                                                   ",
"                                                      0 a b c d e ! [ [ [ [ f                                                   ",
"                                                      g h i i i j k [ [ [ [ l                                                   ",
"                                                      m h n o i p / q r s [ t                                                   ",
"                                                      u v w x y z A B C D [ E                                                   ",
"                                                      F G H I J K L M N O P Q                                                   ",
"                                                      R S T U V W X Y Z `  .                                                    ",
"                                                      ..+.p @.#.$.%.&.*.=.-.                                                    ",
"                                                        ;.>.i i ,.'.).!.~.{.                                                    ",
"                                                        ].^./.(._.:.<.[.}.                                                      ",
"                                                      |.1.2.3.4.5.6.7.8.9.0.                                                    ",
"                                                        a.b.c.d.e.7.7.f.g.h.i.                                                  ",
"                                                        j.k.l.7.7.7.7.m.n.o.p.                                                  ",
"                                                        q.r.s.t.6.7.7.7.u.v.w.x.                                                ",
"                                                        y.z.A.B.C.D.7.7.E.F.G.H.                                                ",
"                                                      I.J.K.L.M.N.l.O.P.C.Q.R.S.                                                ",
"                                                      I.T.U.V.W.X.Y.s.Z.`. +R..+                                                ",
"                                                        ++U.@+#+$+%+&+*+=+-+$+;+>+                                              ",
"                                                      I.,+@+U.'+)+!+~+{+]+^+$+/+(+                                              ",
"                                                      I._+:+U.U.<+[+}+U.|+-+1+2+                                                ",
"                                                      I.3+4+{+U.5+[+6+U.|+7+8+9+                                                ",
"                                                      I.0+a+b+c+#+d+e+@+f+g+h+                                                  ",
"                                                      I.i+m.j+k+$+l+m+U.n+o+p+                                                  ",
"                                                      I.q+r+f.s+$+t+u+U.v+w+x+                                                  ",
"                                                      I.y+z+A+B+$+C+D+U.E+F+                                                    ",
"                                                      I.G+H+I+J+K+L+M+N+O+P+                                                    ",
"                                                      I.Q+$+R+S+T+U+V+E+W+X+                                                    ",
"                                                      I.Y+$+$+$+Z+`+@+ @.@+@                                                    ",
"                                                      I.@@$+G.#@$@{+%@&@$+*@=@                                                  ",
"                                                        -@$+;@>@$+,@'@W.$+*@)@                                                  ",
"                                                        !@~@{@]@^@/@(@$+$+_@:@                                                  ",
"                                                        <@[@}@|@1@2@$+$+$+$+3@                                                  ",
"                                                        ].4@i 5@6@7@G.8@9@0@a@                                                  ",
"                                                        ].b@c@d@e@f@g@h@i@j@k@                                                  ",
"                                                        ].l@m@n@o@p@q@h@h@r@                                                    ",
"                                                          s@t@<.l.p@u@h@h@v@                                                    ",
"                                                          w@x@y@l.p@z@h@h@A@                                                    ",
"                                                          B@C@A+C.D@E@h@F@G@                                                    ",
"                                                          H@I@J@K@L@M@h@N@O@I.                                                  ",
"                                                          I.P@Q@R@S@h@h@T@U@                                                    ",
"                                                          I.V@s@W@X@h@h@S@Y@                                                    ",
"                                                          I.Z@`@ #.#h@h@S@+#                                                    ",
"                                                          I.@#S@##$#%#h@`@&#                                                    ",
"                                                          I.*#h@=#-#;#h@s@>#,#                                                  ",
"                                                          I.'#h@)#!#~#h@h@{#]#                                                  ",
"                                                            ^#x@/#(#h@h@h@_#]#                                                  ",
"                                                            :#<#[#}#|#1#2#3#                                                    ",
"                                                            4#l.5#6#7#8#9#0#                                                    ",
"                                                            a#l.b#n.m.C.c#                                                      ",
"                                                    d#e#f#g#h#l.i#[.m.l.j#                                                      ",
"                                                    k#l#l.y@l.m#n#7.m.l#o#                                                      ",
"                                                  p#q#y@y@l.r#s#d.7.m.t#u#v#                                                    ",
"                                              w#x#y#z#A#B#C#D#E#7.m.m.F#G#x#w#                                                  ",
"                                            w#w#w#H#m.7.I#J#K#7.7.7.7.L#M#N#w#w#                                                ",
"                                          w#w#O#P#Q#R#7.7.7.7.7.7.7.f.C.S#T#x#w#w#                                              ",
"                                          w#U#V#W#X#Y#Z#`#`# $.$+$l.l.l#@$#$w#w#w#                                              ",
"                                          w#w#$$%$&$*$=$-$;$l.>$,$;$'$)$!$~$w#w#w#                                              ",
"                                            w#w#{$]$^$/$($_$:$<$[$}$|$1$2$3$w#w#                                                ",
"                                                      4$5$4$6$7$8$                                                              "};
