/* XPM */
static char * haruspex_left2_xpm[] = {
"64 64 482 2",
"  	c None",
". 	c #210402",
"+ 	c #4C3828",
"@ 	c #6D563F",
"# 	c #5D4C3C",
"$ 	c #3C2B25",
"% 	c #321713",
"& 	c #2E130E",
"* 	c #2B0702",
"= 	c #2A0602",
"- 	c #280702",
"; 	c #594938",
"> 	c #897153",
", 	c #8A7153",
"' 	c #826B51",
") 	c #5B5047",
"! 	c #5A4F46",
"~ 	c #51473F",
"{ 	c #38302A",
"] 	c #31140E",
"^ 	c #2D0904",
"/ 	c #564C43",
"( 	c #6F5E4B",
"_ 	c #897053",
": 	c #836C51",
"< 	c #5C5147",
"[ 	c #594F46",
"} 	c #534941",
"| 	c #3D1E18",
"1 	c #1B0403",
"2 	c #2B0803",
"3 	c #3D342D",
"4 	c #3C352F",
"5 	c #3B332E",
"6 	c #604E37",
"7 	c #5A4E42",
"8 	c #554940",
"9 	c #391E19",
"0 	c #2E100A",
"a 	c #AF9F8F",
"b 	c #C7B7A3",
"c 	c #C7B7A4",
"d 	c #BAAA99",
"e 	c #302B26",
"f 	c #381F19",
"g 	c #321712",
"h 	c #BCAB99",
"i 	c #CBBAA7",
"j 	c #B4A493",
"k 	c #564C44",
"l 	c #3F2C25",
"m 	c #331712",
"n 	c #B6A695",
"o 	c #AEA090",
"p 	c #CAB9A6",
"q 	c #494139",
"r 	c #443C36",
"s 	c #564D44",
"t 	c #3A2822",
"u 	c #31211C",
"v 	c #BFAE9C",
"w 	c #3A352F",
"x 	c #5B544B",
"y 	c #A29485",
"z 	c #C8B8A4",
"A 	c #524840",
"B 	c #BCAC9C",
"C 	c #867B6F",
"D 	c #453D36",
"E 	c #1E1B17",
"F 	c #7A6054",
"G 	c #A58776",
"H 	c #938678",
"I 	c #C7B19E",
"J 	c #BDA28F",
"K 	c #C5B19E",
"L 	c #84786B",
"M 	c #C5B6A4",
"N 	c #9E9284",
"O 	c #544B42",
"P 	c #40362F",
"Q 	c #010101",
"R 	c #A88371",
"S 	c #BEA28F",
"T 	c #C8B6A3",
"U 	c #B48E7B",
"V 	c #B28B78",
"W 	c #C2A996",
"X 	c #B8A997",
"Y 	c #CFBFAD",
"Z 	c #95897B",
"` 	c #52473F",
" .	c #271913",
"..	c #887265",
"+.	c #A79686",
"@.	c #C4AD9A",
"#.	c #C3AC9A",
"$.	c #CAB8A5",
"%.	c #CCBBA8",
"&.	c #97887A",
"*.	c #453B33",
"=.	c #36231C",
"-.	c #311B13",
";.	c #2B2723",
">.	c #C5B5A2",
",.	c #C4B4A1",
"'.	c #948274",
").	c #412820",
"!.	c #48261D",
"~.	c #572921",
"{.	c #381911",
"].	c #000000",
"^.	c #84796C",
"/.	c #C9B8A5",
"(.	c #C2B19E",
"_.	c #7A695C",
":.	c #512E26",
"<.	c #603127",
"[.	c #68362C",
"}.	c #5C2D23",
"|.	c #090403",
"1.	c #49231C",
"2.	c #5E2F25",
"3.	c #4D2F28",
"4.	c #472922",
"5.	c #4E271E",
"6.	c #6F3C32",
"7.	c #723E34",
"8.	c #68372D",
"9.	c #4C271F",
"0.	c #381710",
"a.	c #5C3024",
"b.	c #583022",
"c.	c #65342A",
"d.	c #703D33",
"e.	c #703D32",
"f.	c #69372D",
"g.	c #5F3026",
"h.	c #47241C",
"i.	c #371810",
"j.	c #231F0E",
"k.	c #4C2D1D",
"l.	c #623127",
"m.	c #713D33",
"n.	c #68362D",
"o.	c #5F2F26",
"p.	c #331D14",
"q.	c #0B2008",
"r.	c #4C291F",
"s.	c #603026",
"t.	c #65332A",
"u.	c #6B3A30",
"v.	c #382019",
"w.	c #352F21",
"x.	c #262010",
"y.	c #16280F",
"z.	c #414931",
"A.	c #463224",
"B.	c #5D2E25",
"C.	c #633127",
"D.	c #6A382E",
"E.	c #64342A",
"F.	c #41251C",
"G.	c #435338",
"H.	c #2C281A",
"I.	c #0F2609",
"J.	c #202B17",
"K.	c #4B5237",
"L.	c #3D462F",
"M.	c #41291F",
"N.	c #562C23",
"O.	c #6B382E",
"P.	c #66342A",
"Q.	c #4D281F",
"R.	c #435538",
"S.	c #39462D",
"T.	c #262F1A",
"U.	c #585237",
"V.	c #505237",
"W.	c #414F35",
"X.	c #3D2F22",
"Y.	c #5A2E24",
"Z.	c #592D24",
"`.	c #4C2920",
" +	c #3E241B",
".+	c #38482D",
"++	c #2A311B",
"@+	c #575237",
"#+	c #4D5338",
"$+	c #435438",
"%+	c #3A281D",
"&+	c #3F221A",
"*+	c #393625",
"=+	c #3D4730",
"-+	c #3A3C2A",
";+	c #39482E",
">+	c #271C0E",
",+	c #142210",
"'+	c #435337",
")+	c #4F5338",
"!+	c #535238",
"~+	c #383625",
"{+	c #475137",
"]+	c #555337",
"^+	c #383725",
"/+	c #3D4E33",
"(+	c #252815",
"_+	c #2C1B15",
":+	c #302C1F",
"<+	c #2D3725",
"[+	c #444C33",
"}+	c #393B29",
"|+	c #445136",
"1+	c #525337",
"2+	c #383826",
"3+	c #35462D",
"4+	c #4B2F23",
"5+	c #512821",
"6+	c #2C2E1F",
"7+	c #3B402B",
"8+	c #445035",
"9+	c #535337",
"0+	c #363423",
"a+	c #314128",
"b+	c #4B3023",
"c+	c #754137",
"d+	c #312D1E",
"e+	c #3B412C",
"f+	c #4F4A32",
"g+	c #505338",
"h+	c #2E2F1C",
"i+	c #252211",
"j+	c #292013",
"k+	c #66352C",
"l+	c #5C2E25",
"m+	c #282D1E",
"n+	c #383927",
"o+	c #50442F",
"p+	c #4E5338",
"q+	c #2C2D1B",
"r+	c #23321C",
"s+	c #373B27",
"t+	c #372219",
"u+	c #2D3825",
"v+	c #425036",
"w+	c #352E21",
"x+	c #524F35",
"y+	c #595237",
"z+	c #424F34",
"A+	c #2A2314",
"B+	c #213019",
"C+	c #405136",
"D+	c #425337",
"E+	c #3C402B",
"F+	c #3B3F2A",
"G+	c #565237",
"H+	c #3E442F",
"I+	c #2F2B1C",
"J+	c #1C2D16",
"K+	c #3B3D29",
"L+	c #4B5036",
"M+	c #424B32",
"N+	c #3C422C",
"O+	c #3B472E",
"P+	c #172A12",
"Q+	c #3E4730",
"R+	c #404D33",
"S+	c #4F5137",
"T+	c #3C422D",
"U+	c #3F5034",
"V+	c #23200F",
"W+	c #1F2F18",
"X+	c #3E4630",
"Y+	c #353021",
"Z+	c #445438",
"`+	c #3B3D2A",
" @	c #262112",
".@	c #32412A",
"+@	c #36452D",
"@@	c #575046",
"#@	c #72675A",
"$@	c #3D4B31",
"%@	c #3E462F",
"&@	c #3D442E",
"*@	c #415236",
"=@	c #252816",
"-@	c #0B1208",
";@	c #514A42",
">@	c #C6B5A2",
",@	c #C5B4A2",
"'@	c #8F7F71",
")@	c #2B3723",
"!@	c #29311C",
"~@	c #BCAD9B",
"{@	c #CCBBA7",
"]@	c #908477",
"^@	c #293823",
"/@	c #3D452E",
"(@	c #3F4830",
"_@	c #415035",
":@	c #252412",
"<@	c #A99B8B",
"[@	c #CBBBA7",
"}@	c #C7B6A3",
"|@	c #65564D",
"1@	c #4D261D",
"2@	c #303827",
"3@	c #36412E",
"4@	c #363E2C",
"5@	c #2C3524",
"6@	c #071504",
"7@	c #48473B",
"8@	c #B5A695",
"9@	c #8B7164",
"0@	c #602E25",
"a@	c #4E261E",
"b@	c #2B3324",
"c@	c #2A3324",
"d@	c #343E2C",
"e@	c #1D2A1B",
"f@	c #293122",
"g@	c #1C2317",
"h@	c #35402D",
"i@	c #35412E",
"j@	c #613127",
"k@	c #283022",
"l@	c #1B2216",
"m@	c #273021",
"n@	c #34412D",
"o@	c #4E251D",
"p@	c #242B1E",
"q@	c #353F2D",
"r@	c #131C0F",
"s@	c #152110",
"t@	c #313D2A",
"u@	c #120E09",
"v@	c #2C1511",
"w@	c #16170F",
"x@	c #333D2B",
"y@	c #333E2C",
"z@	c #10190C",
"A@	c #2E3A27",
"B@	c #303A29",
"C@	c #2D3626",
"D@	c #313B2A",
"E@	c #323D2B",
"F@	c #0E180B",
"G@	c #2B3824",
"H@	c #4B4530",
"I@	c #434530",
"J@	c #091305",
"K@	c #283420",
"L@	c #323C2A",
"M@	c #3A3F2C",
"N@	c #494731",
"O@	c #0A1505",
"P@	c #23301C",
"Q@	c #313A29",
"R@	c #514A33",
"S@	c #38422E",
"T@	c #0B1707",
"U@	c #1F2E1A",
"V@	c #303928",
"W@	c #4D4832",
"X@	c #39422E",
"Y@	c #111E0D",
"Z@	c #061704",
"`@	c #202E1B",
" #	c #293123",
".#	c #3B432F",
"+#	c #37412E",
"@#	c #1B2416",
"##	c #041103",
"$#	c #26321F",
"%#	c #222A1E",
"&#	c #37422E",
"*#	c #1F2B1A",
"=#	c #27150A",
"-#	c #563428",
";#	c #2C1A13",
">#	c #292F21",
",#	c #2B3224",
"'#	c #2D3425",
")#	c #313B29",
"!#	c #23291B",
"~#	c #290702",
"{#	c #2F150F",
"]#	c #5E3127",
"^#	c #5A2E26",
"/#	c #522820",
"(#	c #4A241D",
"_#	c #280A06",
":#	c #210905",
"<#	c #301510",
"[#	c #54281F",
"}#	c #2D0903",
"|#	c #300903",
"1#	c #270601",
"2#	c #240501",
"3#	c #532920",
"4#	c #45221B",
"5#	c #38150F",
"6#	c #3A1812",
"7#	c #613026",
"8#	c #5E2F26",
"9#	c #572D25",
"0#	c #360D07",
"a#	c #290602",
"b#	c #5B2D24",
"c#	c #5A2D24",
"d#	c #4E2921",
"e#	c #5F2F25",
"f#	c #310A03",
"g#	c #15112A",
"h#	c #0B112C",
"i#	c #14112A",
"j#	c #1B0502",
"k#	c #42201A",
"l#	c #512B23",
"m#	c #4E2A22",
"n#	c #4C261F",
"o#	c #4C2922",
"p#	c #6A3A31",
"q#	c #5B2E24",
"r#	c #2D0803",
"s#	c #391B15",
"t#	c #713D34",
"u#	c #6F3D33",
"v#	c #713E34",
"w#	c #66352A",
"x#	c #33110B",
"y#	c #1D1128",
"z#	c #181129",
"A#	c #171129",
"B#	c #4F271F",
"C#	c #713E33",
"D#	c #471D16",
"E#	c #2E101F",
"F#	c #12112B",
"G#	c #231026",
"H#	c #320903",
"I#	c #4D2119",
"J#	c #633227",
"K#	c #6C3A2F",
"L#	c #6E3B30",
"M#	c #6D3A30",
"N#	c #6C392F",
"O#	c #633228",
"P#	c #50241B",
"Q#	c #261024",
"R#	c #271024",
"S#	c #350F1A",
"T#	c #3F120B",
"U#	c #4A2018",
"V#	c #47221B",
"W#	c #4F281F",
"X#	c #582C23",
"Y#	c #542A21",
"Z#	c #4D251D",
"`#	c #5B2B22",
" $	c #57281F",
".$	c #4E231B",
"+$	c #17112A",
"@$	c #251025",
"#$	c #390F15",
"$$	c #3A0F14",
"%$	c #2A0501",
"&$	c #290501",
"*$	c #2C0A06",
"=$	c #37110A",
"-$	c #36120C",
";$	c #2F0702",
">$	c #2E0803",
",$	c #2A0A05",
"'$	c #2C100B",
")$	c #32150F",
"!$	c #10112B",
"~$	c #3F0E0C",
"{$	c #3D0E0F",
"]$	c #410E07",
"^$	c #400E09",
"/$	c #3D0F10",
"                                                                                                                                ",
"                                                                                                                                ",
"                                                                                                                                ",
"                                                                                                                                ",
"                                                      . + @ # $ % & * =                                                         ",
"                                                      - ; > , ' ) ! ~ { ]                                                       ",
"                                                      ^ / ( _ : < [ [ [ } | 1                                                   ",
"                                                      2 3 4 5 6 7 [ [ [ [ 8 9                                                   ",
"                                                      0 a b c d e ! [ [ [ [ f                                                   ",
"                                                      g h i i i j k [ [ [ [ l                                                   ",
"                                                      m h n o i p / q r s [ t                                                   ",
"                                                      u v w x y z A B C D [ E                                                   ",
"                                                      F G H I J K L M N O P Q                                                   ",
"                                                      R S T U V W X Y Z `  .                                                    ",
"                                                      ..+.p @.#.$.%.&.*.=.-.                                                    ",
"                                                        ;.>.i i ,.'.).!.~.{.                                                    ",
"                                                        ].^./.(._.:.<.[.}.                                                      ",
"                                                      |.1.2.3.4.5.6.7.8.9.0.                                                    ",
"                                                        a.b.c.d.e.7.7.f.g.h.i.                                                  ",
"                                                        j.k.l.7.7.7.7.m.n.o.p.                                                  ",
"                                                        q.r.s.t.6.7.7.7.u.v.w.x.                                                ",
"                                                        y.z.A.B.C.D.7.7.E.F.G.H.                                                ",
"                                                      I.J.K.L.M.N.l.O.P.C.Q.R.S.                                                ",
"                                                      I.T.U.V.W.X.Y.s.Z.`. +R..+                                                ",
"                                                        ++U.@+#+$+%+&+*+=+-+$+;+>+                                              ",
"                                                      I.,+'+)+U.!+~+{+U.]+^+/+(+                                                ",
"                                                      I._+:+<+[+#+}+|+@+1+2+3+                                                  ",
"                                                      I.4+m.5+6+$+7+8+U.9+0+a+                                                  ",
"                                                      I.b+c+f.d+$+e+f+U.g+h+i+                                                  ",
"                                                      I.j+k+l+m+$+n+o+U.p+q+                                                    ",
"                                                      I.r+s+t+u+v+w+x+y+z+A+                                                    ",
"                                                      I.B+$+C+D+E+F+G+p+H+I+                                                    ",
"                                                      I.J+$+$+$+K+L+@+M+N+O+                                                    ",
"                                                      I.P+$+G.Q+R+)+S+T+$+U+V+                                                  ",
"                                                        W+$+X+Y+$+Z+`+W.$+U+ @                                                  ",
"                                                        .@+@@@#@$@%@&@$+$+*@=@                                                  ",
"                                                        -@;@>@,@'@)@$+$+$+$+!@                                                  ",
"                                                        ].~@i {@]@^@G./@(@_@:@                                                  ",
"                                                        ].<@[@}@|@1@2@3@4@5@6@                                                  ",
"                                                        ].7@8@9@0@a@b@3@3@c@                                                    ",
"                                                          d@e@<.l.a@f@3@3@g@                                                    ",
"                                                          h@i@j@l.a@k@3@3@l@                                                    ",
"                                                          m@n@l+C.o@p@3@q@r@                                                    ",
"                                                          s@t@u@v@w@x@3@y@z@I.                                                  ",
"                                                          I.A@B@C@D@3@3@E@F@                                                    ",
"                                                          I.G@d@H@I@3@3@D@J@                                                    ",
"                                                          I.K@L@M@N@3@3@D@O@                                                    ",
"                                                          I.P@D@Q@R@S@3@L@T@                                                    ",
"                                                          I.U@3@V@W@X@3@d@Y@Z@                                                  ",
"                                                          I.`@3@ #.#+#3@3@@###                                                  ",
"                                                            $#i@%#&#3@3@3@*###                                                  ",
"                                                            =#-#;#>#,#'#)#!#                                                    ",
"                                                            ~#l.{#]#^#/#(#_#                                                    ",
"                                                            :#l.<#n.m.C.[#                                                      ",
"                                                    }#|#1#2#3#l.4#[.m.l.5#                                                      ",
"                                                    6#7#l.j@l.8#9#7.m.7#0#                                                      ",
"                                                  a#b#j@j@l.c#d#d.7.m.e#f#g#                                                    ",
"                                              h#i#j#k#l#m#n#o#p#7.m.m.q#r#i#h#                                                  ",
"                                            h#h#h#s#m.7.t#u#v#7.7.7.7.w#x#y#h#h#                                                ",
"                                          h#h#z#A#B#C#7.7.7.7.7.7.7.f.C.D#E#i#h#h#                                              ",
"                                          h#F#G#H#I#J#K#L#L#M#N#O#l.l.7#P#Q#h#h#h#                                              ",
"                                          h#h#R#S#T#U#V#W#X#l.Y#Z#X#`# $.$+$h#h#h#                                              ",
"                                            h#h#@$#$$$%$&$*$=$-$;$>$,$'$)$!$h#h#                                                ",
"                                                      ~${$~$]$^$/$                                                              "};
