/* XPM */
static char * haruspex_back_xpm[] = {
"64 64 602 2",
"  	c None",
". 	c #371913",
"+ 	c #37120A",
"@ 	c #2D1512",
"# 	c #2E1813",
"$ 	c #321913",
"% 	c #341E18",
"& 	c #412B21",
"* 	c #442A1F",
"= 	c #30140E",
"- 	c #381A13",
"; 	c #442F28",
"> 	c #544A40",
", 	c #594E42",
"' 	c #5D5043",
") 	c #635445",
"! 	c #79654C",
"~ 	c #806B50",
"{ 	c #705F4C",
"] 	c #36211C",
"^ 	c #45342E",
"/ 	c #5C5147",
"( 	c #7A664E",
"_ 	c #74614B",
": 	c #76624C",
"< 	c #7B674E",
"[ 	c #79654E",
"} 	c #74614D",
"| 	c #685A4A",
"1 	c #392721",
"2 	c #321712",
"3 	c #50473F",
"4 	c #5E5247",
"5 	c #6D5D4B",
"6 	c #6B5B4A",
"7 	c #6D5C4B",
"8 	c #685949",
"9 	c #635649",
"0 	c #5F5347",
"a 	c #5D5247",
"b 	c #382E29",
"c 	c #311913",
"d 	c #574D44",
"e 	c #5B5147",
"f 	c #615448",
"g 	c #635648",
"h 	c #645649",
"i 	c #5B5046",
"j 	c #5A4F46",
"k 	c #594F46",
"l 	c #443933",
"m 	c #2F1A15",
"n 	c #584E45",
"o 	c #5B5146",
"p 	c #4A413A",
"q 	c #504840",
"r 	c #A29284",
"s 	c #463932",
"t 	c #655B50",
"u 	c #BDAE9C",
"v 	c #B5A695",
"w 	c #AEA090",
"x 	c #514840",
"y 	c #4F4740",
"z 	c #A39686",
"A 	c #453F39",
"B 	c #382C26",
"C 	c #4E3F38",
"D 	c #4F453D",
"E 	c #1E0B08",
"F 	c #3D2822",
"G 	c #584D45",
"H 	c #3E3630",
"I 	c #351A14",
"J 	c #4C3E36",
"K 	c #564C44",
"L 	c #321C18",
"M 	c #32140F",
"N 	c #281A16",
"O 	c #27201C",
"P 	c #2A221E",
"Q 	c #382620",
"R 	c #3B2620",
"S 	c #3A241F",
"T 	c #3A130C",
"U 	c #340902",
"V 	c #311009",
"W 	c #572E26",
"X 	c #61332B",
"Y 	c #66372D",
"Z 	c #6B392F",
"` 	c #6D3A30",
" .	c #69382E",
"..	c #3F1D16",
"+.	c #39120D",
"@.	c #3C170F",
"#.	c #331510",
"$.	c #592F27",
"%.	c #6F3C32",
"&.	c #723E34",
"*.	c #703C32",
"=.	c #381712",
"-.	c #411B14",
";.	c #5B2E25",
">.	c #66352C",
",.	c #6D3B31",
"'.	c #733F34",
").	c #68362C",
"!.	c #6F3B31",
"~.	c #68372D",
"{.	c #64362D",
"].	c #69372D",
"^.	c #66352B",
"/.	c #35120C",
"(.	c #301E0C",
"_.	c #5F2F25",
":.	c #6C392F",
"<.	c #6A382F",
"[.	c #63342A",
"}.	c #5B2D24",
"|.	c #613127",
"1.	c #623127",
"2.	c #603026",
"3.	c #5F2F26",
"4.	c #5E2F25",
"5.	c #66342B",
"6.	c #6E3B31",
"7.	c #703D33",
"8.	c #5B2C23",
"9.	c #003201",
"0.	c #1F3609",
"a.	c #4C2E23",
"b.	c #312A1E",
"c.	c #333423",
"d.	c #353B28",
"e.	c #343624",
"f.	c #45241C",
"g.	c #3B2019",
"h.	c #382018",
"i.	c #322F21",
"j.	c #333122",
"k.	c #323122",
"l.	c #271911",
"m.	c #271E16",
"n.	c #272218",
"o.	c #502E24",
"p.	c #603227",
"q.	c #633429",
"r.	c #5F3327",
"s.	c #3C2C20",
"t.	c #28150D",
"u.	c #013F01",
"v.	c #2F4127",
"w.	c #435036",
"x.	c #4A5237",
"y.	c #485237",
"z.	c #4D5237",
"A.	c #3F4A33",
"B.	c #3D4931",
"C.	c #445036",
"D.	c #485137",
"E.	c #495137",
"F.	c #465237",
"G.	c #455338",
"H.	c #454F36",
"I.	c #4E5238",
"J.	c #4E5337",
"K.	c #4F5237",
"L.	c #4E5137",
"M.	c #4D5238",
"N.	c #435237",
"O.	c #465238",
"P.	c #2A3222",
"Q.	c #063C05",
"R.	c #425237",
"S.	c #515137",
"T.	c #545237",
"U.	c #555237",
"V.	c #525237",
"W.	c #515237",
"X.	c #525137",
"Y.	c #535237",
"Z.	c #565237",
"`.	c #535137",
" +	c #545137",
".+	c #545036",
"++	c #3F4931",
"@+	c #22441C",
"#+	c #505237",
"$+	c #4D5338",
"%+	c #4A5338",
"&+	c #495338",
"*+	c #485338",
"=+	c #545136",
"-+	c #534E35",
";+	c #3A3725",
">+	c #043803",
",+	c #314B28",
"'+	c #4E5237",
")+	c #475238",
"!+	c #435338",
"~+	c #3E4D34",
"{+	c #425338",
"]+	c #465338",
"^+	c #2E3B28",
"/+	c #505137",
"(+	c #524F35",
"_+	c #4C4831",
":+	c #0B3C08",
"<+	c #3D5234",
"[+	c #455237",
"}+	c #475237",
"|+	c #384730",
"1+	c #2D3926",
"2+	c #445338",
"3+	c #3A4D30",
"4+	c #263620",
"5+	c #445234",
"6+	c #535136",
"7+	c #4C5036",
"8+	c #2F3625",
"9+	c #0F350D",
"0+	c #435337",
"a+	c #415136",
"b+	c #1D3019",
"c+	c #303C28",
"d+	c #304729",
"e+	c #093808",
"f+	c #354F2D",
"g+	c #4D5136",
"h+	c #525136",
"i+	c #37412A",
"j+	c #143810",
"k+	c #3E5334",
"l+	c #36472D",
"m+	c #063404",
"n+	c #293C22",
"o+	c #23321E",
"p+	c #013C01",
"q+	c #2F4929",
"r+	c #4C5237",
"s+	c #3F4D33",
"t+	c #002B00",
"u+	c #20421B",
"v+	c #22321D",
"w+	c #253D1F",
"x+	c #475338",
"y+	c #4B5338",
"z+	c #405036",
"A+	c #1A2215",
"B+	c #183113",
"C+	c #405335",
"D+	c #425136",
"E+	c #002901",
"F+	c #284B21",
"G+	c #10240E",
"H+	c #1B2C16",
"I+	c #3F5036",
"J+	c #172312",
"K+	c #052804",
"L+	c #33482A",
"M+	c #435238",
"N+	c #10310E",
"O+	c #324D29",
"P+	c #303D29",
"Q+	c #003100",
"R+	c #081C06",
"S+	c #415237",
"T+	c #4B5238",
"U+	c #133110",
"V+	c #243D1D",
"W+	c #2B4324",
"X+	c #005100",
"Y+	c #3A4E31",
"Z+	c #293822",
"`+	c #013001",
" @	c #0C1F0A",
".@	c #3C4B32",
"+@	c #153711",
"@@	c #112B0F",
"#@	c #3D5235",
"$@	c #304629",
"%@	c #024101",
"&@	c #3C4E33",
"*@	c #3F4F35",
"=@	c #163012",
"-@	c #162711",
";@	c #4A5238",
">@	c #4C5338",
",@	c #3E4E34",
"'@	c #0C360A",
")@	c #002E00",
"!@	c #364B2D",
"~@	c #34462B",
"{@	c #033B02",
"]@	c #034202",
"^@	c #3D4E34",
"/@	c #0A3207",
"(@	c #152A11",
"_@	c #495238",
":@	c #3C4D33",
"<@	c #073106",
"[@	c #35452D",
"}@	c #36482D",
"|@	c #043802",
"1@	c #3E4E35",
"2@	c #3B5033",
"3@	c #153511",
"4@	c #0C2F09",
"5@	c #173812",
"6@	c #394E30",
"7@	c #394830",
"8@	c #043C03",
"9@	c #063E04",
"0@	c #3E4F35",
"a@	c #384F30",
"b@	c #173312",
"c@	c #22311C",
"d@	c #425238",
"e@	c #3D5333",
"f@	c #193D14",
"g@	c #2D4426",
"h@	c #38462F",
"i@	c #043503",
"j@	c #1C2D0D",
"k@	c #2B4425",
"l@	c #043203",
"m@	c #37472E",
"n@	c #405336",
"o@	c #203C1B",
"p@	c #003800",
"q@	c #1F291A",
"r@	c #2E3F28",
"s@	c #263421",
"t@	c #261E14",
"u@	c #3C4632",
"v@	c #514F43",
"w@	c #746D5D",
"x@	c #071906",
"y@	c #063306",
"z@	c #2E3E28",
"A@	c #003B00",
"B@	c #73675B",
"C@	c #B3A493",
"D@	c #988C7E",
"E@	c #A19485",
"F@	c #CAB9A6",
"G@	c #B0A290",
"H@	c #4E443A",
"I@	c #0A3308",
"J@	c #394B30",
"K@	c #003000",
"L@	c #73655A",
"M@	c #B1A190",
"N@	c #CBBAA7",
"O@	c #A59688",
"P@	c #290C06",
"Q@	c #BDAD9B",
"R@	c #B9A997",
"S@	c #5E5246",
"T@	c #0D2D0A",
"U@	c #435439",
"V@	c #002C00",
"W@	c #6F6156",
"X@	c #C1B09E",
"Y@	c #A09182",
"Z@	c #320C06",
"`@	c #420E04",
" #	c #9E8E7F",
".#	c #C9B8A5",
"+#	c #C7B6A3",
"@#	c #65584A",
"##	c #1A3616",
"$#	c #435438",
"%#	c #200301",
"&#	c #A79788",
"*#	c #8F8173",
"=#	c #350A02",
"-#	c #544139",
";#	c #CBBAA6",
">#	c #C4B3A1",
",#	c #726156",
"'#	c #11310F",
")#	c #3D4D34",
"!#	c #32442A",
"~#	c #002D00",
"{#	c #68574E",
"]#	c #AF9E8E",
"^#	c #472A23",
"/#	c #645B51",
"(#	c #8A796A",
"_#	c #887669",
":#	c #504139",
"<#	c #022A02",
"[#	c #192015",
"}#	c #1F271B",
"|#	c #293423",
"1#	c #1C2318",
"2#	c #2C3825",
"3#	c #3B4E33",
"4#	c #3C4F33",
"5#	c #415238",
"6#	c #323E2A",
"7#	c #252D20",
"8#	c #1C2218",
"9#	c #0D300B",
"0#	c #30110B",
"a#	c #36251F",
"b#	c #053204",
"c#	c #33442C",
"d#	c #323D2B",
"e#	c #2E3727",
"f#	c #283022",
"g#	c #232A1D",
"h#	c #001700",
"i#	c #083206",
"j#	c #2F3E29",
"k#	c #323D2A",
"l#	c #343F2D",
"m#	c #36412E",
"n#	c #283122",
"o#	c #342616",
"p#	c #141A10",
"q#	c #053703",
"r#	c #32412B",
"s#	c #2A3224",
"t#	c #013401",
"u#	c #293C23",
"v#	c #22291D",
"w#	c #42231B",
"x#	c #131610",
"y#	c #023402",
"z#	c #2C3826",
"A#	c #193016",
"B#	c #023B00",
"C#	c #25361F",
"D#	c #1F261A",
"E#	c #502820",
"F#	c #613027",
"G#	c #022D02",
"H#	c #2B3624",
"I#	c #12300E",
"J#	c #1D3719",
"K#	c #3D2019",
"L#	c #043103",
"M#	c #0A3408",
"N#	c #1B3617",
"O#	c #252C20",
"P#	c #12160F",
"Q#	c #062B04",
"R#	c #353F2D",
"S#	c #303A29",
"T#	c #063604",
"U#	c #163E11",
"V#	c #272F21",
"W#	c #35402D",
"X#	c #2D3826",
"Y#	c #033902",
"Z#	c #0F3B0D",
"`#	c #343E2C",
" $	c #0A2707",
".$	c #062B05",
"+$	c #283D21",
"@$	c #093A06",
"#$	c #122C10",
"$$	c #0D280A",
"%$	c #1F3B1A",
"&$	c #0D390A",
"*$	c #333F2B",
"=$	c #12330E",
"-$	c #10290D",
";$	c #37422E",
">$	c #35422D",
",$	c #163312",
"'$	c #10370E",
")$	c #314029",
"!$	c #153212",
"~$	c #0D280C",
"{$	c #0F380E",
"]$	c #304029",
"^$	c #33432B",
"/$	c #183414",
"($	c #202E1A",
"_$	c #36422E",
":$	c #0C350A",
"<$	c #2D4026",
"[$	c #31432A",
"}$	c #143611",
"|$	c #1A2814",
"1$	c #323B2A",
"2$	c #313829",
"3$	c #2A3321",
"4$	c #1A2E09",
"5$	c #1F2C13",
"6$	c #1A2C12",
"7$	c #222C0B",
"8$	c #1B2E02",
"9$	c #25160C",
"0$	c #512820",
"a$	c #5B3027",
"b$	c #4C251E",
"c$	c #290E0A",
"d$	c #532920",
"e$	c #5F3229",
"f$	c #472C17",
"g$	c #3B2703",
"h$	c #38150E",
"i$	c #633128",
"j$	c #5F3026",
"k$	c #0F1400",
"l$	c #411504",
"m$	c #6B382E",
"n$	c #713D33",
"o$	c #552B22",
"p$	c #410E07",
"q$	c #370F17",
"r$	c #190401",
"s$	c #270501",
"t$	c #482018",
"u$	c #6B382F",
"v$	c #5C2F25",
"w$	c #270601",
"x$	c #330F08",
"y$	c #68352C",
"z$	c #603228",
"A$	c #1E0F0C",
"B$	c #39140D",
"C$	c #37120B",
"D$	c #2E101F",
"E$	c #30101E",
"F$	c #2E0905",
"G$	c #432018",
"H$	c #4F221A",
"I$	c #5A2D23",
"J$	c #572B22",
"K$	c #3F0E0B",
"L$	c #320E08",
"M$	c #5D2F25",
"N$	c #4A231B",
"O$	c #2E0802",
"P$	c #2F101E",
"Q$	c #231025",
"R$	c #0B112C",
"S$	c #31101C",
"T$	c #330D07",
"U$	c #592A21",
"V$	c #5C2C23",
"W$	c #582C23",
"X$	c #3B0F13",
"Y$	c #370F18",
"Z$	c #2B1021",
"`$	c #340F08",
" %	c #69362C",
".%	c #170403",
"+%	c #351019",
"@%	c #281023",
"#%	c #251024",
"$%	c #350C06",
"%%	c #52251C",
"&%	c #6C3A30",
"*%	c #713E34",
"=%	c #592C23",
"-%	c #3C0F11",
";%	c #37110A",
">%	c #250703",
",%	c #171129",
"'%	c #32101C",
")%	c #491C15",
"!%	c #633228",
"~%	c #572920",
"{%	c #330902",
"]%	c #360F19",
"^%	c #3A130A",
"/%	c #603127",
"(%	c #643329",
"_%	c #49231B",
":%	c #201126",
"<%	c #330F09",
"[%	c #411812",
"}%	c #6A382E",
"|%	c #592A20",
"1%	c #2F0802",
"2%	c #36120D",
"3%	c #4B261F",
"4%	c #64342A",
"5%	c #4B261E",
"6%	c #41211A",
"7%	c #3D1B15",
"8%	c #2D1020",
"9%	c #33100A",
"0%	c #3E1C14",
"a%	c #371813",
"b%	c #421C14",
"c%	c #360F18",
"d%	c #340F1B",
"e%	c #280803",
"f%	c #391B14",
"g%	c #582B22",
"h%	c #221126",
"i%	c #1F1127",
"j%	c #3A0F13",
"k%	c #3A0F14",
"                                                                                                                                ",
"                                                                                                                                ",
"                                                        . + @ # $ % & * =                                                       ",
"                                                      - ; > , ' ) ! ~ { ]                                                       ",
"                                                      ^ / ( _ : < [ } | 1                                                       ",
"                                                    2 3 4 5 6 7 8 9 0 a b                                                       ",
"                                                    c d e f g h 4 i j k l                                                       ",
"                                                    m n k i o k k k k k p q                                                     ",
"                                                  r s n k k k k k k k k t u                                                     ",
"                                                  v w x k k k k k k k k y z                                                     ",
"                                                  A B C k k k k k k k D E                                                       ",
"                                                      F G k k k k k k H                                                         ",
"                                                      I J n k k d d K L                                                         ",
"                                                        M N O P Q R S T                                                         ",
"                                                      U V W X Y Z `  ...                                                        ",
"                                                +.@.#.$.%.&.&.&.&.&.&.*.=.                                                      ",
"                                            -.;.>.,.'.` ).).).Z !.Z ).` ~.{.].^./.                                              ",
"                                          (._.:.<.[.}.|.1.1.2._._.3.4.4.5.6.7.6.8.                                              ",
"                                        9.0.a.b.c.d.e.f.g.h.i.j.k.l.m.n.o.p.q.r.s.t.                                            ",
"                                        u.v.w.x.y.z.A.B.C.D.E.F.G.H.I.J.K.L.M.N.O.P.                                            ",
"                                        Q.R.K.S.T.U.V.W.V.X.U.Y.T.Z.Z.U.`.U.U. +.+++                                            ",
"                                        @+F.V.#+$+%+&+W.V.V.T.Z.Z.Z.Z.U.U.*+&+T.=+-+;+                                          ",
"                                      >+,+F.'+)+!+~+{+]+K.T.Z.Z.Z.T.V.#+]+~+^+V./+(+_+                                          ",
"                                      :+<+[+}+G.|+1+{+!+Y.Y.Y.Z.U.V.W.%+2+3+4+5+6+7+8+                                          ",
"                                      9+0+[+]+a+b+c+{+!+z.V.Y.U.Y.V.Y.*+!+d+e+f+g+h+i+                                          ",
"                                      j+k+!+G.l+m+n+{+G.K.Y.Y.V.Y.V.V.G.R.o+p+q+]+r+s+t+                                        ",
"                                      u+{+!+2+v+  w+{+G.x+V.y+U.U.W.%+G.z+A+  B+C+2+D+E+                                        ",
"                                      F+{+{+z+G+  H+R.G.*+&+z.U.Z.K.&+2+I+J+  K+L+!+M+N+                                        ",
"                                      O+{+{+P+Q+  R+S+2+*+T+K.T.Y.y+x+!+I+U+    V+{+!+W+X+                                      ",
"                                    Q.Y+{+{+Z+`+   @.@!+]+x+V.V.Y.&+x+!+z++@    @@#@{+$@X+                                      ",
"                                    %@&@{+*@=@    -@S+!+G.x+;@Y.>@&+2+{+,@'@    )@!@{+~@{@                                      ",
"                                    ]@^@{+,@/@    (@S+{+2+x+_@%+x+*+!+{+:@<@    Q+[@{+}@|@                                      ",
"                                    u.1@{+2@3@    4@S+{+!+G.]+G.!+]+{+{+<+5@    )@6@{+7@8@                                      ",
"                                    9@0@{+a@b@    c@d@{+{+G.2+2+{+2+{+{+e@f@      g@{+h@i@                                      ",
"                                    j@*@S+k@    l@m@{+{+{+{+!+{+{+{+{+{+n@o@p@    q@r@s@                                        ",
"                                    t@u@v@w@x@  y@*@{+{+{+{+{+{+{+{+{+{+{+z@A@    B@C@D@                                        ",
"                                      E@F@G@H@  I@{+{+{+{+{+{+{+{+{+{+{+{+J@K@  L@M@N@O@P@                                      ",
"                                      Q@N@R@S@  T@U@{+{+{+{+{+{+{+{+{+{+{+:@V@  W@X@N@Y@Z@                                      ",
"                                    `@ #.#+#@#  ##$#{+{+{+{+{+{+{+{+{+{+{+:@V@  %#&#N@*#=#                                      ",
"                                      -#;#>#,#  '#z+$#$#{+$#{+{+{+{+d@)#,@!#~#    {#]#^#`@                                      ",
"                                      /#(#_#:#  <#A+[#}#|#1#2#3#4#{+5#6#7#8#9#    0#a#                                          ",
"                                                b#c#d#e#f#g#h#  i#j#k#l#m#n#o#p#                                                ",
"                                                q#r#m#m#m#s#    t#u#m#m#m#v#w#x#                                                ",
"                                                y#z#m#m#m#A#    B#C#m#m#m#D#E#F#                                                ",
"                                                G#H#m#m#m#I#      J#m#m#m#v#K#                                                  ",
"                                                L#d#m#m#l#M#      N#m#m#m#O#P#                                                  ",
"                                                Q#R#m#m#S#T#      U#m#m#m#V#P#                                                  ",
"                                                Q#W#m#m#X#Y#      Z#W#m#m#`# $                                                  ",
"                                                .$m#m#m#+$X+      @$`#m#m#m##$                                                  ",
"                                                $$m#m#m#%$        &$*$m#m#m#=$                                                  ",
"                                                -$;$m#>$,$        '$)$m#m#>$!$                                                  ",
"                                                ~$;$m#>${$        N+]$m#m#^$/$                                                  ",
"                                                ($_$m#!#:$          <$>$>$[$}$                                                  ",
"                                                |$1$2$3$Q+          4$5$6$7$8$                                                  ",
"                                                9$0$a$b$)@          c$d$e$f$g$                                                  ",
"                                                h$i$7.j$k$l$        V m$n$o$`@p$                                                ",
"                                          q$r$s$t$u$n$v$w$`@        x$y$n$z$A$B$C$D$                                            ",
"                                        E$F$G$H$I$Z n$J$U K$        L$5.&.5.M$1.N$O$P$Q$                                        ",
"                                      R$S$T$U$V$1.m$&.W$X$Y$      Z$`$ %&.y$1.1.W$.%+%@%R$                                      ",
"                                    R$R$#%$%%%1.1.&%*%=%-%+%R$R$R$D$;% %&.6.1.1.F#>%P$R$R$R$                                    ",
"                                    R$R$,%'%)%2.!%*.!.~%{%]%R$R$R$#%^%/%&.n$(%1._%'%:%R$R$R$                                    ",
"                                    R$R$R$@%<%[%2.].}%|%1%'%R$    Q$D$2%3%4%5%6%7%@%R$R$R$                                      ",
"                                      R$R$R$R$8%9%0%a%b%c%d%          q$e%f%g%h%D$R$R$R$                                        ",
"                                            R$R$i%'%Q$D$Y$                  j%k%                                                "};
