/* XPM */
static char * haruspex_right_xpm[] = {
"64 64 534 2",
"  	c None",
". 	c #423836",
"+ 	c #3B3331",
"@ 	c #342D2C",
"# 	c #272928",
"$ 	c #242927",
"% 	c #232726",
"& 	c #242726",
"* 	c #1D2223",
"= 	c #181E20",
"- 	c #181E21",
"; 	c #161C20",
"> 	c #151C1F",
", 	c #3C322F",
"' 	c #3B312F",
") 	c #7A5F53",
"! 	c #8B6C5D",
"~ 	c #8A6B5C",
"{ 	c #4F403A",
"] 	c #434235",
"^ 	c #4F4D3C",
"/ 	c #4E4C3B",
"( 	c #444437",
"_ 	c #424235",
": 	c #434236",
"< 	c #34352E",
"[ 	c #212525",
"} 	c #191E21",
"| 	c #161D21",
"1 	c #141C20",
"2 	c #121A1F",
"3 	c #11181F",
"4 	c #12191F",
"5 	c #292727",
"6 	c #282626",
"7 	c #2A2727",
"8 	c #131B1F",
"9 	c #7A5F52",
"0 	c #8C6C5E",
"a 	c #917163",
"b 	c #917162",
"c 	c #8A6C5D",
"d 	c #464537",
"e 	c #524F3E",
"f 	c #53503E",
"g 	c #524F3D",
"h 	c #514F3D",
"i 	c #4B493A",
"j 	c #494738",
"k 	c #484638",
"l 	c #474537",
"m 	c #464436",
"n 	c #454336",
"o 	c #444235",
"p 	c #3F3E33",
"q 	c #292B27",
"r 	c #2D2726",
"s 	c #342B28",
"t 	c #372D29",
"u 	c #463631",
"v 	c #342C2B",
"w 	c #171C1F",
"x 	c #755B4F",
"y 	c #8F6F60",
"z 	c #775F53",
"A 	c #483B37",
"B 	c #282928",
"C 	c #2B2E2A",
"D 	c #3C3D32",
"E 	c #4A4839",
"F 	c #514E3D",
"G 	c #54503E",
"H 	c #54513E",
"I 	c #54513F",
"J 	c #504D3C",
"K 	c #2B2E29",
"L 	c #12191E",
"M 	c #292828",
"N 	c #2F2825",
"O 	c #362A26",
"P 	c #46352F",
"Q 	c #58413A",
"R 	c #392F2C",
"S 	c #282628",
"T 	c #1B1F21",
"U 	c #252425",
"V 	c #7B6053",
"W 	c #826659",
"X 	c #4C3E38",
"Y 	c #1C2223",
"Z 	c #222525",
"` 	c #262927",
" .	c #292B28",
"..	c #2A2C28",
"+.	c #2C2E29",
"@.	c #32332D",
"#.	c #36372E",
"$.	c #33342D",
"%.	c #40352F",
"&.	c #2B2627",
"*.	c #191D20",
"=.	c #282727",
"-.	c #372C28",
";.	c #43332D",
">.	c #4D3A33",
",.	c #553F38",
"'.	c #483732",
").	c #433431",
"!.	c #3C302D",
"~.	c #3E312E",
"{.	c #423430",
"].	c #413631",
"^.	c #302F2C",
"/.	c #2D2E29",
"(.	c #272925",
"_.	c #282A26",
":.	c #2A2B27",
"<.	c #2D2F29",
"[.	c #2B2C27",
"}.	c #2C2C28",
"|.	c #2F2E29",
"1.	c #282926",
"2.	c #2C2928",
"3.	c #2F2A29",
"4.	c #242827",
"5.	c #212626",
"6.	c #1B2122",
"7.	c #1A2022",
"8.	c #1B2123",
"9.	c #2E2F2A",
"0.	c #31322B",
"a.	c #272927",
"b.	c #453531",
"c.	c #4B3833",
"d.	c #564039",
"e.	c #4E3B36",
"f.	c #272425",
"g.	c #141A20",
"h.	c #2B2827",
"i.	c #45352F",
"j.	c #4D3933",
"k.	c #4F3B34",
"l.	c #513D36",
"m.	c #523D36",
"n.	c #513D35",
"o.	c #554038",
"p.	c #58423A",
"q.	c #473B33",
"r.	c #37342D",
"s.	c #3A382D",
"t.	c #3B392D",
"u.	c #3C392D",
"v.	c #3D392E",
"w.	c #38352C",
"x.	c #232624",
"y.	c #212524",
"z.	c #202423",
"A.	c #1E2223",
"B.	c #1D2122",
"C.	c #1B2022",
"D.	c #1D2123",
"E.	c #2F312C",
"F.	c #454335",
"G.	c #454436",
"H.	c #434234",
"I.	c #444335",
"J.	c #424134",
"K.	c #272A27",
"L.	c #1C2123",
"M.	c #533F38",
"N.	c #5C443C",
"O.	c #4B3934",
"P.	c #232124",
"Q.	c #2C2827",
"R.	c #44342E",
"S.	c #4C3832",
"T.	c #4C3932",
"U.	c #4E3A34",
"V.	c #513C35",
"W.	c #533E37",
"X.	c #59423B",
"Y.	c #302C2A",
"Z.	c #37362C",
"`.	c #39372D",
" +	c #33352E",
".+	c #484737",
"++	c #474536",
"@+	c #4B4838",
"#+	c #4B4939",
"$+	c #4A4838",
"%+	c #4D4B3A",
"&+	c #444436",
"*+	c #38322D",
"=+	c #3F332F",
"-+	c #56413A",
";+	c #493833",
">+	c #272324",
",+	c #2E2825",
"'+	c #372B27",
")+	c #3E2F2A",
"!+	c #4F3B35",
"~+	c #543F37",
"{+	c #5A433B",
"]+	c #38372C",
"^+	c #3C392E",
"/+	c #3B382E",
"(+	c #31322C",
"_+	c #494737",
":+	c #4C4A39",
"<+	c #52503E",
"[+	c #523F38",
"}+	c #403330",
"|+	c #2A2829",
"1+	c #312826",
"2+	c #322824",
"3+	c #3D312D",
"4+	c #392E2B",
"5+	c #392E2C",
"6+	c #3D302D",
"7+	c #4A3934",
"8+	c #2B2A29",
"9+	c #31312A",
"0+	c #34342B",
"a+	c #323229",
"b+	c #33322A",
"c+	c #34342A",
"d+	c #37372C",
"e+	c #3B3A2E",
"f+	c #3C3A2E",
"g+	c #3D392F",
"h+	c #32332C",
"i+	c #464536",
"j+	c #2E2E2A",
"k+	c #554039",
"l+	c #57413A",
"m+	c #2B2728",
"n+	c #292728",
"o+	c #272626",
"p+	c #282728",
"q+	c #232727",
"r+	c #232728",
"s+	c #232827",
"t+	c #151B1F",
"u+	c #151C20",
"v+	c #292D29",
"w+	c #37382E",
"x+	c #38372D",
"y+	c #4B4938",
"z+	c #4D4B3B",
"A+	c #4F4D3B",
"B+	c #2D2D2A",
"C+	c #483833",
"D+	c #222223",
"E+	c #302D2D",
"F+	c #373232",
"G+	c #342F30",
"H+	c #212326",
"I+	c #171D22",
"J+	c #262A27",
"K+	c #30322C",
"L+	c #292C28",
"M+	c #2D2C29",
"N+	c #453632",
"O+	c #3D3634",
"P+	c #373231",
"Q+	c #463D3A",
"R+	c #443C3A",
"S+	c #4F4442",
"T+	c #3F3939",
"U+	c #363132",
"V+	c #29282B",
"W+	c #252927",
"X+	c #2A2D29",
"Y+	c #484637",
"Z+	c #4C4A3A",
"`+	c #504E3C",
" @	c #55403A",
".@	c #2D2A2B",
"+@	c #483F3C",
"@@	c #483E3C",
"#@	c #473D3B",
"$@	c #463D3B",
"%@	c #4D4340",
"&@	c #504543",
"*@	c #574B48",
"=@	c #554946",
"-@	c #242427",
";@	c #282B28",
">@	c #37372F",
",@	c #504E3D",
"'@	c #35342E",
")@	c #534039",
"!@	c #57433C",
"~@	c #322E2E",
"{@	c #5A4D49",
"]@	c #514744",
"^@	c #554947",
"/@	c #383232",
"(@	c #1D2023",
"_@	c #282B27",
":@	c #4D4B39",
"<@	c #36342E",
"[@	c #59433C",
"}@	c #322F2E",
"|@	c #473E3C",
"1@	c #493F3D",
"2@	c #493F3C",
"3@	c #594B47",
"4@	c #524745",
"5@	c #514745",
"6@	c #534845",
"7@	c #222326",
"8@	c #232927",
"9@	c #242524",
"0@	c #251F1D",
"a@	c #414034",
"b@	c #262826",
"c@	c #242625",
"d@	c #4C4939",
"e@	c #35322D",
"f@	c #57423B",
"g@	c #363231",
"h@	c #453D3B",
"i@	c #574A46",
"j@	c #4E4543",
"k@	c #534846",
"l@	c #554A47",
"m@	c #463D3C",
"n@	c #1F2125",
"o@	c #2B2724",
"p@	c #2D2825",
"q@	c #292523",
"r@	c #2B2623",
"s@	c #2E2521",
"t@	c #302622",
"u@	c #302623",
"v@	c #302522",
"w@	c #332824",
"x@	c #282522",
"y@	c #2F2C26",
"z@	c #292A26",
"A@	c #282A25",
"B@	c #272926",
"C@	c #3C3A2F",
"D@	c #4F4C3C",
"E@	c #36332E",
"F@	c #55413A",
"G@	c #343030",
"H@	c #473E3B",
"I@	c #4D423E",
"J@	c #554845",
"K@	c #4C4341",
"L@	c #564B48",
"M@	c #524644",
"N@	c #191E22",
"O@	c #282827",
"P@	c #4B3832",
"Q@	c #4A3731",
"R@	c #4A3832",
"S@	c #2A2B29",
"T@	c #3D3C2F",
"U@	c #3D3B2F",
"V@	c #3C3B2F",
"W@	c #3D3B2E",
"X@	c #31332D",
"Y@	c #4E4B3A",
"Z@	c #33312C",
"`@	c #57433A",
" #	c #574139",
".#	c #3D3230",
"+#	c #3C3634",
"@#	c #49403D",
"##	c #4C413E",
"$#	c #49403F",
"%#	c #544946",
"&#	c #433B3A",
"*#	c #1D2024",
"=#	c #191D23",
"-#	c #262626",
";#	c #302824",
">#	c #372A26",
",#	c #46342E",
"'#	c #503B35",
")#	c #5B433B",
"!#	c #5A423B",
"~#	c #2C2C29",
"{#	c #3A392D",
"]#	c #2C2E2A",
"^#	c #484636",
"/#	c #322F2C",
"(#	c #55423A",
"_#	c #59433B",
":#	c #513E37",
"<#	c #3A312F",
"[#	c #514542",
"}#	c #3F3938",
"|#	c #433C3B",
"1#	c #1B1E22",
"2#	c #191D22",
"3#	c #242525",
"4#	c #312824",
"5#	c #3B2E29",
"6#	c #543E37",
"7#	c #574039",
"8#	c #59423A",
"9#	c #564139",
"0#	c #30312B",
"a#	c #30302A",
"b#	c #37312D",
"c#	c #36302D",
"d#	c #35312D",
"e#	c #322D2B",
"f#	c #5A443B",
"g#	c #57423A",
"h#	c #3F3330",
"i#	c #272628",
"j#	c #463C3A",
"k#	c #28272B",
"l#	c #1F2126",
"m#	c #222424",
"n#	c #282524",
"o#	c #392E2A",
"p#	c #473732",
"q#	c #40342F",
"r#	c #433531",
"s#	c #453631",
"t#	c #443631",
"u#	c #2A2C29",
"v#	c #34332B",
"w#	c #34332A",
"x#	c #33332A",
"y#	c #2F302A",
"z#	c #322E2B",
"A#	c #544039",
"B#	c #56423A",
"C#	c #4F3E37",
"D#	c #434336",
"E#	c #474637",
"F#	c #4A4737",
"G#	c #362E2D",
"H#	c #1C1F24",
"I#	c #141B21",
"J#	c #181C22",
"K#	c #212324",
"L#	c #372E2B",
"M#	c #5B443C",
"N#	c #58433C",
"O#	c #3C3330",
"P#	c #262627",
"Q#	c #202325",
"R#	c #1E2325",
"S#	c #252928",
"T#	c #1F2325",
"U#	c #212526",
"V#	c #191F22",
"W#	c #1A2123",
"X#	c #1A1F22",
"Y#	c #202425",
"Z#	c #171D20",
"`#	c #262827",
" $	c #2A2E2A",
".$	c #292C29",
"+$	c #222625",
"@$	c #212424",
"#$	c #242725",
"$$	c #282A27",
"%$	c #36372F",
"&$	c #4E4B3B",
"*$	c #39352E",
"=$	c #4B3A34",
"-$	c #544038",
";$	c #242626",
">$	c #2E2B29",
",$	c #403631",
"'$	c #423733",
")$	c #332F2C",
"!$	c #2E2D2B",
"~$	c #423934",
"{$	c #403833",
"]$	c #3B3531",
"^$	c #383930",
"/$	c #36362F",
"($	c #30312C",
"_$	c #2F2B29",
":$	c #4D3B35",
"<$	c #4F413A",
"[$	c #896B5D",
"}$	c #765D51",
"|$	c #39332F",
"1$	c #262426",
"2$	c #191E20",
"3$	c #1F2322",
"4$	c #1C2022",
"5$	c #1E2324",
"6$	c #4D4A3A",
"7$	c #3E3D32",
"8$	c #372F2C",
"9$	c #392F2D",
"0$	c #5D4A42",
"a$	c #8A6B5D",
"b$	c #8F7061",
"c$	c #876A5C",
"d$	c #5F4C45",
"e$	c #30302B",
"f$	c #4F4C3B",
"g$	c #433F34",
"h$	c #443530",
"i$	c #4C3B35",
"j$	c #352C2A",
"k$	c #7B6054",
"l$	c #665249",
"m$	c #88695C",
"n$	c #8B6D5F",
"o$	c #8C6D5F",
"p$	c #7A6055",
"q$	c #403D38",
"r$	c #393930",
"s$	c #202023",
"t$	c #332B2A",
"u$	c #2D2C2C",
"v$	c #383231",
"w$	c #3E3634",
"x$	c #3C3532",
"y$	c #342F2E",
"z$	c #1E2224",
"A$	c #202424",
"B$	c #252825",
"C$	c #262926",
"D$	c #272A26",
"E$	c #2A2B28",
"F$	c #2B2C28",
"G$	c #2F312B",
"H$	c #2B2D29",
"I$	c #252827",
"                                                                                                                                ",
"                                                                                                                                ",
"                                                                                                                                ",
"                                                                                                                                ",
"                                                                                                                                ",
"                                                                                                                                ",
"                                                                                                                                ",
"                                                                                                                                ",
"                                                                                                                                ",
"                                                                                                                                ",
"                                                                                                                                ",
"                                                                                                                                ",
"                                                                                                                                ",
"                                                                                                                                ",
"                                                                                                                                ",
"                                                                                                                                ",
"                                                                                                                                ",
"                                                                                                                                ",
"                                                                                                                                ",
"                                                                                                                                ",
"                                                          . + @ # $ % & * = - ; >                                               ",
"                                                      , ' ) ! ~ { ] ^ / ( _ : < [ } - | 1 2 3 4                                 ",
"              5 5 6 7                               8 9 0 a b c { d e f g h h / i j k l m n o p q                               ",
"          7 r s t u v                               w x y b z A B C D E F g e f f f f f G H I J K L                             ",
"          M N O P Q R S                             T U V W X       Y Z `  ...+.@.: F f f ] #.$.%.&.*.                          ",
"          =.-.;.>.,.'.).!.~.{.].^./.q (._.:.<.q [.}.|.1.2.3.            4.5.6.7.8.& 9.0.$.a.b.c.d.e.f.g.                        ",
"          h.i.j.>.k.l.m.n.o.p.q.r.s.t.t.t.t.t.u.v.t.t.s.w.x.y.z.A.B.C.D.E.F.G.H.I.J.I.H.K.L., M.N.N.O.P.                        ",
"          Q.R.S.T.>.U.V.W.m.X.Y.Z.t.t.t.t.t.s.t.t.t.t.`.:. +j .+++++m m ++@+#+$+#+@+%+F E d &+*+=+-+N.;+>+                      ",
"          ,+'+)+S.k.!+m.~+d.{+Y.]+t.t.t.t.t.s.s.t.^+/+(+G._+$+$+$+$+@+@+$+$+$+$+$+$+:+g f G <+G.# [+{+N.}+|+                    ",
"            1+2+3+4+5+6+{.;+7+8+9+0+a+a+b+c+d+e+f+g+h+i+$+$+$+$+$+#+@+$+$+$+$+:+:+$+:+h <+f f g j+k+{+N.l+m+                    ",
"                        n+o+p+q+r+s+- t+u+L.v+w+]+x+ .++$+$+$+$+$+$+y+$+$+$+$+y+#+z+A+g f f f F B+l+{+{+C+D+E+F+F+G+H+I+        ",
"                                            4.$ J+K+L+++$+$+$+$+$+$+:+$+$+$+$+$+$+%+g f g f f F M+p.X.N+O+P+Q+R+R+S+T+U+V+      ",
"                                                  W+X+Y+$+$+$+$+$+y+:+$+$+$+#+$+$+Z+e f g f f `+M+k+ @.@+@@@#@$@%@&@*@=@-@      ",
"                                                  ;@>@_+$+$+$+$+$+y+#+$+$+$+:+$+$+Z+<+f e f f ,@'@)@!@~@$@@@#@+@{@]@^@=@/@(@    ",
"                                                  _@Y+$+$+$+$+$+$+:+:+$+$+$+:+$+$+:@f f g f f J <@k+[@}@|@1@@@2@3@4@5@*@6@7@    ",
"              $ 8@& 9@0@                    a@b@c@` .+$+$+$+$+$+$+d@d@$+$+$+$+$+$+%+f f f f f ^ e@l+f@g@h@|@@@2@i@j@k@l@m@n@    ",
"            1.o@p@q@r@s@t@u@v@w@x@y@z@z@A@B@/.t.C@+.G.$+$+$+$+$+$+@+@+$+$+$+#+$+$+%+f f f f f D@E@p.F@G@H@+@1@I@J@K@L@M@n@N@    ",
"          O@,+t@v@)+P@S.T.T.Q@R@S@T@U@V@W@W@f+t.s.h+X@j $+$+$+$+$+$+d@$+$+$+@+Z+Z+Y@f e g f f / Z@`@ #.#+#@#1@##+@$#%#&#*#=#    ",
"          -#;#>#,#'#Q )#)#)#!#k+~#{#t.t.t.t.t.]+Z.0+]#^#$+$+$+$+$+$+d@$+$+$+$+#+:+Z+F g f f f z+/#(#_#:#<#O+[#h@R+}#|#1#2#      ",
"          3#4#5#W.6#6#7#Q 8#8#9#0#t.t.t.t.t.]+a#b#c#d#U@j $+$+$+$+$+d@#+$+$+$+$+$+#+/ f f f f z+e#l+f#g#h#i#j#U+F+k#l#          ",
"          m#n#o#Q k+p#q#r#s#s#t#u#b+v#b+w#x#y#z#A#B#C#K+D#++++E#Y+Y+_+F#@+j j $+$+$+%+f f f z+h+3._#9#}+G#H#I#I+J#              ",
"            K#L#M#N#O#  n+P#Q#R#S#T#U#V#W#X#Y#Z#B.`#` W+ $.$Y#& +$z.@$#$a.$$..9.%$] Y@&$>@$.*$p#=$-$5+2                         ",
"            ;$>$,$'$)$                            q+!$~${$]$              u#^$/$($..y#9.7._$:${+{+:$2                           ",
"                                                    <$[$[$}$|$1$2$3$B.4$T 5$%$D@6$$+k E#7$8$f#_#:#9$                            ",
"                                                    0$a$y b$c$d$e$&$f$/ &$%+/ f f f f H ,@g$h$i$j$                              ",
"                                                    k$l$m$n$o$p$q$: ,@h g g g g f f f ,@k r$s$t$                                ",
"                                                      u$v$w$x$y$z$A$B$C$D$$$E$F$/.9.0#G$H$I$                                    ",
"                                                                                                                                ",
"                                                                                                                                ",
"                                                                                                                                ",
"                                                                                                                                ",
"                                                                                                                                ",
"                                                                                                                                ",
"                                                                                                                                ",
"                                                                                                                                ",
"                                                                                                                                ",
"                                                                                                                                ",
"                                                                                                                                ",
"                                                                                                                                ",
"                                                                                                                                ",
"                                                                                                                                ",
"                                                                                                                                ",
"                                                                                                                                ",
"                                                                                                                                "};
