/* XPM */
static char * plague0_xpm[] = {
"64 64 274 2",
"  	c None",
". 	c #000000",
"+ 	c #0E0E16",
"@ 	c #141724",
"# 	c #000002",
"$ 	c #11141E",
"% 	c #141623",
"& 	c #11121F",
"* 	c #10131D",
"= 	c #020202",
"- 	c #030305",
"; 	c #010101",
"> 	c #060609",
", 	c #0B0C15",
"' 	c #131621",
") 	c #030406",
"! 	c #0C0C14",
"~ 	c #09090D",
"{ 	c #0B0D12",
"] 	c #0D0F17",
"^ 	c #0B0C13",
"/ 	c #141624",
"( 	c #141522",
"_ 	c #0C0C13",
": 	c #0C0F11",
"< 	c #040409",
"[ 	c #0E0F14",
"} 	c #0D0E14",
"| 	c #0D0E13",
"1 	c #0B0C11",
"2 	c #050607",
"3 	c #020203",
"4 	c #08080C",
"5 	c #010202",
"6 	c #090A10",
"7 	c #010102",
"8 	c #0D0E16",
"9 	c #0D0D16",
"0 	c #0E0F15",
"a 	c #040506",
"b 	c #030404",
"c 	c #0D1014",
"d 	c #0E0E18",
"e 	c #0C0D13",
"f 	c #12151F",
"g 	c #131420",
"h 	c #08080D",
"i 	c #07070A",
"j 	c #000001",
"k 	c #07070B",
"l 	c #08090D",
"m 	c #0C0C12",
"n 	c #090A12",
"o 	c #040404",
"p 	c #050509",
"q 	c #0C0C11",
"r 	c #10101A",
"s 	c #010103",
"t 	c #070708",
"u 	c #09090F",
"v 	c #12131D",
"w 	c #0A0C11",
"x 	c #06060A",
"y 	c #030304",
"z 	c #06070A",
"A 	c #07080E",
"B 	c #0C0D14",
"C 	c #030306",
"D 	c #0C0D12",
"E 	c #0C0D16",
"F 	c #0B0C12",
"G 	c #0E1019",
"H 	c #0F1016",
"I 	c #0D0D11",
"J 	c #090A0E",
"K 	c #040406",
"L 	c #05060A",
"M 	c #0A0B10",
"N 	c #0E0E14",
"O 	c #07070D",
"P 	c #0F1018",
"Q 	c #0D0E15",
"R 	c #0E0F18",
"S 	c #0A0B0F",
"T 	c #060709",
"U 	c #0A0B11",
"V 	c #0B0B12",
"W 	c #0B0B10",
"X 	c #0C0C0E",
"Y 	c #07080D",
"Z 	c #0B0B11",
"` 	c #090A13",
" .	c #0B0D11",
"..	c #040407",
"+.	c #0E1018",
"@.	c #0D0E12",
"#.	c #0A0A11",
"$.	c #0B0C10",
"%.	c #09090E",
"&.	c #06080C",
"*.	c #030405",
"=.	c #0F0F18",
"-.	c #08090E",
";.	c #0B0D13",
">.	c #101118",
",.	c #0D0D15",
"'.	c #030506",
").	c #050608",
"!.	c #040508",
"~.	c #0E1015",
"{.	c #0B0B14",
"].	c #0E0F16",
"^.	c #050507",
"/.	c #0B0B13",
"(.	c #0B0D14",
"_.	c #090A0F",
":.	c #131522",
"<.	c #0A0C14",
"[.	c #08090F",
"}.	c #0C0D15",
"|.	c #0A0A12",
"1.	c #07080B",
"2.	c #06080B",
"3.	c #090B11",
"4.	c #020406",
"5.	c #0E0F12",
"6.	c #010203",
"7.	c #08090B",
"8.	c #020204",
"9.	c #020304",
"0.	c #090A0D",
"a.	c #0F0F15",
"b.	c #0F1015",
"c.	c #0D0D10",
"d.	c #131520",
"e.	c #0F121C",
"f.	c #090911",
"g.	c #0C0E14",
"h.	c #05070B",
"i.	c #07080C",
"j.	c #0C0E12",
"k.	c #0D0F15",
"l.	c #0E0E15",
"m.	c #050609",
"n.	c #0D0F16",
"o.	c #090910",
"p.	c #060608",
"q.	c #080A0E",
"r.	c #0D0D14",
"s.	c #0A0A0F",
"t.	c #0F1019",
"u.	c #0C0F15",
"v.	c #08090C",
"w.	c #040507",
"x.	c #0A0A0D",
"y.	c #0A0B0E",
"z.	c #12131C",
"A.	c #10111B",
"B.	c #0A0C12",
"C.	c #0C0C15",
"D.	c #06070B",
"E.	c #0A0A10",
"F.	c #121521",
"G.	c #0F111A",
"H.	c #08080A",
"I.	c #050508",
"J.	c #0E0F17",
"K.	c #0D0F18",
"L.	c #050506",
"M.	c #09090C",
"N.	c #090B10",
"O.	c #080A0F",
"P.	c #0A0A0C",
"Q.	c #090A11",
"R.	c #090C0F",
"S.	c #0A0A0E",
"T.	c #0B0C16",
"U.	c #090B0F",
"V.	c #0C0E16",
"W.	c #0B0C14",
"X.	c #0D0D12",
"Y.	c #08080E",
"Z.	c #0D0F14",
"`.	c #0B0E12",
" +	c #07080A",
".+	c #101119",
"++	c #0C0E15",
"@+	c #0A0B12",
"#+	c #0D0D13",
"$+	c #07090D",
"%+	c #030507",
"&+	c #07090C",
"*+	c #0F121B",
"=+	c #080A10",
"-+	c #08080B",
";+	c #0C0D11",
">+	c #070809",
",+	c #080A0D",
"'+	c #12141D",
")+	c #11131E",
"!+	c #070709",
"~+	c #090A0C",
"{+	c #06090B",
"]+	c #040408",
"^+	c #05050A",
"/+	c #0B0B0F",
"(+	c #0F101A",
"_+	c #131721",
":+	c #11131D",
"<+	c #0C0F16",
"[+	c #020205",
"}+	c #020303",
"|+	c #07090A",
"1+	c #020305",
"2+	c #0F0F17",
"3+	c #0E0F13",
"4+	c #010303",
"5+	c #07070C",
"6+	c #080A0C",
"7+	c #0D0E11",
"8+	c #06060C",
"9+	c #0E1014",
"0+	c #030303",
"a+	c #050709",
"b+	c #0B0D15",
"c+	c #040509",
"d+	c #07080F",
"e+	c #080909",
"f+	c #06070C",
"g+	c #0C0C0F",
"h+	c #06060B",
"i+	c #040405",
"j+	c #0A0A13",
"k+	c #0E0E17",
"l+	c #0D0E18",
"m+	c #040607",
"n+	c #0E101A",
"o+	c #0F1017",
"p+	c #0B0C0F",
"q+	c #0F1013",
"r+	c #0A0B0D",
"s+	c #0C0E13",
"t+	c #080809",
"u+	c #060607",
"v+	c #06080A",
"w+	c #11131C",
"x+	c #0B0B0E",
"y+	c #0E0E13",
"z+	c #11131F",
"A+	c #0B0E14",
"B+	c #10121B",
"C+	c #151624",
"D+	c #101219",
"E+	c #090B0E",
"F+	c #0A0D11",
"G+	c #12141E",
"H+	c #080A14",
"I+	c #0E111A",
"J+	c #0F0F16",
"K+	c #11121E",
"L+	c #11121D",
"M+	c #0E111B",
"N+	c #0A0B13",
"O+	c #11111A",
"P+	c #0D0D17",
"Q+	c #151622",
"R+	c #0C0E11",
"S+	c #10111A",
"T+	c #11111B",
"U+	c #090B0C",
"V+	c #191A2B",
"W+	c #181B2C",
"X+	c #191C2D",
"Y+	c #171A2D",
"                                                                                                                                ",
"                                                                .                                                               ",
"                                                                                                                                ",
"                                                                                                                                ",
"                                                                  +                                                             ",
"                                                                                                                                ",
"                                                          @             #                                                       ",
"                                                        $ % &                                                                   ",
"                                                          *                                                                     ",
"                              =                               . -         ; >                                                   ",
"                                , '         .                 )     !     ~ { ] ^                                               ",
"                                / (       ; ;               _ :       <     [ }                                                 ",
"                                                          | 1 } 2 3 4 5     6 1         3                                       ",
"                                                      7   8 9 0 a - 3 b     c d                                                 ",
"                                        e f g h     i j   d k l m n j o   p q     r     # j                                     ",
"                                  . s t u v         9 w   x y z A B         s C                                                 ",
"                                  s . 7 D E _ F G [ 0 H I J K L M 0 N _ O   s 7                                                 ",
"                                    K     P Q E R | B Q ~ S T U V W X Y Z m `  .          ; 7   ..                              ",
"                                        H +.V @.#.$.~ %.l &.*.m =.) y -.;.>.,.    C '.    ).!.                                  ",
"                                      ~.{.].^.~ /.(.U 1 _.w #.].:.<.[.B 8 }.|.%.1.. 7 2.3.4.i 5.                                ",
"                            6 O 6.7.h     8.9.0.a.b.c.@.x -.^ 0 d.e.Q M _ ].,.H f.. 7   J . > #.J g.                            ",
"                    0         h.h.i.8.i j.- 7 k 0 }.D [ ,.B k.k.l.^ - 5 1 } M m.n.[.-.q J > Z   6 V                             ",
"                        o.  p p.T q.1.r.  i K h 4 M s.0 t.+ u.b._.v.w.- M ~ p k s.%.+ ^ T l ,.Q K ; x.                          ",
"                        3 > ..a y.M M z.A.d.B.p ) T w } C.E R H D 3 . -.z 3 . z _.D.l | D 3.4 B.a ; 9.                          ",
"                          g.  y E.E.i o.F.G.H.I.3 7 1.V { 2 }.J.K.) ; 6 %.L.= M.}.U N.} }.3.E.  u O.)                           ",
"                        P.Q ].Q.R.  S.L Q M . ; *.K > T.n v.} J.E U._.).9.. 9.M e Y %.l B F V.  W.+.                            ",
"                        k }.8 M y X.$.v.M.M ; 7 y h J I ).; Y.].w 1 Z.`.> . 3 F F  +i.i.} r.a.^ n..+                            ",
"                          g.1 ++i y N.@+#+M...3 3 m.M -.w.K z m ..F ].Q e N.1 } | @+).$+j.F V D j.! W                           ",
"                          > K L %+7 M.C %.F U ).) O D ) o . 7 &+7 4 *+8 ^ Q Z e E.).; a =+6 -+9.T ^                             ",
"                          > > N.3 7 O.1.;+>+U ,+4 M.I.3 - . j 4 ~ n.'+)+@+} Q } Z I.) k l !+~+7 p !                             ",
"                            W.{+C 3 L.~ ]+^+/+i K &+O i.~ ..T Z _.(+_+:+V ].].}.#.; ; > #+3.1 V <++                             ",
"                6     j [+~ ~.g.@+}+y 3 . ; |+1+7 K -.^.3 A D M 3 i 2+F k D Q 0 [.!.y y s.3+1 R.V.                              ",
"                      4+I.5+N.W ^ T 2 ).; . ^.v.) 4 f.l m.S Y.^.. 5 W l.4 [.e } D.Z B.1 $.V [.e V.                              ",
"                          '.6+%.k.7+1.s.U 8+s.U _.i u J F &+J I.y }+H.S . .   @+_.,.k.;.  N.- 5+9+8 9                           ",
"                        p.; i.,.k.%.).M 1 Q U -+-+^.i.i I.; 0+D.y ..^.J j 3 t a+_.F e ! U n.b+    ~.+ ].].                      ",
"              ].          p s.  [ 1 5+).} 0 S ^+> - I.c+T K y d+e+Q.D f+6.i y ^.g+1 ^ m.    ;.      0 8 k.                      ",
"              ]           ;.0 B F S i ..W.D e ).; . 7 y . . *.= h+i.S.K . K ; ^.D | l . -   [ 9 ~.].<.0                         ",
"                            J.B m I k 0.J $+h w.0+. . - 7 ; ; . I.; 7 p 3 7.> ~ Q C.y.i+-.V }.8 l.k.S.&+                        ",
"                  0+p.      ] J.Z.-+i D.E.k.@+^.C 3 7  +4 7 . . - . . C *.%.M } M { D.j+  k+.+l+Q l.J m+                        ",
"                              m ! i.z L 7 L M o.-.u u ^ M . j K J k 7 ; k W J y.k Q.[.F e n+t.o+  }.}.                          ",
"                              B.D F ~ T y p a+Z 6 p+q+/.s.*.m.^./.Q.r+M h Y.F S.S S.M e q.5 w.    3.|   8                       ",
"                              3 ^.^.s+~.M #+@+I U K x.M %.^.0.1 B x t+Z u+y.M @+ +_.W 5+_.. ;                                   ",
"                            m.3 K *.Z   | r.V.n.[.5 = ; i.I.h { m > C p s.M y.e { i.| M w ^.5+  n+                              ",
"                            y   e F m v+%.m.l w+^ x+K j - Z y+m.x W -+- x w.C s+U $+V i.m.    z+*                               ",
"                                  A+{ F   N.;.B+} x p w.m.D } K w._ Z.p.Y *.y w D.!.u k     E '+R C+                            ",
"                                    u /+    t.D+  ).*.[.;.Z n.v.E+B F+E.s+B F D M S.7 ;     Q G+*       ].                      ",
"                                  z+J.%.E.-.H+    U F ].g.e t.I+Q X.j.J+W.;.3 3 3 p.3 8.$+Z             0                       ",
"                                    r.= = Y K+L+w Q   0 l+8 ,.p+m.> N l.g.-+> I.3 I.  8.M ].8                                   ",
"                          j           k ..I.M+W.7 -   ! }.J.+ M w   + F M _.D N.    *.  5+N+O+k                                 ",
"                          E.            q.P+Q+G.7 7 S.i+k $+1 ++} n.0 q R+S+..    _.-   *.                                      ",
"                         .n.            7 ; C T+        0+7 W 1 w + F l.    -     m U+                                          ",
"                                            s   4+.                                                         V+W+                ",
"                                                                  N.D   J._.                                W+X+                ",
"                                  .                             }+  u                                                           ",
"                                                .               ;                                                               ",
"                                                                          j j                                                   ",
"                                                                                          Y+                                    ",
"                                                                                                                                ",
"                                                                                                                                ",
"                                                                    .                                                           ",
"                                                                                                                                ",
"                                                                                                                                ",
"                                                                                                                                ",
"                                                                                                                                "};
