/* XPM */
static char * plague1_xpm[] = {
"64 64 203 2",
"  	c None",
". 	c #000000",
"+ 	c #030306",
"@ 	c #020202",
"# 	c #040607",
"$ 	c #000002",
"% 	c #010101",
"& 	c #020205",
"* 	c #010102",
"= 	c #07090F",
"- 	c #000001",
"; 	c #040407",
"> 	c #0B0C14",
", 	c #020203",
"' 	c #030304",
") 	c #10101B",
"! 	c #0C0C15",
"~ 	c #06060A",
"{ 	c #05050A",
"] 	c #040509",
"^ 	c #020204",
"/ 	c #000101",
"( 	c #010103",
"_ 	c #030305",
": 	c #040608",
"< 	c #0D0D17",
"[ 	c #17182A",
"} 	c #191B2B",
"| 	c #131420",
"1 	c #09090E",
"2 	c #020305",
"3 	c #121421",
"4 	c #141824",
"5 	c #07080D",
"6 	c #040406",
"7 	c #10111C",
"8 	c #181929",
"9 	c #151726",
"0 	c #0D0F17",
"a 	c #040405",
"b 	c #161826",
"c 	c #171928",
"d 	c #09090F",
"e 	c #020306",
"f 	c #040508",
"g 	c #06080D",
"h 	c #040408",
"i 	c #090910",
"j 	c #050507",
"k 	c #0A0B11",
"l 	c #0A0D14",
"m 	c #08080E",
"n 	c #020406",
"o 	c #05070B",
"p 	c #0A0B12",
"q 	c #010203",
"r 	c #010104",
"s 	c #05060A",
"t 	c #090A10",
"u 	c #06070C",
"v 	c #060609",
"w 	c #020206",
"x 	c #06060B",
"y 	c #0A0A10",
"z 	c #090B0F",
"A 	c #08080B",
"B 	c #0D0E17",
"C 	c #010202",
"D 	c #0C0D16",
"E 	c #08090E",
"F 	c #050509",
"G 	c #000303",
"H 	c #0A0A11",
"I 	c #08090C",
"J 	c #0F0F19",
"K 	c #191A29",
"L 	c #0B0B12",
"M 	c #161725",
"N 	c #08080C",
"O 	c #0F111C",
"P 	c #11121E",
"Q 	c #1A1C2E",
"R 	c #11121C",
"S 	c #07090E",
"T 	c #030408",
"U 	c #07070B",
"V 	c #10101A",
"W 	c #10131E",
"X 	c #181A2B",
"Y 	c #141727",
"Z 	c #0C0D15",
"` 	c #090A0F",
" .	c #020304",
"..	c #050508",
"+.	c #090B14",
"@.	c #131422",
"#.	c #0C0E15",
"$.	c #0B0B13",
"%.	c #040409",
"&.	c #07070D",
"*.	c #171829",
"=.	c #050608",
"-.	c #000004",
";.	c #020303",
">.	c #08080D",
",.	c #090B11",
"'.	c #171726",
").	c #0F101A",
"!.	c #030303",
"~.	c #07070C",
"{.	c #05060C",
"].	c #0D0E16",
"^.	c #0C0C14",
"/.	c #000103",
"(.	c #06070D",
"_.	c #07090B",
":.	c #030307",
"<.	c #010204",
"[.	c #07090C",
"}.	c #111420",
"|.	c #131521",
"1.	c #050506",
"2.	c #000102",
"3.	c #06080C",
"4.	c #030308",
"5.	c #0B0C12",
"6.	c #07070F",
"7.	c #171A29",
"8.	c #11131E",
"9.	c #030406",
"0.	c #0A0A0E",
"a.	c #151827",
"b.	c #141624",
"c.	c #0F121C",
"d.	c #141524",
"e.	c #0F0F1A",
"f.	c #0D0D15",
"g.	c #030407",
"h.	c #06060C",
"i.	c #0F0F17",
"j.	c #06070B",
"k.	c #0D0D16",
"l.	c #050609",
"m.	c #07090D",
"n.	c #0B0B11",
"o.	c #0D0F16",
"p.	c #07080C",
"q.	c #0A0C12",
"r.	c #10111D",
"s.	c #0E101A",
"t.	c #12121E",
"u.	c #11131C",
"v.	c #05060B",
"w.	c #07080B",
"x.	c #030405",
"y.	c #10121C",
"z.	c #12131E",
"A.	c #10121E",
"B.	c #06070A",
"C.	c #0C0F17",
"D.	c #04050A",
"E.	c #06080B",
"F.	c #0A0B10",
"G.	c #161726",
"H.	c #1A1B2E",
"I.	c #0A0C13",
"J.	c #0E0F19",
"K.	c #0B0D13",
"L.	c #181B2D",
"M.	c #121320",
"N.	c #0E0F17",
"O.	c #040507",
"P.	c #060608",
"Q.	c #0E0F18",
"R.	c #060709",
"S.	c #0B0B15",
"T.	c #0C0C16",
"U.	c #0A0A12",
"V.	c #030507",
"W.	c #0C0C12",
"X.	c #151624",
"Y.	c #161828",
"Z.	c #080910",
"`.	c #11111D",
" +	c #0F101C",
".+	c #121420",
"++	c #090911",
"@+	c #040609",
"#+	c #0F101B",
"$+	c #151724",
"%+	c #040506",
"&+	c #18192B",
"*+	c #080A0F",
"=+	c #04060A",
"-+	c #000003",
";+	c #0D0F18",
">+	c #010105",
",+	c #0B0C15",
"'+	c #07070A",
")+	c #12121D",
"!+	c #171A2A",
"~+	c #191B2C",
"{+	c #0C0F16",
"                                                                                                                                ",
"                                                                                                                                ",
"                                                      .       +                                                                 ",
"                                                                                                                                ",
"                                                                                                                                ",
"                                                                                                                                ",
"                                                                                                                                ",
"                                                    @         #                                                                 ",
"                          .                         .       $ .                                                                 ",
"                                                          % & * . .         =                                     .             ",
"                                                        .   - . . % ;       >       ,                                           ",
"                                            '         ' & % . . . % %             )                                             ",
"                                        +   !       &   ~ { ] ^ / . - ( _ : + < [ } |                                           ",
"                                      1         ' ' .   2 3 4 5 % . / ( + ~ 6 7 8 9 0 a . .                                     ",
"                                          (       , ( ^ * b c d % . e f g ; h     i & . . . .                                   ",
"                                          .       _ j , . k l ; - - ] m n _ o p d ~ * .                                         ",
"                                      !           . % % . . % % . . ^ ^ q r s t     _ u               . $                       ",
"                                                  % . a v $ w % . . * ^ $ , x y   z + * ( -   A $   . . %                       ",
"                                    y     _ B ; ^ . % * C w D E ( . r * * ^ 6 , F 6 G * ^ ^   H   '   . % 6                     ",
"                                  _ I '     J K L . . % ^ h M 7 + * j ^ * * ^ ~ N a * ( ( % .     O           . .               ",
"                                    h (     P Q R r q j H * S T % * 6 ^ * * U V H ^ ^ ; ' ( . W X Y           .                 ",
"                                      % . - ~ Z E ` y > h . ( % . _ % *  .6 ..H x r       ' . +.@.#.'                           ",
"                                $.I . . . * %._ 6 &.b *.u ; * . . - - , ~ =.{ F ;           ( -.- . .                           ",
"                              ;.2 ( . - - ; j ( * * F ~ * a * * C % . @ ^ ~ < >.g _         ( - .   .                           ",
"                                    & + r { 6 . % . - - - % - q * % * & , ,.'.).1 ..6 ' !.      .                               ",
"                                    u ~.' ' r . - . - . . . . - % * * , C {.].^.~ + & ^ * @                                     ",
"                                x ( * 6 ( % . - . . . . . . . . % C ( % /.h h ! x + + * @ & . $                                 ",
"                              (.^ * * & ^ ( , _.j * / * % - % % - % _ _ :.~.m E T , * % % . . . -                               ",
"                              % - $ @ <.^ & [.}.|.1.* * , * q * * % * @ 2.h 3.{ , - % & $ F     %                               ",
"            .               4.^.5.j C 6 6 %.6.7.8.9.( * * C % - . . - * % h { _ % / E B v {     $ .                             ",
"            .               0.a.b.7 @ w ~.; ' j ' ^ +  .q * * % . . . * * { %.* . - ; >.~ _ ; % . .                             ",
"                              c.d.e.a i f.x _ a 2 ^ g.+ % . . . . - % % q F _ - . - ; a + h.i.~.^ - %                           ",
"                                ` j.w k.'.9.( j v h h + % . . . . - . . * , % - * , >.5 l.g m.6 ~ - .                           ",
"                              n.  , : o.)._ ; u p.v h _ g.% * / * % . / . . . . * q.].p r.s.i a   .     .                       ",
"                          t.      u.( ^ 6 ; v.x v l.v v w.x.5.l., , % . - j  .- % y.7 t O z.r.      $                           ",
"                    . -       A.f.d ( * r & 6 B.~ j ..+ + ] 3 C.' * - % ^ ..' ^ r N ~.D.E.F.! D.      .                         ",
"                            G.Q H.I.  + p.& ; U U v B.e * % E B.* % - * % ^ ^ v 1 t.J.L :.' i K.j %   .       .                 ",
"                              L.M.      * ^ 6 v v =.B.l., % ^ , * ^ _ :.* r r n d b.N.:.' B.; :.+ _ +   .   .                   ",
"                                  . . * ^ ~.O.j 6 ~ H I.* P.h F _ w &.Q.r.R.j v.4.S.T.q.g ] 6 ( % - _ ,                         ",
"                                . .   j ~ { _ ( _ j ~.v ~.].U.V.n + W.X.Y.Z.m E % F `.z.A.p.~ -.' 6                             ",
"                          .             < N ' ( : ~._ 6 j.9 X.v 6 .._ u 5.! J t & 1  +7 .+++@+h   #+                            ",
"                                    $   $+^.; ( ; U.&.a ' l.x ^ ^ % % * %+X.&+U ; 1 I.  *+  =   ~ =+                            ",
"                                          ; { -+; o ~ x.% ( _ : a ' ( j a w 6 %   + ' ' (       _ '                             ",
"                                  % . x.% % #   r _ ( % - - @ ' ' F 6 + _ % . - - 6 a ;+h..     @   x                           ",
"                                  s % . @     . h t x.( @ . - % -+6 i A & - >+, _ >.>.0.; .       : ,+                          ",
"                                    -             _       - %   % o 7 F ' % I.  % >.B '+( . ,     v                     .       ",
"                                                        / . -               k.  . O.)+    . .           !+~+                    ",
"                                                  %                     % (     . - %           -         ~+                    ",
"                                              .           {+                        %                                           ",
"                            .                                                         h ( . .                                   ",
"                                    .                                                 .   . . .                                 ",
"                                                                                          . . .                                 ",
"                                                                                                                                ",
"                                                                                                              .                 ",
"                                                                                                                                ",
"                                                                                              . .                               ",
"                                                                                                .                               ",
"                                                    ; ;                                                                         ",
"                                                                                                                                ",
"                                                            . .                                                                 ",
"                                                                                                                                ",
"                                                                                                                                ",
"                                                                                                                                ",
"                                                                                                                                "};
