/* XPM */
static char * tileset1_xpm[] = {
"64 64 4 1",
" 	c #72751B",
".	c #7F8226",
"+	c #787B21",
"@	c #656C17",
"                                                                ",
"                                                                ",
"                                                                ",
"                                                                ",
"                                                                ",
"                                                                ",
"                                                                ",
"                                                                ",
"                                                                ",
"                                                      .         ",
"                                                 ..+  ++        ",
"                                                  .++ @+  .     ",
"                                                  @+++@ ++@     ",
"        .                                        .+@++  ++@     ",
"   ..+  ++                                       @++@+  @@      ",
"    .++ @+  .                                     @+@@          ",
"    @+++@ ++@                                                   ",
"   .+@++  ++@                                                   ",
"   @++@+  @@                                                    ",
"    @+@@                                                        ",
"                                                                ",
"                                                                ",
"                                                                ",
"                                                                ",
"                                                                ",
"                                                                ",
"                                  ..                            ",
"                                   .++   ..                     ",
"                                   @++  +.                      ",
"                                    @@ +++                      ",
"                                       ++@                      ",
"                                       @@                       ",
"                                                                ",
"                                                                ",
"                                                                ",
"                                                                ",
"                                          +.                    ",
"                                           ..                   ",
"                                           +++                  ",
"                                           @++@++..             ",
"                                            @@+++               ",
"                                              ++@               ",
"                +.    ++                      +@                ",
"                 ..  ++                                         ",
"                 @++ ++                                         ",
"                 @++ @@                                         ",
"                  @@                                    .       ",
"                                                       .        ",
"                                                      ++        ",
"                                                      ++@       ",
"                                                      @@+.      ",
"                                                        ++      ",
"                                                        @@      ",
"                                                                ",
"                                   ..     .                     ",
"                                    .++ +.                      ",
"                                 +..@+@++@                      ",
"                                  .++@@++@                      ",
"                                  @++  +@                       ",
"                                   @+                           ",
"                                                                ",
"                                                                ",
"                                                                ",
"                                                                "};
