/* XPM */
static char * wall_xpm[] = {
"64 64 704 2",
"  	c None",
". 	c #161716",
"+ 	c #141312",
"@ 	c #12110F",
"# 	c #171617",
"$ 	c #1E1E1E",
"% 	c #212220",
"& 	c #42433F",
"* 	c #3D3D3C",
"= 	c #333537",
"- 	c #323435",
"; 	c #3A3937",
"> 	c #343536",
", 	c #383838",
"' 	c #353636",
") 	c #2D3033",
"! 	c #2E2F32",
"~ 	c #292B2F",
"{ 	c #292D30",
"] 	c #292D31",
"^ 	c #292E32",
"/ 	c #282C30",
"( 	c #222528",
"_ 	c #1E2020",
": 	c #151615",
"< 	c #0E0F0D",
"[ 	c #151513",
"} 	c #1B1B18",
"| 	c #1F1F1C",
"1 	c #252523",
"2 	c #2B2A28",
"3 	c #2E2E2C",
"4 	c #333331",
"5 	c #383937",
"6 	c #3C3F3C",
"7 	c #414141",
"8 	c #424341",
"9 	c #404140",
"0 	c #3D3E3C",
"a 	c #393B3A",
"b 	c #393B3C",
"c 	c #3E4042",
"d 	c #414345",
"e 	c #44484B",
"f 	c #45484C",
"g 	c #43464A",
"h 	c #43484B",
"i 	c #43494C",
"j 	c #43484D",
"k 	c #454A50",
"l 	c #454B53",
"m 	c #424951",
"n 	c #3B3F45",
"o 	c #2D3032",
"p 	c #1B1C1B",
"q 	c #0C0C0A",
"r 	c #090A09",
"s 	c #2C2C2A",
"t 	c #30302D",
"u 	c #383835",
"v 	c #3D3C39",
"w 	c #3F3E3B",
"x 	c #40403D",
"y 	c #42423E",
"z 	c #434340",
"A 	c #474744",
"B 	c #494945",
"C 	c #4A4A46",
"D 	c #494A47",
"E 	c #4A4B4A",
"F 	c #4D4F51",
"G 	c #4F5256",
"H 	c #54585C",
"I 	c #54585D",
"J 	c #515559",
"K 	c #505458",
"L 	c #505357",
"M 	c #51565A",
"N 	c #51565D",
"O 	c #50575E",
"P 	c #4D555D",
"Q 	c #464C51",
"R 	c #373B3D",
"S 	c #262726",
"T 	c #0B0B0A",
"U 	c #272725",
"V 	c #31322F",
"W 	c #363734",
"X 	c #42423F",
"Y 	c #4B4B48",
"Z 	c #4B4A47",
"` 	c #494843",
" .	c #484641",
"..	c #4A4944",
"+.	c #4A4A45",
"@.	c #4C4C45",
"#.	c #4D4D46",
"$.	c #4D4C47",
"%.	c #4D4D49",
"&.	c #4F504F",
"*.	c #515354",
"=.	c #555758",
"-.	c #545758",
";.	c #525557",
">.	c #535758",
",.	c #55595C",
"'.	c #555A5F",
").	c #565B61",
"!.	c #555C63",
"~.	c #535B62",
"{.	c #4D5358",
"].	c #414446",
"^.	c #323332",
"/.	c #1F1F1E",
"(.	c #10100F",
"_.	c #1D1E1C",
":.	c #2C2D2B",
"<.	c #373736",
"[.	c #3D3F3D",
"}.	c #474846",
"|.	c #4F504E",
"1.	c #504F4B",
"2.	c #4C4A45",
"3.	c #494741",
"4.	c #484741",
"5.	c #494742",
"6.	c #474741",
"7.	c #494841",
"8.	c #4E4C48",
"9.	c #50504C",
"0.	c #51514D",
"a.	c #50514E",
"b.	c #4F5050",
"c.	c #505354",
"d.	c #535657",
"e.	c #55585A",
"f.	c #565A5E",
"g.	c #575C62",
"h.	c #595F65",
"i.	c #535A5F",
"j.	c #484D50",
"k.	c #37393A",
"l.	c #262725",
"m.	c #191917",
"n.	c #1F2120",
"o.	c #333434",
"p.	c #414343",
"q.	c #484A49",
"r.	c #4B4D4B",
"s.	c #4E504E",
"t.	c #4E4E4B",
"u.	c #4B4944",
"v.	c #484540",
"w.	c #474640",
"x.	c #474540",
"y.	c #44433E",
"z.	c #44433D",
"A.	c #45443D",
"B.	c #4D4A44",
"C.	c #4F4F48",
"D.	c #504F49",
"E.	c #4E4E4A",
"F.	c #4D4F4D",
"G.	c #4E5151",
"H.	c #515353",
"I.	c #535556",
"J.	c #545859",
"K.	c #575B5E",
"L.	c #5B5F63",
"M.	c #5D6266",
"N.	c #565D63",
"O.	c #4B5156",
"P.	c #383C3E",
"Q.	c #2A2B2A",
"R.	c #20201E",
"S.	c #363939",
"T.	c #484B4C",
"U.	c #4F5151",
"V.	c #4E504F",
"W.	c #4F514F",
"X.	c #45443F",
"Y.	c #44423C",
"Z.	c #47453F",
"`.	c #484640",
" +	c #45433E",
".+	c #44433C",
"++	c #4A4842",
"@+	c #4E4C46",
"#+	c #4F4D47",
"$+	c #4D4D47",
"%+	c #4B4D47",
"&+	c #4C4D4A",
"*+	c #4E4F4D",
"=+	c #515352",
"-+	c #535656",
";+	c #555858",
">+	c #595C5D",
",+	c #5C5F62",
"'+	c #565B60",
")+	c #4A5055",
"!+	c #373C3F",
"~+	c #2A2C2C",
"{+	c #222221",
"]+	c #141514",
"^+	c #1D1E1E",
"/+	c #313335",
"(+	c #424548",
"_+	c #4D4F50",
":+	c #4D4F4F",
"<+	c #454544",
"[+	c #3E3D39",
"}+	c #42413A",
"|+	c #484740",
"1+	c #4C4A43",
"2+	c #46453F",
"3+	c #45443E",
"4+	c #4A4943",
"5+	c #4D4B46",
"6+	c #4B4A44",
"7+	c #474742",
"8+	c #494A46",
"9+	c #525453",
"0+	c #535555",
"a+	c #535554",
"b+	c #555757",
"c+	c #565A5D",
"d+	c #53575D",
"e+	c #494D52",
"f+	c #393C3F",
"g+	c #2C2E30",
"h+	c #252525",
"i+	c #1C1C1B",
"j+	c #303234",
"k+	c #3D4045",
"l+	c #474A4F",
"m+	c #4A4C4B",
"n+	c #434442",
"o+	c #41413C",
"p+	c #47463F",
"q+	c #46453E",
"r+	c #474642",
"s+	c #4A4844",
"t+	c #474844",
"u+	c #4A4B47",
"v+	c #515250",
"w+	c #535553",
"x+	c #535454",
"y+	c #575D61",
"z+	c #555B5F",
"A+	c #4B5051",
"B+	c #3E4245",
"C+	c #343639",
"D+	c #2B2C2D",
"E+	c #202020",
"F+	c #242523",
"G+	c #3C3F44",
"H+	c #44474C",
"I+	c #4A4C4D",
"J+	c #474948",
"K+	c #444545",
"L+	c #474743",
"M+	c #4B4942",
"N+	c #4B4943",
"O+	c #46443F",
"P+	c #43423D",
"Q+	c #4B4B46",
"R+	c #4B4D48",
"S+	c #4E4F4C",
"T+	c #52534F",
"U+	c #51524F",
"V+	c #505150",
"W+	c #535453",
"X+	c #575B5C",
"Y+	c #596165",
"Z+	c #565C62",
"`+	c #4E5256",
" @	c #44494E",
".@	c #393D42",
"+@	c #2B2D30",
"@@	c #282927",
"#@	c #333535",
"$@	c #3C3F41",
"%@	c #46494A",
"&@	c #464747",
"*@	c #494A48",
"=@	c #494842",
"-@	c #4C4B44",
";@	c #4D4B45",
">@	c #4F4E49",
",@	c #4F504C",
"'@	c #4D4E49",
")@	c #4B4B49",
"!@	c #515555",
"~@	c #545A5D",
"{@	c #51565C",
"]@	c #4B4E52",
"^@	c #44494D",
"/@	c #383C41",
"(@	c #272A2E",
"_@	c #1D1D1D",
":@	c #2B2B2B",
"<@	c #3A3B3A",
"[@	c #464744",
"}@	c #373834",
"|@	c #3A3B38",
"1@	c #444645",
"2@	c #474A48",
"3@	c #454641",
"4@	c #4B4A45",
"5@	c #4C4B46",
"6@	c #42413C",
"7@	c #44423D",
"8@	c #4E4D49",
"9@	c #4D4C4A",
"0@	c #4C4B49",
"a@	c #4A4A47",
"b@	c #454541",
"c@	c #42423D",
"d@	c #434541",
"e@	c #454745",
"f@	c #474A4B",
"g@	c #484C4E",
"h@	c #434546",
"i@	c #3F4243",
"j@	c #323538",
"k@	c #222427",
"l@	c #20201F",
"m@	c #2C2D2A",
"n@	c #31312E",
"o@	c #353531",
"p@	c #3E3D38",
"q@	c #2E2C29",
"r@	c #31312D",
"s@	c #3F4140",
"t@	c #434545",
"u@	c #41423F",
"v@	c #42433C",
"w@	c #44443F",
"x@	c #484945",
"y@	c #43433D",
"z@	c #454540",
"A@	c #464642",
"B@	c #454542",
"C@	c #444442",
"D@	c #434341",
"E@	c #40403C",
"F@	c #3D3D37",
"G@	c #3A3A35",
"H@	c #3A3935",
"I@	c #3C3C38",
"J@	c #3E3F3D",
"K@	c #40423F",
"L@	c #3E3F3B",
"M@	c #3B3D3A",
"N@	c #2D2F2E",
"O@	c #1E1F1F",
"P@	c #2B2D29",
"Q@	c #32332F",
"R@	c #353430",
"S@	c #383632",
"T@	c #2D2B28",
"U@	c #2E2E29",
"V@	c #3B3C39",
"W@	c #3E403F",
"X@	c #424340",
"Y@	c #484844",
"Z@	c #484845",
"`@	c #454642",
" #	c #43433E",
".#	c #3F3F3C",
"+#	c #3C3D3B",
"@#	c #3E3F3F",
"##	c #3E3E3B",
"$#	c #3C3C36",
"%#	c #393833",
"&#	c #373631",
"*#	c #393832",
"=#	c #3B3A35",
"-#	c #3C3B37",
";#	c #3C3B38",
">#	c #2B2C2B",
",#	c #1A1B1A",
"'#	c #21211F",
")#	c #33332F",
"!#	c #2E2D28",
"~#	c #383734",
"{#	c #3E3F3E",
"]#	c #3E4040",
"^#	c #3E403E",
"/#	c #3D3E3D",
"(#	c #464542",
"_#	c #383735",
":#	c #393A39",
"<#	c #3C3E3D",
"[#	c #3E3C3A",
"}#	c #3B3A34",
"|#	c #3A3933",
"1#	c #3C3C35",
"2#	c #3E3D37",
"3#	c #3E3D3A",
"4#	c #3D3D3B",
"5#	c #2C2C2B",
"6#	c #141513",
"7#	c #171715",
"8#	c #2F2E2C",
"9#	c #363532",
"0#	c #383733",
"a#	c #373531",
"b#	c #312E2A",
"c#	c #2C2A26",
"d#	c #33322F",
"e#	c #3A3B39",
"f#	c #3F4141",
"g#	c #434444",
"h#	c #434543",
"i#	c #43433F",
"j#	c #43423E",
"k#	c #444340",
"l#	c #464643",
"m#	c #42413E",
"n#	c #3C3C3A",
"o#	c #3D3C37",
"p#	c #3D3B35",
"q#	c #3B3934",
"r#	c #3A3934",
"s#	c #3C3A35",
"t#	c #3D3B36",
"u#	c #3D3D39",
"v#	c #2D2C2A",
"w#	c #0F0F0E",
"x#	c #0C0C0B",
"y#	c #2E2E2B",
"z#	c #393834",
"A#	c #3A3834",
"B#	c #35332E",
"C#	c #373632",
"D#	c #414241",
"E#	c #464746",
"F#	c #444644",
"G#	c #41403B",
"H#	c #42403B",
"I#	c #444440",
"J#	c #353530",
"K#	c #363531",
"L#	c #272624",
"M#	c #0B0B0B",
"N#	c #050505",
"O#	c #2F2F2C",
"P#	c #3A3A36",
"Q#	c #403F3A",
"R#	c #3F3E39",
"S#	c #3F3E38",
"T#	c #403F39",
"U#	c #41403A",
"V#	c #444542",
"W#	c #464645",
"X#	c #3E3E39",
"Y#	c #3C3B36",
"Z#	c #3E3C36",
"`#	c #403E38",
" $	c #42413D",
".$	c #41403D",
"+$	c #3D3C36",
"@$	c #3C3B35",
"#$	c #383732",
"$$	c #34342F",
"%$	c #292A25",
"&$	c #282825",
"*$	c #1D1C1B",
"=$	c #080908",
"-$	c #030303",
";$	c #3B3B37",
">$	c #41403C",
",$	c #464541",
"'$	c #474745",
")$	c #454644",
"!$	c #40403B",
"~$	c #3A3A34",
"{$	c #403E39",
"]$	c #3F3D38",
"^$	c #3E3C37",
"/$	c #403E37",
"($	c #3F3E37",
"_$	c #2E2E28",
":$	c #262621",
"<$	c #22221F",
"[$	c #181816",
"}$	c #080808",
"|$	c #040404",
"1$	c #30322F",
"2$	c #3B3C38",
"3$	c #45433D",
"4$	c #484A48",
"5$	c #424039",
"6$	c #383631",
"7$	c #242320",
"8$	c #20201D",
"9$	c #303231",
"0$	c #45453F",
"a$	c #4A4841",
"b$	c #4D4A45",
"c$	c #4C4B47",
"d$	c #4A4B48",
"e$	c #393934",
"f$	c #363530",
"g$	c #363630",
"h$	c #393732",
"i$	c #3A3833",
"j$	c #363430",
"k$	c #23221F",
"l$	c #11100F",
"m$	c #050404",
"n$	c #484843",
"o$	c #484742",
"p$	c #4C4A44",
"q$	c #43413C",
"r$	c #3C3A36",
"s$	c #393733",
"t$	c #393633",
"u$	c #373530",
"v$	c #35342F",
"w$	c #34322D",
"x$	c #32312C",
"y$	c #2D2C27",
"z$	c #23221E",
"A$	c #1A1A17",
"B$	c #1C1C19",
"C$	c #232220",
"D$	c #1F1E1C",
"E$	c #11100E",
"F$	c #060606",
"G$	c #34383B",
"H$	c #404242",
"I$	c #4F4C46",
"J$	c #504E47",
"K$	c #464540",
"L$	c #3F3D37",
"M$	c #3D3B37",
"N$	c #373630",
"O$	c #34322E",
"P$	c #31302B",
"Q$	c #2A2A25",
"R$	c #211F1D",
"S$	c #1C1C1A",
"T$	c #201F1C",
"U$	c #252420",
"V$	c #1F1E1B",
"W$	c #090908",
"X$	c #373A3C",
"Y$	c #404241",
"Z$	c #494944",
"`$	c #4A4843",
" %	c #4F4D46",
".%	c #44423B",
"+%	c #43413A",
"@%	c #43413B",
"#%	c #42403A",
"$%	c #36352F",
"%%	c #34332E",
"&%	c #302F2A",
"*%	c #2B2925",
"=%	c #262522",
"-%	c #272623",
";%	c #292824",
">%	c #2A2925",
",%	c #111211",
"'%	c #0B0A0A",
")%	c #36393C",
"!%	c #3E4141",
"~%	c #4A4942",
"{%	c #4E4C45",
"]%	c #494642",
"^%	c #46443E",
"/%	c #43403A",
"(%	c #43423B",
"_%	c #33322D",
":%	c #32322D",
"<%	c #2F2F29",
"[%	c #2B2A25",
"}%	c #2C2B27",
"|%	c #31312C",
"1%	c #32312D",
"2%	c #292926",
"3%	c #181917",
"4%	c #24292D",
"5%	c #3F4346",
"6%	c #515252",
"7%	c #4E4D48",
"8%	c #42413B",
"9%	c #413F39",
"0%	c #35342E",
"a%	c #31302C",
"b%	c #2F2F2A",
"c%	c #292925",
"d%	c #2F2E2A",
"e%	c #363632",
"f%	c #383834",
"g%	c #323230",
"h%	c #232522",
"i%	c #0F0F0C",
"j%	c #24292C",
"k%	c #41464B",
"l%	c #53585B",
"m%	c #525452",
"n%	c #51504A",
"o%	c #504F47",
"p%	c #4E4D46",
"q%	c #3C3A34",
"r%	c #33312D",
"s%	c #2B2B27",
"t%	c #2B2A26",
"u%	c #373733",
"v%	c #393937",
"w%	c #111010",
"x%	c #1F2324",
"y%	c #404448",
"z%	c #53585D",
"A%	c #52575B",
"B%	c #535351",
"C%	c #55554F",
"D%	c #54534C",
"E%	c #43423C",
"F%	c #413F3A",
"G%	c #33332E",
"H%	c #2C2B2A",
"I%	c #151616",
"J%	c #393C3D",
"K%	c #4F5357",
"L%	c #52585D",
"M%	c #54595E",
"N%	c #535658",
"O%	c #545553",
"P%	c #54544E",
"Q%	c #514F48",
"R%	c #4D4B44",
"S%	c #3F3F38",
"T%	c #454440",
"U%	c #262625",
"V%	c #2A2C2B",
"W%	c #404344",
"X%	c #4A4F51",
"Y%	c #4E5358",
"Z%	c #4E5255",
"`%	c #4C4E4E",
" &	c #4C4C48",
".&	c #4D4C45",
"+&	c #4F4E48",
"@&	c #504E48",
"#&	c #4B4A43",
"$&	c #46433F",
"%&	c #403F38",
"&&	c #414039",
"*&	c #3D3C3A",
"=&	c #2E2F2D",
"-&	c #202220",
";&	c #121211",
">&	c #232322",
",&	c #343535",
"'&	c #3E4142",
")&	c #424443",
"!&	c #41413E",
"~&	c #474641",
"{&	c #484642",
"]&	c #3D3C38",
"^&	c #3B3A37",
"/&	c #333330",
"(&	c #2F302D",
"_&	c #2F312F",
":&	c #282928",
"<&	c #141414",
"[&	c #1B1B1B",
"}&	c #292929",
"|&	c #333333",
"1&	c #353534",
"2&	c #343432",
"3&	c #333231",
"4&	c #353532",
"5&	c #383935",
"6&	c #383936",
"7&	c #393936",
"8&	c #3B3A38",
"9&	c #3B3B38",
"0&	c #3C3D3A",
"a&	c #3D3E39",
"b&	c #32302D",
"c&	c #2A2A27",
"d&	c #292927",
"e&	c #282826",
"f&	c #252524",
"g&	c #232422",
"h&	c #222322",
"i&	c #1E1F1E",
"j&	c #1C1D1B",
"k&	c #1C1C1C",
"l&	c #303130",
"m&	c #303131",
"n&	c #343433",
"o&	c #343332",
"p&	c #2A2B2B",
"q&	c #232423",
"r&	c #222423",
"s&	c #262523",
"t&	c #222222",
"u&	c #262827",
"                                                                                                                                ",
"                                                                                                                                ",
"                                                                                                                                ",
"                                                                                                                                ",
"                                                                                                                                ",
"                                                                                                                                ",
"                                                                                                                                ",
"                                                                                                                                ",
"                                                                                                                                ",
"                                                                                                                                ",
"                                                                                                                                ",
"                                                                                                                                ",
"                                                                                                                                ",
"                                . + @ # $ %           & * = - ; > , ' ) ! ~ { { ] ^ / ( _ : <                                   ",
"                                [ } | 1 2 3 4 5 6 7 8 9 0 a b c d e f g h h i j k l m n o p q r                                 ",
"                                % s t u v w x y z A B C C D E F G H I J K L K M N O P Q R S [ T                                 ",
"                                U V W X Y Z `  . ...+.@.#.$.%.&.*.=.-.;.;.>.,.'.).!.~.{.].^./.(.                                ",
"                              _.:.<.[.}.|.1.2.3.4.5.6.4.7.4.` 8.9.0.a.b.c.d.e.f.g.h.h.i.j.k.l.m.                                ",
"                              n.o.p.q.r.s.t.u.v.w.x.y.z.z.A.w.B.C.D.E.F.G.H.I.J.K.L.M.N.O.P.Q.R.                                ",
"                              _ S.T.U.V.W.Y X.Y.Z.`. +.+.+A.Z.++@+#+$+%+&+*+=+-+;+>+,+'+)+!+~+{+]+                              ",
"                              ^+/+(+_+:+&.<+[+}+|+1+3.w.2+3+3+2+4+5+6+7+8+s.9+0+a+b+c+d+e+f+g+h+i+                              ",
"                              n.j+k+l+F m+n+o+A.p+++3.5. .q+y.X.r+s+` t+u+v+w+x+a+J.y+z+A+B+C+D+E+                              ",
"                              F+- G+H+I+J+K+L+4+5.++M+N+5.O+P+X.s+2.Q+R+S+T+U+V+W+X+Y+Z+`+ @.@+@$                               ",
"                              @@#@$@%@n+n+&@*@.. .=@1+-@5.y.o+y.;@>@E.t.,@'@u+)@*+!@~@{@]@^@/@(@_@                              ",
"                              :@^.<@[@}@|@1@2@3@A.w.4@5@` y.6@7@6+8@9@0@a@b@c@X d@e@f@g@h@i@j@k@l@                              ",
"                              m@n@o@p@q@r@s@t@u@v@w@x@Y a@r+3+y@z@A@B@C@D@E@F@G@H@I@J@K@L@M@N@O@{+                              ",
"                              P@Q@R@S@T@U@V@9 W@L@V@X@Y@C Z@`@ # #.#+#0 @###$#%#&#*#=#-#;#V@>#,#'#                              ",
"                              3 4 )#R@!#T@~#{#]#^#/#K@y.X.(#`@z  #v _#:#<#[#-#}#|#}#1#2#3#4#5#6#7#                              ",
"                              8#9#0#a#b#c#d#e#f#g#g#h#i#j#k#(#B@l#m#v n#0 p@o#p#q#r#s#t#u#3#v#w#x#                              ",
"                              y#z#o#A#a#B#C#V@D#E#&@F#& G#H#P+I#A@k#x ##u#o#t#=#%#S@&#R@J#K#L#M#N#                              ",
"                              O#P#Q#R#S#T#U#c@V#W#E#z X#Y#Z#`#G# $.$.#u#-#+$@$r#z##$$$U@%$&$*$=$-$                              ",
"                              n@;$>$z..+A.3+,$'$}.)$!$~$|#t#2#{${${$]$^$2#/$($S#]$+$#$_$:$<$[$}$|$                              ",
"                              1$2$o+y. +3$ +r+8+4$)$E@$#1#2#2#^$2#Z#t#Y#2#`#5$}+U#2#6$c#7$8$m.T |$                              ",
"                              9$+#w@0$3+2+a$b$c$d$x@P+^$q#r#e$z#z#6$f$g$#$h$i$|#%#j$!#k$| '#*$l$m$                              ",
"                              j@]#n$o$N+;@@+p$` Z@L+q$r$%#%#0#s$t$C#f$f$f$u$v$w$x$y$z$A$B$C$D$E$F$                              ",
"                              G$H$C s+I$J$;@|+X.K$O+H#L$Z#Z#M$M$s#r#%#6$&#N$f$O$P$Q$R$S$T$U$V$(.W$                              ",
"                              X$Y$Z$`$ % %M+2+ +A. +.%+%+%@%H##%]$p#i$a#v$$%f$%%&%*%=%-%;%>%'#,%'%                              ",
"                              )%!%t+~%{%{%p$]%^%A.3+.+/%+%(%(%}+`#@$#$%%x$_%:%<%[%;%}%|%_%1%2%3%x#                              ",
"                              4%5%6%7%@+{% %;@++w.3+8%S#S#Q#9%9%L$s##$0%a%P$b%y$c%c%d%e%r#f%g%h%i%                              ",
"                              j%k%l%m%n%o%o%p%p$~%p+8%S#L$]$9%U#/$Z#q%6$O$r%x$b%s%t%a%u%+$X#v%>#w%                              ",
"                              x%y%z%A%I.B%C%D%#+N+7.q+3+3$Y.E%E%F%L$Z#1#}#~$*#K#a%d%G%r#T# #V@H%                                ",
"                              I%J%K%L%M%N%O%P%Q%R%{%@.@+B.++ .x.H#L$2#S#S%($`#p@Y#Y#S#8%O+T%u U%                                ",
"                                V%W%X%Y%Z%`% &.&{%J$+&@&I$p$#&u.$&@%8%8%#%%&&&#%P+j#8%G#m#*&=&-&                                ",
"                                ;&>&,&'&h@)&!&j#~&`$=@4.~&4.7.4+{&x.q+Y.Q#Y#q#=#]&^&/&(&_&:&{+                                  ",
"                                  <&[&}&|&1&2&3&4&5&6&7&8&9&P#P#0&a&Y#S@b&c&d&e&U f&g&h&i&j&                                    ",
"                                    k&E+            l&m&n&o&p&q&h&r&1 s&t&h&S u&                                                ",
"                                                                                                                                ",
"                                                                                                                                ",
"                                                                                                                                ",
"                                                                                                                                ",
"                                                                                                                                ",
"                                                                                                                                ",
"                                                                                                                                ",
"                                                                                                                                ",
"                                                                                                                                ",
"                                                                                                                                ",
"                                                                                                                                ",
"                                                                                                                                ",
"                                                                                                                                ",
"                                                                                                                                ",
"                                                                                                                                ",
"                                                                                                                                ",
"                                                                                                                                ",
"                                                                                                                                "};
