/* XPM */
static char * wall_xpm[] = {
"64 64 21 1",
" 	c #6F6821",
".	c #866898",
"+	c #7E6290",
"@	c #8D6EA3",
"#	c #87689D",
"$	c #614E55",
"%	c #9176A6",
"&	c #8C6DA3",
"*	c #6A5462",
"=	c #5D4B50",
"-	c #7A5E8C",
";	c #86679C",
">	c #836695",
",	c #7F6392",
"'	c #826497",
")	c #836598",
"!	c #786C30",
"~	c #736A29",
"{	c #68671B",
"]	c #886B9C",
"^	c #6B691A",
"                                                                ",
"                 ............    ++++++++++++                   ",
"                @............@  #++++++++++++#                  ",
"                @............@  #++++++++++++#                  ",
"                @............@  #++++++++++++#                  ",
"                @............@  #++++++++++++#                  ",
"                @............@  #++++++++++++#                  ",
"                @............@  #++++++++++++#                  ",
"                @............@  #++++++++++++#                  ",
"                @............@  #++++++++++++#                  ",
"                @............@  #++++++++++++#                  ",
"                @............@  #++++++++++++#                  ",
"                @............@  #++++++++++++#                  ",
"                @............@  #++++++++++++#                  ",
"                $%%%%%%%%%%%%$  $&&&&&&#####&$                  ",
"                 $$$$$$$****$    $$$$$=======                   ",
"                                                                ",
"                 ++++++++++++    +-----------                   ",
"                #++++++++++++;  >------------,                  ",
"                #++++++++++++#  ,------------'                  ",
"                #++++++++++++#  '------------'                  ",
"                #++++++++++++#  '------------'                  ",
"                #++++++++++++#  '------------'                  ",
"                #++++++++++++#  )------------'                  ",
"                #++++++++++++#  )------------'                  ",
"                #++++++++++++#  )------------'                  ",
"                #++++++++++++#  )------------'                  ",
"                #++++++++++++#  )------------'                  ",
"                #++++++++++++#  )------------'                  ",
"                #++++++++++++#  )------------'                  ",
"                $&&&&&&&&&&&&$  =############=                  ",
"                 $$$$$$$$$$$$    ============                   ",
"                                                                ",
"                 +++++++         ++++++++++++                   ",
"                #+++++++        #++++++++++++#    !~            ",
"                #++++++++       #++++++++++++!~  ~!{            ",
"                #+++++++++++    #++++++++++++{~~ ~~             ",
"                #++++++++++++   #++++++++++++#{~~~{             ",
"                #++++++++++++#  #++++++++++++#{~~{              ",
"                #++++++++++++#  #++++++++++++# {~               ",
"                #++++++++++++#  #++++++++++++#                  ",
"                #++++++++++++#  #++++++++++++#                  ",
"                #++++++++++++#  #++++++++++++#                  ",
"                #++++++++++++#  #++++++++++++#                  ",
"                #++++++++++++#  #++++++++++++#                  ",
"                #++++++++++++#  #++++++++++++#                  ",
"                $&&&&&&&&&&&&$  $&&&&&&&&&&&&$                  ",
"             !~~ $$$$$$$$$$$$    $$$$$$$$$$$$                   ",
"              ~~~                                               ",
"               {{+---------++    ............                   ",
"                #-----------+;  ]............&                  ",
"                )------------#  &............&                  ",
"                )------------)  &............@                  ",
"                )------------)  @............@                  ",
"                )------------)  @............@                  ",
"                )------------)  @............@                  ",
"                )------------)  @.........!..@                  ",
"                )------------)  @..........!.@                  ",
"                )------------)  @..........~~*                  ",
"                )------------)  @......%%%^~~                   ",
"                )------------)  @.....@**!~^^                   ",
"                )------------)  @.....@  ~~                     ",
"                =############=  *%%%%%*  ^^                     ",
"                 ============    *****                          "};
