/* XPM */
static char * wall_bottom_xpm[] = {
"64 64 690 2",
"  	c None",
". 	c #111210",
"+ 	c #070707",
"@ 	c #060606",
"# 	c #040404",
"$ 	c #020202",
"% 	c #080808",
"& 	c #1C1F1F",
"* 	c #2E3337",
"= 	c #272C31",
"- 	c #3A3E40",
"; 	c #36393C",
"> 	c #363B3E",
", 	c #353737",
"' 	c #373936",
") 	c #373734",
"! 	c #333330",
"~ 	c #343330",
"{ 	c #353533",
"] 	c #31332F",
"^ 	c #333333",
"/ 	c #2E2F2C",
"( 	c #272A29",
"_ 	c #242525",
": 	c #272929",
"< 	c #272927",
"[ 	c #20201E",
"} 	c #141412",
"| 	c #0A0A09",
"1 	c #171714",
"2 	c #161613",
"3 	c #0D0E0D",
"4 	c #383A3A",
"5 	c #52565B",
"6 	c #535A60",
"7 	c #535557",
"8 	c #434441",
"9 	c #4B4C47",
"0 	c #494A46",
"a 	c #444440",
"b 	c #403F3A",
"c 	c #403F3B",
"d 	c #3C3A36",
"e 	c #31312E",
"f 	c #33332E",
"g 	c #2E2E2B",
"h 	c #333535",
"i 	c #393C40",
"j 	c #393C3F",
"k 	c #3C3F43",
"l 	c #464A4B",
"m 	c #3B3B3B",
"n 	c #30312F",
"o 	c #2F302E",
"p 	c #191916",
"q 	c #131310",
"r 	c #4C5256",
"s 	c #51575E",
"t 	c #535655",
"u 	c #4E4C47",
"v 	c #494740",
"w 	c #4A4743",
"x 	c #494743",
"y 	c #464640",
"z 	c #44433E",
"A 	c #3C3B36",
"B 	c #3A3733",
"C 	c #363531",
"D 	c #393733",
"E 	c #43413C",
"F 	c #4C4E4C",
"G 	c #44474C",
"H 	c #43474E",
"I 	c #4E5051",
"J 	c #515353",
"K 	c #444645",
"L 	c #343633",
"M 	c #33332F",
"N 	c #1E1E1B",
"O 	c #121210",
"P 	c #11110E",
"Q 	c #10100F",
"R 	c #3E4144",
"S 	c #545A60",
"T 	c #55575B",
"U 	c #51504A",
"V 	c #4E4C45",
"W 	c #4E4C46",
"X 	c #504E47",
"Y 	c #4E4B45",
"Z 	c #45443E",
"` 	c #45433E",
" .	c #44433C",
"..	c #312F2B",
"+.	c #2E2C27",
"@.	c #2A2926",
"#.	c #292724",
"$.	c #373935",
"%.	c #494A49",
"&.	c #4F5153",
"*.	c #4C4E4F",
"=.	c #4E504E",
"-.	c #4A4C4A",
";.	c #454644",
">.	c #3E3E3A",
",.	c #262624",
"'.	c #131315",
").	c #0E0E0C",
"!.	c #11110F",
"~.	c #0F0F0D",
"{.	c #1B1B1C",
"].	c #464A4C",
"^.	c #505457",
"/.	c #545553",
"(.	c #504F47",
"_.	c #4E4C44",
":.	c #4F4E46",
"<.	c #514F49",
"[.	c #474640",
"}.	c #46453E",
"|.	c #3E3C36",
"1.	c #2A2925",
"2.	c #2C2A27",
"3.	c #2F2F2A",
"4.	c #33342F",
"5.	c #40403E",
"6.	c #454746",
"7.	c #464947",
"8.	c #505150",
"9.	c #50514F",
"0.	c #4F504E",
"a.	c #535351",
"b.	c #43413E",
"c.	c #2C2B29",
"d.	c #1E1E1E",
"e.	c #0D0D0B",
"f.	c #10100E",
"g.	c #202020",
"h.	c #48494A",
"i.	c #5A5A53",
"j.	c #47463E",
"k.	c #4E4B44",
"l.	c #3F3E39",
"m.	c #343431",
"n.	c #3E3C39",
"o.	c #40413F",
"p.	c #464949",
"q.	c #494C4B",
"r.	c #464747",
"s.	c #3C3B39",
"t.	c #494945",
"u.	c #4F4E49",
"v.	c #43433F",
"w.	c #30302E",
"x.	c #1E201E",
"y.	c #0C0C0A",
"z.	c #151512",
"A.	c #2B2C2E",
"B.	c #515049",
"C.	c #53514B",
"D.	c #4C4A44",
"E.	c #4B4943",
"F.	c #46453F",
"G.	c #474744",
"H.	c #41433F",
"I.	c #3C3E3E",
"J.	c #3E4041",
"K.	c #3E4040",
"L.	c #404140",
"M.	c #474945",
"N.	c #45453E",
"O.	c #3F3E37",
"P.	c #43403B",
"Q.	c #4A4741",
"R.	c #494741",
"S.	c #464541",
"T.	c #363634",
"U.	c #080806",
"V.	c #0F0F0E",
"W.	c #323535",
"X.	c #515454",
"Y.	c #4C4A43",
"Z.	c #474743",
"`.	c #4B4B49",
" +	c #494B49",
".+	c #474746",
"++	c #454645",
"@+	c #3E403F",
"#+	c #3E403B",
"$+	c #43433C",
"%+	c #45433C",
"&+	c #47453F",
"*+	c #47463F",
"=+	c #474641",
"-+	c #454441",
";+	c #3B3E3B",
">+	c #0D0D0C",
",+	c #070705",
"'+	c #343737",
")+	c #50504D",
"!+	c #514F47",
"~+	c #474541",
"{+	c #444544",
"]+	c #464744",
"^+	c #474747",
"/+	c #454747",
"(+	c #3E3E3E",
"_+	c #454540",
":+	c #474540",
"<+	c #4A4943",
"[+	c #4A4945",
"}+	c #414141",
"|+	c #060605",
"1+	c #171715",
"2+	c #424447",
"3+	c #4F4F4B",
"4+	c #504F49",
"5+	c #474740",
"6+	c #403F39",
"7+	c #41403A",
"8+	c #43413A",
"9+	c #403E39",
"0+	c #3E3E37",
"a+	c #444644",
"b+	c #4B4B47",
"c+	c #4C4B45",
"d+	c #4C4B43",
"e+	c #494943",
"f+	c #4C4C47",
"g+	c #414341",
"h+	c #10110F",
"i+	c #070706",
"j+	c #0E0E0D",
"k+	c #1A1A18",
"l+	c #46494B",
"m+	c #53504A",
"n+	c #43403A",
"o+	c #3B3A34",
"p+	c #3C3B35",
"q+	c #373731",
"r+	c #3E3E39",
"s+	c #43433E",
"t+	c #43413B",
"u+	c #4A4A46",
"v+	c #4C4C49",
"w+	c #43433B",
"x+	c #4B4B43",
"y+	c #4E4E49",
"z+	c #1B1B1A",
"A+	c #45474A",
"B+	c #3E3C37",
"C+	c #44433B",
"D+	c #3A3933",
"E+	c #3C3A35",
"F+	c #444340",
"G+	c #4C4B44",
"H+	c #4E4E4A",
"I+	c #3A3C39",
"J+	c #343639",
"K+	c #161616",
"L+	c #47494B",
"M+	c #4F514E",
"N+	c #413F39",
"O+	c #413F3A",
"P+	c #373733",
"Q+	c #403E37",
"R+	c #464643",
"S+	c #464743",
"T+	c #41403B",
"U+	c #41413C",
"V+	c #47453E",
"W+	c #4A4944",
"X+	c #4E4F4C",
"Y+	c #373A3A",
"Z+	c #2E3133",
"`+	c #0E0E0E",
" @	c #3C3F40",
".@	c #525353",
"+@	c #3A3734",
"@@	c #434340",
"#@	c #44433F",
"$@	c #45443F",
"%@	c #4E4E4B",
"&@	c #515355",
"*@	c #3E4043",
"=@	c #3B3935",
"-@	c #0B0B0A",
";@	c #262828",
">@	c #454648",
",@	c #373633",
"'@	c #494946",
")@	c #474643",
"!@	c #505049",
"~@	c #53575C",
"{@	c #434547",
"]@	c #2F3033",
"^@	c #0C0D0C",
"/@	c #1D1D1C",
"(@	c #3E3E3B",
"_@	c #3A3934",
":@	c #3C3A34",
"<@	c #35332E",
"[@	c #403E3A",
"}@	c #393734",
"|@	c #3C3C3A",
"1@	c #50504C",
"2@	c #50504A",
"3@	c #5A5F63",
"4@	c #464B4F",
"5@	c #090908",
"6@	c #191814",
"7@	c #3A3932",
"8@	c #3B3933",
"9@	c #36352F",
"0@	c #35342F",
"a@	c #373630",
"b@	c #34332E",
"c@	c #3E3F3C",
"d@	c #3E3F3B",
"e@	c #363635",
"f@	c #3B3C3A",
"g@	c #454643",
"h@	c #4E4C4B",
"i@	c #4C4E49",
"j@	c #474944",
"k@	c #4C4E47",
"l@	c #4E4E4C",
"m@	c #4F5151",
"n@	c #555A5E",
"o@	c #46474C",
"p@	c #272B2E",
"q@	c #0C0C0B",
"r@	c #0C0C0C",
"s@	c #080908",
"t@	c #171616",
"u@	c #393936",
"v@	c #35332F",
"w@	c #31302C",
"x@	c #31302B",
"y@	c #363631",
"z@	c #363530",
"A@	c #3B3B37",
"B@	c #3E3E3C",
"C@	c #3B3E3E",
"D@	c #3E3F3F",
"E@	c #444443",
"F@	c #50514E",
"G@	c #4C4E4A",
"H@	c #4E5153",
"I@	c #505353",
"J@	c #53575B",
"K@	c #454A4E",
"L@	c #2A2B2C",
"M@	c #0F100E",
"N@	c #101110",
"O@	c #383833",
"P@	c #33312E",
"Q@	c #30302B",
"R@	c #373530",
"S@	c #3E3C3A",
"T@	c #40403C",
"U@	c #51534E",
"V@	c #535451",
"W@	c #535556",
"X@	c #535757",
"Y@	c #535559",
"Z@	c #464B4E",
"`@	c #212227",
" #	c #101111",
".#	c #353532",
"+#	c #33312C",
"@#	c #2E2E29",
"##	c #373631",
"$#	c #3B3B35",
"%#	c #3C3C36",
"&#	c #4E4F4B",
"*#	c #535553",
"=#	c #535554",
"-#	c #545757",
";#	c #565A5E",
">#	c #464C50",
",#	c #222628",
"'#	c #121314",
")#	c #393B3A",
"!#	c #2B2A26",
"~#	c #2E2E27",
"{#	c #3E3B35",
"]#	c #393935",
"^#	c #4F4F4F",
"/#	c #535454",
"(#	c #535555",
"_#	c #55595C",
":#	c #565B61",
"<#	c #54595E",
"[#	c #464B51",
"}#	c #212527",
"|#	c #0C0D0B",
"1#	c #111110",
"2#	c #101213",
"3#	c #3A3B3B",
"4#	c #302F2B",
"5#	c #272724",
"6#	c #2F2E29",
"7#	c #353430",
"8#	c #3B3A36",
"9#	c #474A46",
"0#	c #555757",
"a#	c #535654",
"b#	c #535453",
"c#	c #575A5A",
"d#	c #595E64",
"e#	c #575E64",
"f#	c #535960",
"g#	c #494F56",
"h#	c #212529",
"i#	c #080907",
"j#	c #0F1112",
"k#	c #353839",
"l#	c #2F2E2A",
"m#	c #292925",
"n#	c #242220",
"o#	c #201F1C",
"p#	c #34342F",
"q#	c #3B3934",
"r#	c #3C3C35",
"s#	c #4A4E4F",
"t#	c #5C6367",
"u#	c #575E63",
"v#	c #56595B",
"w#	c #5E6163",
"x#	c #5E6367",
"y#	c #575E65",
"z#	c #505961",
"A#	c #474E57",
"B#	c #080807",
"C#	c #101010",
"D#	c #2C2E2F",
"E#	c #21201E",
"F#	c #161614",
"G#	c #2C2A26",
"H#	c #4B5054",
"I#	c #555C64",
"J#	c #575E61",
"K#	c #53575E",
"L#	c #575C61",
"M#	c #575F66",
"N#	c #51575C",
"O#	c #494F55",
"P#	c #3E4349",
"Q#	c #1B1C1F",
"R#	c #050504",
"S#	c #050606",
"T#	c #26282A",
"U#	c #464440",
"V#	c #3B3A35",
"W#	c #252521",
"X#	c #1C1C19",
"Y#	c #22221F",
"Z#	c #252520",
"`#	c #2A2B27",
" $	c #3C3C37",
".$	c #3F3E3C",
"+$	c #434647",
"@$	c #4E5155",
"#$	c #4A4E4E",
"$$	c #474B4F",
"%$	c #474E53",
"&$	c #494E53",
"*$	c #37393A",
"=$	c #2A2E2E",
"-$	c #1B1C1C",
";$	c #090909",
">$	c #18191B",
",$	c #363633",
"'$	c #454641",
")$	c #3F3F3B",
"!$	c #302F2C",
"~$	c #272622",
"{$	c #222221",
"]$	c #1F1F1C",
"^$	c #2B2A27",
"/$	c #3C3C3B",
"($	c #3A3B39",
"_$	c #3A3C3A",
":$	c #3F4346",
"<$	c #434A50",
"[$	c #3A3E43",
"}$	c #303336",
"|$	c #2F3131",
"1$	c #2F2F2E",
"2$	c #222220",
"3$	c #060604",
"4$	c #090907",
"5$	c #212222",
"6$	c #31302E",
"7$	c #353635",
"8$	c #2C2E2B",
"9$	c #1B1C1A",
"0$	c #151515",
"a$	c #191716",
"b$	c #121212",
"c$	c #151717",
"d$	c #1E1F20",
"e$	c #272A2F",
"f$	c #303439",
"g$	c #333435",
"h$	c #292929",
"i$	c #272726",
"j$	c #252522",
"k$	c #151514",
"l$	c #050505",
"m$	c #1F2022",
"n$	c #161617",
"o$	c #191A19",
"p$	c #1B1B1B",
"q$	c #21211E",
"r$	c #131312",
"s$	c #0A0A08",
"t$	c #030303",
"u$	c #242527",
"v$	c #2D2F2F",
"w$	c #2E2B27",
"x$	c #1E1E1A",
"y$	c #151212",
"z$	c #0E0E0B",
"A$	c #2B2925",
"B$	c #2C2B27",
"C$	c #262622",
"D$	c #252420",
"E$	c #1F1E1A",
"F$	c #262623",
"G$	c #181816",
"H$	c #232426",
"I$	c #363636",
"J$	c #272722",
"K$	c #2E2E2A",
"L$	c #292726",
"M$	c #22221E",
"N$	c #272725",
"O$	c #1C1C1A",
"P$	c #3C3D3F",
"Q$	c #33302B",
"R$	c #30302A",
"S$	c #302F2A",
"T$	c #2A2A26",
"U$	c #3A3935",
"V$	c #1C1C1B",
"W$	c #1D1D1A",
"X$	c #121211",
"Y$	c #121214",
"Z$	c #363430",
"`$	c #262521",
" %	c #2A2725",
".%	c #434341",
"+%	c #494A47",
"@%	c #4A4842",
"#%	c #141413",
"$%	c #131311",
"%%	c #232526",
"&%	c #3B3B36",
"*%	c #515150",
"=%	c #4B4D4D",
"-%	c #525352",
";%	c #4B4843",
">%	c #4A4841",
",%	c #080606",
"'%	c #141411",
")%	c #1C1B18",
"!%	c #484A4A",
"~%	c #4D4D47",
"{%	c #292924",
"]%	c #1F1E1C",
"^%	c #3C3B37",
"/%	c #444441",
"(%	c #474947",
"_%	c #54585D",
":%	c #505355",
"<%	c #4D4E4E",
"[%	c #4C4D4C",
"}%	c #484746",
"|%	c #43423C",
"1%	c #0F0D0D",
"2%	c #272727",
"3%	c #2B2B27",
"4%	c #393A35",
"5%	c #494A4A",
"6%	c #4E5050",
"7%	c #4F5155",
"8%	c #4B4C4C",
"9%	c #464848",
"0%	c #4A4E4D",
"a%	c #494A4B",
"b%	c #444442",
"c%	c #43423E",
"d%	c #46433E",
"e%	c #181815",
"f%	c #2E2F2F",
"g%	c #454340",
"h%	c #44443E",
"i%	c #4A4C4C",
"j%	c #4A4C4E",
"k%	c #4A4D4A",
"l%	c #4B4E4F",
"m%	c #4C4E4E",
"n%	c #4B4C4B",
"o%	c #47484A",
"p%	c #464746",
"q%	c #413F3D",
"r%	c #1E1D1C",
"s%	c #111111",
"t%	c #3A3C3C",
"u%	c #4B4E4E",
"v%	c #484948",
"w%	c #474847",
"x%	c #4A4B4A",
"y%	c #464544",
"z%	c #444542",
"A%	c #434444",
"B%	c #434442",
"C%	c #44443F",
"D%	c #21201F",
"E%	c #393933",
"F%	c #515047",
"G%	c #4B4A43",
"H%	c #494B4A",
"I%	c #494B4C",
"J%	c #4B4D50",
"K%	c #484A4B",
"L%	c #464646",
"M%	c #464745",
"N%	c #444240",
"O%	c #474642",
"P%	c #44423D",
"Q%	c #252321",
"R%	c #222322",
"S%	c #414343",
"T%	c #46443E",
"U%	c #53514A",
"V%	c #474A4A",
"W%	c #494C4C",
"X%	c #494B4B",
"Y%	c #4E5054",
"Z%	c #4C4F52",
"`%	c #474849",
" &	c #3F3E3B",
".&	c #45433F",
"+&	c #434240",
"@&	c #4C4A45",
"#&	c #262523",
"$&	c #2C2C2C",
"%&	c #363632",
"&&	c #4A4941",
"*&	c #55534C",
"=&	c #474745",
"-&	c #4A4E51",
";&	c #403E3D",
">&	c #3E3D39",
",&	c #3D3B38",
"'&	c #41413D",
")&	c #4F4D47",
"!&	c #292825",
"~&	c #30302F",
"{&	c #55544E",
"]&	c #56544E",
"^&	c #4F4E47",
"/&	c #4C5053",
"(&	c #4A4D4F",
"_&	c #3F3D39",
":&	c #3C3A37",
"<&	c #3A3835",
"[&	c #292926",
"}&	c #4B4B48",
"|&	c #43423D",
"1&	c #3B3936",
"2&	c #3D3B37",
"3&	c #484740",
"4&	c #2D2C2A",
"5&	c #34322D",
"6&	c #46443F",
"7&	c #57564F",
"8&	c #59574F",
"9&	c #4B4A44",
"0&	c #413F3B",
"a&	c #54524C",
"b&	c #56554E",
"c&	c #57554E",
"d&	c #5A5751",
"e&	c #4E4D46",
"f&	c #484641",
"g&	c #484743",
"                                                                                                                                ",
"                                                                                                                                ",
"                                                                                                                                ",
"                                                                                                                                ",
"                                                                                                                                ",
"                                                                                                                                ",
"                                                                                                                                ",
"                                                                                                                                ",
"                                                                                                                                ",
"                                                                                                                                ",
"                                                                                                                                ",
"                                                                                                                                ",
"                                                                                                                                ",
"                                                                                                                                ",
"                                                                                                                                ",
"                                                                                                                                ",
"                                                                                                                                ",
"                                                                                                                                ",
"                                                                                                                                ",
"                                                                      . + + + + @ # $                                           ",
"                                          % & * = - ; > , ' ) ! ~ { ] ! ^ / ( _ : < [ } |                                       ",
"                                    1 2 3 4 5 6 7 8 9 0 a b c b d e f g h i j k l m n o p                                       ",
"                                  q 2 + : r s t u v w x y z z A B C D E F G H I J K L M N                                       ",
"                                O P q Q R S T U V W X Y Z `  .A ..+.@.#.$.%.&.*.=.-.;.>.,.'.                                    ",
"                                ).!.~.{.].^./.(.Y _.:.<.[. .}.|.1.2.3.4.5.6.7.8.9.0.a.b.c.d.                                    ",
"                                e.!.f.g.h.0.i.(.X w j.W k.` Z l.m.n.o.p.q.r.5.s.t.u.u v.w.x.                                    ",
"                                y.z.O A.*.B.C.D.E.` ` F.u t.G.H.I.J.K.L.M.W N.O.P.Q.R.S.T.                                      ",
"                                U.~.V.W.X._.E.Y.[. .Z Z.`. +.+++r.@+#+$+%+w &+*+&+=+v -+;+                                      ",
"                              >+,+~.Q '+)+!+E.*+Z Z ` ~+0 {+]+^+/+(+' _+[.E.R.V &+:+<+[+}+                                      ",
"                              . |+).1+2+3+4+5+6+7+ .8+9+P.>.0+8 a+H.8 b+c+d+R.R.E z e+f+g+                                      ",
"                              h+i+j+k+l+0.m+R.O.|.n+8+D o+p+q+r+s+t+u+v+D.D.w [.w+Z x+y+(+v.                                    ",
"                              ).i+j+z+A+0.Y &+B+b C+8+D+D 0+E+B+b.F+u+G.` :+*+Z  . .G+H+I+J+                                    ",
"                              e.i+j+K+L+M+<+` N+6+ .O+D P+0+B+Q+S.R+S+` T+U+z Z V+F.W+X+Y+Z+                                    ",
"                              y.i+~.`+ @.@w z 7+N+t+O++@P+B+9+U+R+@@s+$+E #@$@Z <+Y %@&@*@=@                                    ",
"                              e.U.-@>+;@>@O+b Q+|.O.B+B ,@0+9+v.'@s+s+S.X W )@W+X !@9.~@{@]@                                    ",
"                                U.y.^@/@(@O.|.|._@o+:@P+<@|.[@5.b.}@|@G.1@u w W u 2@a.3@4@}@                                    ",
"                                5@e.>+6@7@l.0+8@9@0@B a@b@A B+c@d@e@f@g@h@i@j@y k@l@m@n@o@p@                                    ",
"                                q@r@s@t@u@N+0+v@w@x@a@y@z@0+B+A@B@C@D@E@H+F@'@Z.G@H@I@J@K@L@                                    ",
"                                e.e.M@N@O@O.0+P@Q@b@a@R@R@N+Q+A 0+S@(@T@Z.U@V@=.l@W@X@Y@Z@`@                                    ",
"                              ~.f.~.!. #.#t+p++#@#f ##b@##8+0+o+B+A $#%#v.&#*#=#J -#;#J@>#,#                                    ",
"                              ~.~.).f.'#)#t+P+@#!#~#0@..a@ .B+P+{#o+##]#G.^#/#(#-#_#:#<#[#}#                                    ",
"                              ~.~.|#1#2#3#z 4#1.5##.6#~#7#7+B+##D o+a@8#9#0#a#b#c#d#e#f#g#h#                                    ",
"                                e.i#f.j#k#Z f l#+.m#n#o#+.o+_@p#q#r#_@c@s#t#u#v#w#x#y#z#A#,#                                    ",
"                              ~.q@B#+ C#D#}.E+P+P+x@E#F#N G#~#@#=@O.8#g+H#I#J#K#L#M#N#O#P#Q#                                    ",
"                              ~.y.B#R#S#T#U#t+O.V#x@W#X#N Y#Z#`# $.$A@>.+$@$#$$$%$&$+$*$=$-$                                    ",
"                              | ;$5@|+# >$,$'$)$) !$~$~${$]$[ ^$n./$($_$:$<$[$}$Z+|$1$2$f.~.                                    ",
"                              3$4$4$R#|+'.5$6$7$8$9$0$z.a$Q q@`+b$} c$d$e$f$g$h$i$j$k$-@@ l$                                    ",
"                              ).;$4$l$>+# m$-$n$4$@ @ # $ $ $ $ + } {${$d.o$g.p$N@;$).C#y.$                                     ",
"                              q$r$s$B#j+t$R#u$v$w$5#~$x$p y$O z$4$4$x$q$~$A$B$Y#Y#C$D$E$X#$                                     ",
"                              F$G$| e.e.t$H$I$P@_@4#f +#J$Y#n#K$L$x$E#Y#m#3.O.P+x@j$~$m#M$$                                     ",
"                              N$O$5@).).l$P$P@=@D Q$q+a@R$S$n#6#f m#T$0@U$B+E U+l.O.b@7#N$V$                                    ",
"                                W$y.X$).Y$m +@7+T+_@Z$A P@#.`$ %1.~$q$#.l.u+.%+%Z.@%N+w@@.#%                                    ",
"                                1+q@$%i+%%e *+7+t+5+o+x@+.E#@#b@f f &%Z.*%(#=%-%)+;%>%##@#,%                                    ",
"                                O -@'%% )%!%~%n+O.P.|.{%]%Y#o#1.^%/%(%H@_%:%%.<%[%}%c+|%7#1%                                    ",
"                                -@5@P l$2%0 Y.q+E+[.T+4#B$3%4%]+5%-.6%7%H@8%9%0%a%b%c%d%P+e%                                    ",
"                                i+e.!.;$f%g%v O.` 7+ .$+ .h%R+i%j%k%l%m%n%i%o%L+p%@@q%` D r%                                    ",
"                                i+f.V.s%t%j.t+7+z <+:.Q.G+E.^+u%v%-.u%%.w%x%9%y%z%A%B%C%E+D%                                    ",
"                                s$~.V./@K.R.E%z F%V Y G%G%.+H%I%;.i%J%K%L%M%8 N%z%A%.%O%P%Q%                                    ",
"                              e.B#V.V.R%S%T%B+G+U%V k.w w t.V%W%X%Y%Z%I%`%b% &.&+&/%c%:+@&#&                                    ",
"                                + !.>+$&%&Q.&&X *&F%_.w [.` =&s#-&u%H%z%;&>&d ,&b '&.&:+)&!&                                    ",
"                                + ~.;$~&0@R.Q.:.{&]&X ^&Y.` .+/&(&;.c%_&:&=@=@<&:&>&c%R.<.[&                                    ",
"                                R#).r@o f E.D.V U%*&!+(.d+U#r.u%}&|&T+d <&1&<&U$<&2&[@3&*&4&                                    ",
"                                t$t$|+5&6&(._.k.7&8&!+k.R.9&M%=&d+P%O+d 1&1&1&1&1&8#0&@%a&$+                                    ",
"                                t$$ @ ]#b&]&c&U%d&7&*&D.5+Y D.9&e&f&P%[@n.:&:&1&1&,&0&g&X u                                     "};
