/* XPM */
static char * wall_limit_xpm[] = {
"64 64 88 1",
" 	c #180D0C",
".	c #190E0D",
"+	c #160B0A",
"@	c #180E0C",
"#	c #110706",
"$	c #0C0403",
"%	c #110807",
"&	c #100706",
"*	c #110707",
"=	c #0F0605",
"-	c #0C0504",
";	c #0E0504",
">	c #120807",
",	c #170B0B",
"'	c #150B0A",
")	c #180E0D",
"!	c #170B0A",
"~	c #140A09",
"{	c #130A09",
"]	c #170C0C",
"^	c #140908",
"/	c #100605",
"(	c #150A09",
"_	c #120908",
":	c #1A0E0D",
"<	c #130908",
"[	c #160A09",
"}	c #1B100F",
"|	c #170A0A",
"1	c #1B0F0E",
"2	c #160C0B",
"3	c #0C0404",
"4	c #0B0303",
"5	c #160A0A",
"6	c #1A0F0E",
"7	c #0E0605",
"8	c #0B0403",
"9	c #0B0302",
"0	c #170D0C",
"a	c #130807",
"b	c #1C100F",
"c	c #0E0505",
"d	c #0F0504",
"e	c #0F0706",
"f	c #160B0B",
"g	c #100705",
"h	c #070201",
"i	c #150908",
"j	c #090201",
"k	c #190D0C",
"l	c #090101",
"m	c #080201",
"n	c #0F0606",
"o	c #0A0202",
"p	c #110806",
"q	c #160C0A",
"r	c #080101",
"s	c #0A0201",
"t	c #120808",
"u	c #0F0604",
"v	c #090302",
"w	c #130A0A",
"x	c #120907",
"y	c #0E0403",
"z	c #0A0302",
"A	c #160D0B",
"B	c #0C0605",
"C	c #100707",
"D	c #140B0A",
"E	c #0D0504",
"F	c #120706",
"G	c #190F0D",
"H	c #150C0B",
"I	c #0D0403",
"J	c #120909",
"K	c #110908",
"L	c #140A0A",
"M	c #150B09",
"N	c #090202",
"O	c #040101",
"P	c #060101",
"Q	c #030100",
"R	c #170C0B",
"S	c #140807",
"T	c #0D0505",
"U	c #150A0A",
"V	c #180B0B",
"W	c #120A09",
" .++ @#$#%&*&=#==$-;=%>>*=;#>,%,. '  ). +!~{>%#']^#=/#^%#>(^_%>>",
".  ] :.'%=%#&====;;=/_<_#$$&%&;]:.]]] .]+  [~__~(_>&&(^_><~[{#<>",
"}]|! .1(2_#>=;;==;3//%%%;443#%44_~52]+]  ] '((_%#>_%<<{><<~^_>>~",
"1]<6 61(6]/&===&=7738$;=-3$8$&=94=#/%0+0] ]^_>_<><%###><<<~^#<a]",
"b~>1.61 '~'>c;==;;;$89d;#=4--9/e$c;&7==>^~{>>>>(<_>&%%%>><(~_^<(",
"b#/: 616f'@ %3/=c/=4$$=;//73g$4<>##%&%<<{~_%<<('(~~<<<~34;=$>>>%",
"b'(~](<'a<,]#;=;/#==;#<&#/d8&&h%2a%&&a+0<%>_<~!!+^~'i(~9={&j%%%%",
"b#8><k(aa=$=&#;4&/;/;&_%=7=4=%ldb@>%<$m9~&###<(+|+<a&nao#~>9&&%&",
"b1>=&d&^~_%_a>/=;%#===#/3$#=%%#%<<>'(&&8>]#=_^~+5'p~q&l4++_9=;**",
"bbb .>%>^) :5^##>[~_-=d4r#<+'_%##%#(.1b_~++%><<''>%@%m3.],+%%d#%",
"bbbbb1_+.b1}6@ +(<_(+_#=/<>~+^><<_&_~+b+.]5+5!^'5_%. 0f..k]!5''~",
"bbbbbb , 61b1+=&>=9<  |%%n<'+('~((=(<~b :+]]].0{+_ 616666.. ,!@5",
"bbbbbbbf{b6b(d;#>^*//<~<#;$^(++'~>>~<%}'~'^..162+%p[161666111:  ",
"bbbbbbb6+)b;st>%#%#c999=394%(~>99&#_=4&&(~s~]61.*$#2,:6}}1bb66::",
"bbbbbbbb6~d49(<>%&;;944&$499$-349sl4/uvj{/h#%(.++<w50)6}6}b6(}6}",
"bbbbbb:b]/3%#>_%%##==$;=3944/#*&;lmv99/<~d8#__<('!(+!~b1bb}b+bbb",
"bbbbb6.6 %><^&#_<%==7;=;9s44;&%*;;om;&+}}a##a>x>~(~~)=11166}' bb",
"bbbbb  66~_%<&=<>%;-7=;;--o83;#~7y9s=/~11oz(~((%>~__^! 6bbbb]~bb",
"bbbb} ]6.><<<=/%#//4;$-77333=%#=_dsvd;/_+sr(((+(>#>#&~.bbbbb1'bb",
"bbbb}b6  =#<<#&3=;8=--$$3;-9=*#%d=#4/#/_2m/<<((<_%>=9e}bbbbbb%5b",
"b161bbb}A&%<#=B44z$-;4$83;99c%###&#==~_>sm%%>('<~%%$%6bbbbbbb<_b",
"b. '_+b54/^_#7=9s8$9-99$=49--&#'_#/%/&^>9={<^~<<<<#j<1bbbbbb1~#}",
"}==_d=#;;###7$$8os$3-$9-;$=dd><<~>%<'=_~%%_<<>%_%<%g< bbbb: +d=.",
"69=%%<<~~_>*&4$;8s8--$98;3&<_/_<(+<%>&%%3><<<_~~<~*c</'bbb_:1*>6",
"+=<<%%<('~<(~#;49sr;-$4943&><+(>~'</>q_*%__<>>><_<<#__5}b.q +#<:",
"qt^<%%^(+<___/38ohl$3=4;o;=;%^(~(~#3s/(<>~>>/##%%<>t>((.6_C_<>_.",
"g=D<<_%<~>#<<3;4$9489_>_%t44/~+<<~^=&{1(<{_%=&#%_%>%%~+6~-><%%<(",
"%4_>_%%&)%&_%//=$7#&;#%_%#79#=<{#>%>+ .6+<~#/&##%#%_>>6b#&#<_<~(",
"_<'(<>#>{/#%{+{%%a_==o4/~=4&/c%#/E%yx..6./#~~%%%>##>__bb'[;<%_%+",
"(<+~>>> <=/{+]^%_<>#-l%bb1 #d=#*c8c$z&'~F9$#%>_%#/><*(bb+G#%<'(~",
"(%<<%>~.<<H(_<^_#<_>c_<bbb6=$&#*#=;=l9mo/-4d#%&&%<<_><bb..*_~']!",
">#_<<+.b1+ ^#;=#<<<a#^(bbbb=j%%%#%ga&7<>>;&=/$ol%<<~#'bb_'%<~~+]",
"z9#+111bb} 616/#<~<%#~]bbbb99__<=%%*_=!<=;>%%a;$#~~<#;C+  #''_%=",
"98$_1611}11.}b;j'(~==c+bbbb$3~<>e=%___~~=y/%>%><(+<=;&>f]<(<<#=;",
"_;3#~b}@bbb1}29j<<a&^/=(bb:;/q(n=c;a{>-#<<%%(<%~'](#;/!.<-~~#c##",
"^>%~7#&c#[b1 DsI(<%#^^_{1b5={~(%<>%%#d8%<(^~<~# ,^<=;;=/~#~Jdd%<",
"(+~~k(#K%4%[{7y_t_%_'+(<'](/'_%^~{<>_;/#~{<#*%t. <=%3484#0<99o-#",
"++L_+{<<{<_{_~(##<>_|](<~^%<~%3_++~%>%##%!>%&;#<(2%==-9&++'#=8$=",
"^'(('+'(_>~%#<<;#a_%~((^<'/(<>l>'^#C%%>#;&<#<].](~%<-4$~0]+]>yM+",
"{_<+]]+(<<<<%%^%&#3%%>('<+&*{+c~{<_ovl#9=~..+ ]]/%>^99d2. ..%%q ",
"~+'+!+'~^^^^_~<%%e;;=%%]'~^>+]%=<dNl%<dybb@(:61>&+&;lvs>,q|]_%%>",
"(^~'(+~<{>%*#(],5<ins&<~'++_{~~=9Ns%']'#.b.>.b. ~=9OOhh=><]]#*<^",
"+{<<~~<<>#;%']61..[ %+~_'+]<<'!#lPc<~+~*'b]%~66 4c98#^=$D .!=&%_",
"!(({D~~^%d/'@ !1}:]1)6+%~~~~({'<PQla+^<~fb+~(~< <9=('[^#((]>/d*_",
"+~((~>>_>=> . .b1 ]]Rb]',~<%^^!_4ld<{%&>#+_=#+(({%''_>/_/~^>*%>_",
"(~^(~>>~_%_5..661 ~%~:!.1 ~%_><{('(  _#%&._%_  +'+0~#(_{#%~_#__>",
"+'(<<>%_#3~,A]611a<~#'6]|++ (_&&~<_2(%%{&<  . @]+]+(&#<^_^%>>><~",
"5'('<^#>>#~] 166~%@6+so#!++(~{*B&%%(~<<DL[' ]]] ]]']'/=^{(;/^_<(",
"+|+<~_%#9<' 116.0}}6._&',] 5^%#%_Sf(<<<&%>' ]]]+]]]]+%;>^+#;~<_'",
"'+++''^/v{(f611, }b11)__87]]'>%t<<i<2~'4=!   +]]]] ]]^=d~5{;~(~+",
"+++'+(~=9'.616.{16: ..),+/(0!'<#%#{<<<;l^.  ] ]5+0 ]]+(%']~E/~']",
"][''~+'#<,.6611#11k)k   %;(+f'<>/#>#(#4<@..] ]!+]]!]:,!~a. ^<'++",
"6 ('(~{#% 66611.61,.:.11'('R+~x<%#*%#=~++ +>#%^   ] ]R,~>  ]++'+",
"!+2q~~<(_].661b666611:}6=+ +><<&#%_{_93d#/__D+<+! ..f  ^<.]]]'[<",
"]|0[~<('f].61}::. .:1666&>>7e<>##%^~, <=49T#L^>++..}. .>~66. '!+",
"]] !>n%#U|:6}1.6:  @661~%_94%_>%t#&V:62<#'~  d<  ...[+6<+G..,A++",
"+. x$=#~.:66bb616.6.665$/<{<<_>%#7y~ |~t% 6(~!]2><f~#_|~)k .2++5",
"[]@&||].166}bb1b166611 /#>~__>%_d=/a+~^>0+>_]++>('+ %++(.@][f]] ",
"'+';!  6111bbbb111b166:.](__x/%>%%>~'~^{<%<!+|~&~(('_('!!+]6@0  ",
"'M(#]:..6111b}11}1b}166. ] .+%== '%<(']_&.~+(+<;(  }+.6.1666. : ",
"|]+{<]:..61}bb11..bb116.: .]  <#^(__ ..~##~+6bb 6bbb .661111.:: ",
"] ]+{+. ].661b}1.+bb}}61.. ]]]#>[+<_ 6~%%%#~6bbbbbbbb66.11666:.+",
"  !!+_<]!:661b}1. bbb1616.@++%;>_'#%*~%>x>#,] 6bbbbbbb6:}}166. +",
"(|(+]]~' 6111}}16.bbb}}11.@]2W{_>>/d/~+~_%{... .}bbbbbb.11}1:. 0"};
